%TF.GenerationSoftware,KiCad,Pcbnew,10.0.4*%
%TF.CreationDate,2026-07-05T17:11:50+07:00*%
%TF.ProjectId,keeb,6b656562-2e6b-4696-9361-645f70636258,rev?*%
%TF.SameCoordinates,Original*%
%TF.FileFunction,Legend,Bot*%
%TF.FilePolarity,Positive*%
%FSLAX46Y46*%
G04 Gerber Fmt 4.6, Leading zero omitted, Abs format (unit mm)*
G04 Created by KiCad (PCBNEW 10.0.4) date 2026-07-05 17:11:50*
%MOMM*%
%LPD*%
G01*
G04 APERTURE LIST*
%ADD10C,0.150000*%
%ADD11C,0.120000*%
G04 APERTURE END LIST*
D10*
X338084819Y-82505714D02*
X337084819Y-82505714D01*
X337084819Y-82505714D02*
X337084819Y-82743809D01*
X337084819Y-82743809D02*
X337132438Y-82886666D01*
X337132438Y-82886666D02*
X337227676Y-82981904D01*
X337227676Y-82981904D02*
X337322914Y-83029523D01*
X337322914Y-83029523D02*
X337513390Y-83077142D01*
X337513390Y-83077142D02*
X337656247Y-83077142D01*
X337656247Y-83077142D02*
X337846723Y-83029523D01*
X337846723Y-83029523D02*
X337941961Y-82981904D01*
X337941961Y-82981904D02*
X338037200Y-82886666D01*
X338037200Y-82886666D02*
X338084819Y-82743809D01*
X338084819Y-82743809D02*
X338084819Y-82505714D01*
X337084819Y-83410476D02*
X337084819Y-84029523D01*
X337084819Y-84029523D02*
X337465771Y-83696190D01*
X337465771Y-83696190D02*
X337465771Y-83839047D01*
X337465771Y-83839047D02*
X337513390Y-83934285D01*
X337513390Y-83934285D02*
X337561009Y-83981904D01*
X337561009Y-83981904D02*
X337656247Y-84029523D01*
X337656247Y-84029523D02*
X337894342Y-84029523D01*
X337894342Y-84029523D02*
X337989580Y-83981904D01*
X337989580Y-83981904D02*
X338037200Y-83934285D01*
X338037200Y-83934285D02*
X338084819Y-83839047D01*
X338084819Y-83839047D02*
X338084819Y-83553333D01*
X338084819Y-83553333D02*
X338037200Y-83458095D01*
X338037200Y-83458095D02*
X337989580Y-83410476D01*
X338084819Y-84981904D02*
X338084819Y-84410476D01*
X338084819Y-84696190D02*
X337084819Y-84696190D01*
X337084819Y-84696190D02*
X337227676Y-84600952D01*
X337227676Y-84600952D02*
X337322914Y-84505714D01*
X337322914Y-84505714D02*
X337370533Y-84410476D01*
X337764819Y-87268095D02*
X336764819Y-87268095D01*
X337764819Y-87839523D02*
X337193390Y-87410952D01*
X336764819Y-87839523D02*
X337336247Y-87268095D01*
X266647319Y-63455714D02*
X265647319Y-63455714D01*
X265647319Y-63455714D02*
X265647319Y-63693809D01*
X265647319Y-63693809D02*
X265694938Y-63836666D01*
X265694938Y-63836666D02*
X265790176Y-63931904D01*
X265790176Y-63931904D02*
X265885414Y-63979523D01*
X265885414Y-63979523D02*
X266075890Y-64027142D01*
X266075890Y-64027142D02*
X266218747Y-64027142D01*
X266218747Y-64027142D02*
X266409223Y-63979523D01*
X266409223Y-63979523D02*
X266504461Y-63931904D01*
X266504461Y-63931904D02*
X266599700Y-63836666D01*
X266599700Y-63836666D02*
X266647319Y-63693809D01*
X266647319Y-63693809D02*
X266647319Y-63455714D01*
X266647319Y-64979523D02*
X266647319Y-64408095D01*
X266647319Y-64693809D02*
X265647319Y-64693809D01*
X265647319Y-64693809D02*
X265790176Y-64598571D01*
X265790176Y-64598571D02*
X265885414Y-64503333D01*
X265885414Y-64503333D02*
X265933033Y-64408095D01*
X265742557Y-65360476D02*
X265694938Y-65408095D01*
X265694938Y-65408095D02*
X265647319Y-65503333D01*
X265647319Y-65503333D02*
X265647319Y-65741428D01*
X265647319Y-65741428D02*
X265694938Y-65836666D01*
X265694938Y-65836666D02*
X265742557Y-65884285D01*
X265742557Y-65884285D02*
X265837795Y-65931904D01*
X265837795Y-65931904D02*
X265933033Y-65931904D01*
X265933033Y-65931904D02*
X266075890Y-65884285D01*
X266075890Y-65884285D02*
X266647319Y-65312857D01*
X266647319Y-65312857D02*
X266647319Y-65931904D01*
X266327319Y-68218095D02*
X265327319Y-68218095D01*
X266327319Y-68789523D02*
X265755890Y-68360952D01*
X265327319Y-68789523D02*
X265898747Y-68218095D01*
X276172319Y-82505714D02*
X275172319Y-82505714D01*
X275172319Y-82505714D02*
X275172319Y-82743809D01*
X275172319Y-82743809D02*
X275219938Y-82886666D01*
X275219938Y-82886666D02*
X275315176Y-82981904D01*
X275315176Y-82981904D02*
X275410414Y-83029523D01*
X275410414Y-83029523D02*
X275600890Y-83077142D01*
X275600890Y-83077142D02*
X275743747Y-83077142D01*
X275743747Y-83077142D02*
X275934223Y-83029523D01*
X275934223Y-83029523D02*
X276029461Y-82981904D01*
X276029461Y-82981904D02*
X276124700Y-82886666D01*
X276124700Y-82886666D02*
X276172319Y-82743809D01*
X276172319Y-82743809D02*
X276172319Y-82505714D01*
X275267557Y-83458095D02*
X275219938Y-83505714D01*
X275219938Y-83505714D02*
X275172319Y-83600952D01*
X275172319Y-83600952D02*
X275172319Y-83839047D01*
X275172319Y-83839047D02*
X275219938Y-83934285D01*
X275219938Y-83934285D02*
X275267557Y-83981904D01*
X275267557Y-83981904D02*
X275362795Y-84029523D01*
X275362795Y-84029523D02*
X275458033Y-84029523D01*
X275458033Y-84029523D02*
X275600890Y-83981904D01*
X275600890Y-83981904D02*
X276172319Y-83410476D01*
X276172319Y-83410476D02*
X276172319Y-84029523D01*
X275600890Y-84600952D02*
X275553271Y-84505714D01*
X275553271Y-84505714D02*
X275505652Y-84458095D01*
X275505652Y-84458095D02*
X275410414Y-84410476D01*
X275410414Y-84410476D02*
X275362795Y-84410476D01*
X275362795Y-84410476D02*
X275267557Y-84458095D01*
X275267557Y-84458095D02*
X275219938Y-84505714D01*
X275219938Y-84505714D02*
X275172319Y-84600952D01*
X275172319Y-84600952D02*
X275172319Y-84791428D01*
X275172319Y-84791428D02*
X275219938Y-84886666D01*
X275219938Y-84886666D02*
X275267557Y-84934285D01*
X275267557Y-84934285D02*
X275362795Y-84981904D01*
X275362795Y-84981904D02*
X275410414Y-84981904D01*
X275410414Y-84981904D02*
X275505652Y-84934285D01*
X275505652Y-84934285D02*
X275553271Y-84886666D01*
X275553271Y-84886666D02*
X275600890Y-84791428D01*
X275600890Y-84791428D02*
X275600890Y-84600952D01*
X275600890Y-84600952D02*
X275648509Y-84505714D01*
X275648509Y-84505714D02*
X275696128Y-84458095D01*
X275696128Y-84458095D02*
X275791366Y-84410476D01*
X275791366Y-84410476D02*
X275981842Y-84410476D01*
X275981842Y-84410476D02*
X276077080Y-84458095D01*
X276077080Y-84458095D02*
X276124700Y-84505714D01*
X276124700Y-84505714D02*
X276172319Y-84600952D01*
X276172319Y-84600952D02*
X276172319Y-84791428D01*
X276172319Y-84791428D02*
X276124700Y-84886666D01*
X276124700Y-84886666D02*
X276077080Y-84934285D01*
X276077080Y-84934285D02*
X275981842Y-84981904D01*
X275981842Y-84981904D02*
X275791366Y-84981904D01*
X275791366Y-84981904D02*
X275696128Y-84934285D01*
X275696128Y-84934285D02*
X275648509Y-84886666D01*
X275648509Y-84886666D02*
X275600890Y-84791428D01*
X275852319Y-87268095D02*
X274852319Y-87268095D01*
X275852319Y-87839523D02*
X275280890Y-87410952D01*
X274852319Y-87839523D02*
X275423747Y-87268095D01*
X52334819Y-120605714D02*
X51334819Y-120605714D01*
X51334819Y-120605714D02*
X51334819Y-120843809D01*
X51334819Y-120843809D02*
X51382438Y-120986666D01*
X51382438Y-120986666D02*
X51477676Y-121081904D01*
X51477676Y-121081904D02*
X51572914Y-121129523D01*
X51572914Y-121129523D02*
X51763390Y-121177142D01*
X51763390Y-121177142D02*
X51906247Y-121177142D01*
X51906247Y-121177142D02*
X52096723Y-121129523D01*
X52096723Y-121129523D02*
X52191961Y-121081904D01*
X52191961Y-121081904D02*
X52287200Y-120986666D01*
X52287200Y-120986666D02*
X52334819Y-120843809D01*
X52334819Y-120843809D02*
X52334819Y-120605714D01*
X51668152Y-122034285D02*
X52334819Y-122034285D01*
X51287200Y-121796190D02*
X52001485Y-121558095D01*
X52001485Y-121558095D02*
X52001485Y-122177142D01*
X51763390Y-122700952D02*
X51715771Y-122605714D01*
X51715771Y-122605714D02*
X51668152Y-122558095D01*
X51668152Y-122558095D02*
X51572914Y-122510476D01*
X51572914Y-122510476D02*
X51525295Y-122510476D01*
X51525295Y-122510476D02*
X51430057Y-122558095D01*
X51430057Y-122558095D02*
X51382438Y-122605714D01*
X51382438Y-122605714D02*
X51334819Y-122700952D01*
X51334819Y-122700952D02*
X51334819Y-122891428D01*
X51334819Y-122891428D02*
X51382438Y-122986666D01*
X51382438Y-122986666D02*
X51430057Y-123034285D01*
X51430057Y-123034285D02*
X51525295Y-123081904D01*
X51525295Y-123081904D02*
X51572914Y-123081904D01*
X51572914Y-123081904D02*
X51668152Y-123034285D01*
X51668152Y-123034285D02*
X51715771Y-122986666D01*
X51715771Y-122986666D02*
X51763390Y-122891428D01*
X51763390Y-122891428D02*
X51763390Y-122700952D01*
X51763390Y-122700952D02*
X51811009Y-122605714D01*
X51811009Y-122605714D02*
X51858628Y-122558095D01*
X51858628Y-122558095D02*
X51953866Y-122510476D01*
X51953866Y-122510476D02*
X52144342Y-122510476D01*
X52144342Y-122510476D02*
X52239580Y-122558095D01*
X52239580Y-122558095D02*
X52287200Y-122605714D01*
X52287200Y-122605714D02*
X52334819Y-122700952D01*
X52334819Y-122700952D02*
X52334819Y-122891428D01*
X52334819Y-122891428D02*
X52287200Y-122986666D01*
X52287200Y-122986666D02*
X52239580Y-123034285D01*
X52239580Y-123034285D02*
X52144342Y-123081904D01*
X52144342Y-123081904D02*
X51953866Y-123081904D01*
X51953866Y-123081904D02*
X51858628Y-123034285D01*
X51858628Y-123034285D02*
X51811009Y-122986666D01*
X51811009Y-122986666D02*
X51763390Y-122891428D01*
X52014819Y-125368095D02*
X51014819Y-125368095D01*
X52014819Y-125939523D02*
X51443390Y-125510952D01*
X51014819Y-125939523D02*
X51586247Y-125368095D01*
X126153569Y-139655714D02*
X125153569Y-139655714D01*
X125153569Y-139655714D02*
X125153569Y-139893809D01*
X125153569Y-139893809D02*
X125201188Y-140036666D01*
X125201188Y-140036666D02*
X125296426Y-140131904D01*
X125296426Y-140131904D02*
X125391664Y-140179523D01*
X125391664Y-140179523D02*
X125582140Y-140227142D01*
X125582140Y-140227142D02*
X125724997Y-140227142D01*
X125724997Y-140227142D02*
X125915473Y-140179523D01*
X125915473Y-140179523D02*
X126010711Y-140131904D01*
X126010711Y-140131904D02*
X126105950Y-140036666D01*
X126105950Y-140036666D02*
X126153569Y-139893809D01*
X126153569Y-139893809D02*
X126153569Y-139655714D01*
X125153569Y-141084285D02*
X125153569Y-140893809D01*
X125153569Y-140893809D02*
X125201188Y-140798571D01*
X125201188Y-140798571D02*
X125248807Y-140750952D01*
X125248807Y-140750952D02*
X125391664Y-140655714D01*
X125391664Y-140655714D02*
X125582140Y-140608095D01*
X125582140Y-140608095D02*
X125963092Y-140608095D01*
X125963092Y-140608095D02*
X126058330Y-140655714D01*
X126058330Y-140655714D02*
X126105950Y-140703333D01*
X126105950Y-140703333D02*
X126153569Y-140798571D01*
X126153569Y-140798571D02*
X126153569Y-140989047D01*
X126153569Y-140989047D02*
X126105950Y-141084285D01*
X126105950Y-141084285D02*
X126058330Y-141131904D01*
X126058330Y-141131904D02*
X125963092Y-141179523D01*
X125963092Y-141179523D02*
X125724997Y-141179523D01*
X125724997Y-141179523D02*
X125629759Y-141131904D01*
X125629759Y-141131904D02*
X125582140Y-141084285D01*
X125582140Y-141084285D02*
X125534521Y-140989047D01*
X125534521Y-140989047D02*
X125534521Y-140798571D01*
X125534521Y-140798571D02*
X125582140Y-140703333D01*
X125582140Y-140703333D02*
X125629759Y-140655714D01*
X125629759Y-140655714D02*
X125724997Y-140608095D01*
X125153569Y-142036666D02*
X125153569Y-141846190D01*
X125153569Y-141846190D02*
X125201188Y-141750952D01*
X125201188Y-141750952D02*
X125248807Y-141703333D01*
X125248807Y-141703333D02*
X125391664Y-141608095D01*
X125391664Y-141608095D02*
X125582140Y-141560476D01*
X125582140Y-141560476D02*
X125963092Y-141560476D01*
X125963092Y-141560476D02*
X126058330Y-141608095D01*
X126058330Y-141608095D02*
X126105950Y-141655714D01*
X126105950Y-141655714D02*
X126153569Y-141750952D01*
X126153569Y-141750952D02*
X126153569Y-141941428D01*
X126153569Y-141941428D02*
X126105950Y-142036666D01*
X126105950Y-142036666D02*
X126058330Y-142084285D01*
X126058330Y-142084285D02*
X125963092Y-142131904D01*
X125963092Y-142131904D02*
X125724997Y-142131904D01*
X125724997Y-142131904D02*
X125629759Y-142084285D01*
X125629759Y-142084285D02*
X125582140Y-142036666D01*
X125582140Y-142036666D02*
X125534521Y-141941428D01*
X125534521Y-141941428D02*
X125534521Y-141750952D01*
X125534521Y-141750952D02*
X125582140Y-141655714D01*
X125582140Y-141655714D02*
X125629759Y-141608095D01*
X125629759Y-141608095D02*
X125724997Y-141560476D01*
X125833569Y-144418095D02*
X124833569Y-144418095D01*
X125833569Y-144989523D02*
X125262140Y-144560952D01*
X124833569Y-144989523D02*
X125404997Y-144418095D01*
X176159819Y-120605714D02*
X175159819Y-120605714D01*
X175159819Y-120605714D02*
X175159819Y-120843809D01*
X175159819Y-120843809D02*
X175207438Y-120986666D01*
X175207438Y-120986666D02*
X175302676Y-121081904D01*
X175302676Y-121081904D02*
X175397914Y-121129523D01*
X175397914Y-121129523D02*
X175588390Y-121177142D01*
X175588390Y-121177142D02*
X175731247Y-121177142D01*
X175731247Y-121177142D02*
X175921723Y-121129523D01*
X175921723Y-121129523D02*
X176016961Y-121081904D01*
X176016961Y-121081904D02*
X176112200Y-120986666D01*
X176112200Y-120986666D02*
X176159819Y-120843809D01*
X176159819Y-120843809D02*
X176159819Y-120605714D01*
X175159819Y-122081904D02*
X175159819Y-121605714D01*
X175159819Y-121605714D02*
X175636009Y-121558095D01*
X175636009Y-121558095D02*
X175588390Y-121605714D01*
X175588390Y-121605714D02*
X175540771Y-121700952D01*
X175540771Y-121700952D02*
X175540771Y-121939047D01*
X175540771Y-121939047D02*
X175588390Y-122034285D01*
X175588390Y-122034285D02*
X175636009Y-122081904D01*
X175636009Y-122081904D02*
X175731247Y-122129523D01*
X175731247Y-122129523D02*
X175969342Y-122129523D01*
X175969342Y-122129523D02*
X176064580Y-122081904D01*
X176064580Y-122081904D02*
X176112200Y-122034285D01*
X176112200Y-122034285D02*
X176159819Y-121939047D01*
X176159819Y-121939047D02*
X176159819Y-121700952D01*
X176159819Y-121700952D02*
X176112200Y-121605714D01*
X176112200Y-121605714D02*
X176064580Y-121558095D01*
X175159819Y-122462857D02*
X175159819Y-123081904D01*
X175159819Y-123081904D02*
X175540771Y-122748571D01*
X175540771Y-122748571D02*
X175540771Y-122891428D01*
X175540771Y-122891428D02*
X175588390Y-122986666D01*
X175588390Y-122986666D02*
X175636009Y-123034285D01*
X175636009Y-123034285D02*
X175731247Y-123081904D01*
X175731247Y-123081904D02*
X175969342Y-123081904D01*
X175969342Y-123081904D02*
X176064580Y-123034285D01*
X176064580Y-123034285D02*
X176112200Y-122986666D01*
X176112200Y-122986666D02*
X176159819Y-122891428D01*
X176159819Y-122891428D02*
X176159819Y-122605714D01*
X176159819Y-122605714D02*
X176112200Y-122510476D01*
X176112200Y-122510476D02*
X176064580Y-122462857D01*
X175839819Y-125368095D02*
X174839819Y-125368095D01*
X175839819Y-125939523D02*
X175268390Y-125510952D01*
X174839819Y-125939523D02*
X175411247Y-125368095D01*
X128534819Y-101555714D02*
X127534819Y-101555714D01*
X127534819Y-101555714D02*
X127534819Y-101793809D01*
X127534819Y-101793809D02*
X127582438Y-101936666D01*
X127582438Y-101936666D02*
X127677676Y-102031904D01*
X127677676Y-102031904D02*
X127772914Y-102079523D01*
X127772914Y-102079523D02*
X127963390Y-102127142D01*
X127963390Y-102127142D02*
X128106247Y-102127142D01*
X128106247Y-102127142D02*
X128296723Y-102079523D01*
X128296723Y-102079523D02*
X128391961Y-102031904D01*
X128391961Y-102031904D02*
X128487200Y-101936666D01*
X128487200Y-101936666D02*
X128534819Y-101793809D01*
X128534819Y-101793809D02*
X128534819Y-101555714D01*
X127534819Y-102460476D02*
X127534819Y-103079523D01*
X127534819Y-103079523D02*
X127915771Y-102746190D01*
X127915771Y-102746190D02*
X127915771Y-102889047D01*
X127915771Y-102889047D02*
X127963390Y-102984285D01*
X127963390Y-102984285D02*
X128011009Y-103031904D01*
X128011009Y-103031904D02*
X128106247Y-103079523D01*
X128106247Y-103079523D02*
X128344342Y-103079523D01*
X128344342Y-103079523D02*
X128439580Y-103031904D01*
X128439580Y-103031904D02*
X128487200Y-102984285D01*
X128487200Y-102984285D02*
X128534819Y-102889047D01*
X128534819Y-102889047D02*
X128534819Y-102603333D01*
X128534819Y-102603333D02*
X128487200Y-102508095D01*
X128487200Y-102508095D02*
X128439580Y-102460476D01*
X127534819Y-103936666D02*
X127534819Y-103746190D01*
X127534819Y-103746190D02*
X127582438Y-103650952D01*
X127582438Y-103650952D02*
X127630057Y-103603333D01*
X127630057Y-103603333D02*
X127772914Y-103508095D01*
X127772914Y-103508095D02*
X127963390Y-103460476D01*
X127963390Y-103460476D02*
X128344342Y-103460476D01*
X128344342Y-103460476D02*
X128439580Y-103508095D01*
X128439580Y-103508095D02*
X128487200Y-103555714D01*
X128487200Y-103555714D02*
X128534819Y-103650952D01*
X128534819Y-103650952D02*
X128534819Y-103841428D01*
X128534819Y-103841428D02*
X128487200Y-103936666D01*
X128487200Y-103936666D02*
X128439580Y-103984285D01*
X128439580Y-103984285D02*
X128344342Y-104031904D01*
X128344342Y-104031904D02*
X128106247Y-104031904D01*
X128106247Y-104031904D02*
X128011009Y-103984285D01*
X128011009Y-103984285D02*
X127963390Y-103936666D01*
X127963390Y-103936666D02*
X127915771Y-103841428D01*
X127915771Y-103841428D02*
X127915771Y-103650952D01*
X127915771Y-103650952D02*
X127963390Y-103555714D01*
X127963390Y-103555714D02*
X128011009Y-103508095D01*
X128011009Y-103508095D02*
X128106247Y-103460476D01*
X128214819Y-106318095D02*
X127214819Y-106318095D01*
X128214819Y-106889523D02*
X127643390Y-106460952D01*
X127214819Y-106889523D02*
X127786247Y-106318095D01*
X323797319Y-139655714D02*
X322797319Y-139655714D01*
X322797319Y-139655714D02*
X322797319Y-139893809D01*
X322797319Y-139893809D02*
X322844938Y-140036666D01*
X322844938Y-140036666D02*
X322940176Y-140131904D01*
X322940176Y-140131904D02*
X323035414Y-140179523D01*
X323035414Y-140179523D02*
X323225890Y-140227142D01*
X323225890Y-140227142D02*
X323368747Y-140227142D01*
X323368747Y-140227142D02*
X323559223Y-140179523D01*
X323559223Y-140179523D02*
X323654461Y-140131904D01*
X323654461Y-140131904D02*
X323749700Y-140036666D01*
X323749700Y-140036666D02*
X323797319Y-139893809D01*
X323797319Y-139893809D02*
X323797319Y-139655714D01*
X322797319Y-140560476D02*
X322797319Y-141227142D01*
X322797319Y-141227142D02*
X323797319Y-140798571D01*
X323797319Y-142131904D02*
X323797319Y-141560476D01*
X323797319Y-141846190D02*
X322797319Y-141846190D01*
X322797319Y-141846190D02*
X322940176Y-141750952D01*
X322940176Y-141750952D02*
X323035414Y-141655714D01*
X323035414Y-141655714D02*
X323083033Y-141560476D01*
X323477319Y-144418095D02*
X322477319Y-144418095D01*
X323477319Y-144989523D02*
X322905890Y-144560952D01*
X322477319Y-144989523D02*
X323048747Y-144418095D01*
X252359819Y-120605714D02*
X251359819Y-120605714D01*
X251359819Y-120605714D02*
X251359819Y-120843809D01*
X251359819Y-120843809D02*
X251407438Y-120986666D01*
X251407438Y-120986666D02*
X251502676Y-121081904D01*
X251502676Y-121081904D02*
X251597914Y-121129523D01*
X251597914Y-121129523D02*
X251788390Y-121177142D01*
X251788390Y-121177142D02*
X251931247Y-121177142D01*
X251931247Y-121177142D02*
X252121723Y-121129523D01*
X252121723Y-121129523D02*
X252216961Y-121081904D01*
X252216961Y-121081904D02*
X252312200Y-120986666D01*
X252312200Y-120986666D02*
X252359819Y-120843809D01*
X252359819Y-120843809D02*
X252359819Y-120605714D01*
X251359819Y-122081904D02*
X251359819Y-121605714D01*
X251359819Y-121605714D02*
X251836009Y-121558095D01*
X251836009Y-121558095D02*
X251788390Y-121605714D01*
X251788390Y-121605714D02*
X251740771Y-121700952D01*
X251740771Y-121700952D02*
X251740771Y-121939047D01*
X251740771Y-121939047D02*
X251788390Y-122034285D01*
X251788390Y-122034285D02*
X251836009Y-122081904D01*
X251836009Y-122081904D02*
X251931247Y-122129523D01*
X251931247Y-122129523D02*
X252169342Y-122129523D01*
X252169342Y-122129523D02*
X252264580Y-122081904D01*
X252264580Y-122081904D02*
X252312200Y-122034285D01*
X252312200Y-122034285D02*
X252359819Y-121939047D01*
X252359819Y-121939047D02*
X252359819Y-121700952D01*
X252359819Y-121700952D02*
X252312200Y-121605714D01*
X252312200Y-121605714D02*
X252264580Y-121558095D01*
X251359819Y-122462857D02*
X251359819Y-123129523D01*
X251359819Y-123129523D02*
X252359819Y-122700952D01*
X252039819Y-125368095D02*
X251039819Y-125368095D01*
X252039819Y-125939523D02*
X251468390Y-125510952D01*
X251039819Y-125939523D02*
X251611247Y-125368095D01*
X266647319Y-139655714D02*
X265647319Y-139655714D01*
X265647319Y-139655714D02*
X265647319Y-139893809D01*
X265647319Y-139893809D02*
X265694938Y-140036666D01*
X265694938Y-140036666D02*
X265790176Y-140131904D01*
X265790176Y-140131904D02*
X265885414Y-140179523D01*
X265885414Y-140179523D02*
X266075890Y-140227142D01*
X266075890Y-140227142D02*
X266218747Y-140227142D01*
X266218747Y-140227142D02*
X266409223Y-140179523D01*
X266409223Y-140179523D02*
X266504461Y-140131904D01*
X266504461Y-140131904D02*
X266599700Y-140036666D01*
X266599700Y-140036666D02*
X266647319Y-139893809D01*
X266647319Y-139893809D02*
X266647319Y-139655714D01*
X265647319Y-141084285D02*
X265647319Y-140893809D01*
X265647319Y-140893809D02*
X265694938Y-140798571D01*
X265694938Y-140798571D02*
X265742557Y-140750952D01*
X265742557Y-140750952D02*
X265885414Y-140655714D01*
X265885414Y-140655714D02*
X266075890Y-140608095D01*
X266075890Y-140608095D02*
X266456842Y-140608095D01*
X266456842Y-140608095D02*
X266552080Y-140655714D01*
X266552080Y-140655714D02*
X266599700Y-140703333D01*
X266599700Y-140703333D02*
X266647319Y-140798571D01*
X266647319Y-140798571D02*
X266647319Y-140989047D01*
X266647319Y-140989047D02*
X266599700Y-141084285D01*
X266599700Y-141084285D02*
X266552080Y-141131904D01*
X266552080Y-141131904D02*
X266456842Y-141179523D01*
X266456842Y-141179523D02*
X266218747Y-141179523D01*
X266218747Y-141179523D02*
X266123509Y-141131904D01*
X266123509Y-141131904D02*
X266075890Y-141084285D01*
X266075890Y-141084285D02*
X266028271Y-140989047D01*
X266028271Y-140989047D02*
X266028271Y-140798571D01*
X266028271Y-140798571D02*
X266075890Y-140703333D01*
X266075890Y-140703333D02*
X266123509Y-140655714D01*
X266123509Y-140655714D02*
X266218747Y-140608095D01*
X266075890Y-141750952D02*
X266028271Y-141655714D01*
X266028271Y-141655714D02*
X265980652Y-141608095D01*
X265980652Y-141608095D02*
X265885414Y-141560476D01*
X265885414Y-141560476D02*
X265837795Y-141560476D01*
X265837795Y-141560476D02*
X265742557Y-141608095D01*
X265742557Y-141608095D02*
X265694938Y-141655714D01*
X265694938Y-141655714D02*
X265647319Y-141750952D01*
X265647319Y-141750952D02*
X265647319Y-141941428D01*
X265647319Y-141941428D02*
X265694938Y-142036666D01*
X265694938Y-142036666D02*
X265742557Y-142084285D01*
X265742557Y-142084285D02*
X265837795Y-142131904D01*
X265837795Y-142131904D02*
X265885414Y-142131904D01*
X265885414Y-142131904D02*
X265980652Y-142084285D01*
X265980652Y-142084285D02*
X266028271Y-142036666D01*
X266028271Y-142036666D02*
X266075890Y-141941428D01*
X266075890Y-141941428D02*
X266075890Y-141750952D01*
X266075890Y-141750952D02*
X266123509Y-141655714D01*
X266123509Y-141655714D02*
X266171128Y-141608095D01*
X266171128Y-141608095D02*
X266266366Y-141560476D01*
X266266366Y-141560476D02*
X266456842Y-141560476D01*
X266456842Y-141560476D02*
X266552080Y-141608095D01*
X266552080Y-141608095D02*
X266599700Y-141655714D01*
X266599700Y-141655714D02*
X266647319Y-141750952D01*
X266647319Y-141750952D02*
X266647319Y-141941428D01*
X266647319Y-141941428D02*
X266599700Y-142036666D01*
X266599700Y-142036666D02*
X266552080Y-142084285D01*
X266552080Y-142084285D02*
X266456842Y-142131904D01*
X266456842Y-142131904D02*
X266266366Y-142131904D01*
X266266366Y-142131904D02*
X266171128Y-142084285D01*
X266171128Y-142084285D02*
X266123509Y-142036666D01*
X266123509Y-142036666D02*
X266075890Y-141941428D01*
X266327319Y-144418095D02*
X265327319Y-144418095D01*
X266327319Y-144989523D02*
X265755890Y-144560952D01*
X265327319Y-144989523D02*
X265898747Y-144418095D01*
X261884819Y-101555714D02*
X260884819Y-101555714D01*
X260884819Y-101555714D02*
X260884819Y-101793809D01*
X260884819Y-101793809D02*
X260932438Y-101936666D01*
X260932438Y-101936666D02*
X261027676Y-102031904D01*
X261027676Y-102031904D02*
X261122914Y-102079523D01*
X261122914Y-102079523D02*
X261313390Y-102127142D01*
X261313390Y-102127142D02*
X261456247Y-102127142D01*
X261456247Y-102127142D02*
X261646723Y-102079523D01*
X261646723Y-102079523D02*
X261741961Y-102031904D01*
X261741961Y-102031904D02*
X261837200Y-101936666D01*
X261837200Y-101936666D02*
X261884819Y-101793809D01*
X261884819Y-101793809D02*
X261884819Y-101555714D01*
X261218152Y-102984285D02*
X261884819Y-102984285D01*
X260837200Y-102746190D02*
X261551485Y-102508095D01*
X261551485Y-102508095D02*
X261551485Y-103127142D01*
X260884819Y-103412857D02*
X260884819Y-104031904D01*
X260884819Y-104031904D02*
X261265771Y-103698571D01*
X261265771Y-103698571D02*
X261265771Y-103841428D01*
X261265771Y-103841428D02*
X261313390Y-103936666D01*
X261313390Y-103936666D02*
X261361009Y-103984285D01*
X261361009Y-103984285D02*
X261456247Y-104031904D01*
X261456247Y-104031904D02*
X261694342Y-104031904D01*
X261694342Y-104031904D02*
X261789580Y-103984285D01*
X261789580Y-103984285D02*
X261837200Y-103936666D01*
X261837200Y-103936666D02*
X261884819Y-103841428D01*
X261884819Y-103841428D02*
X261884819Y-103555714D01*
X261884819Y-103555714D02*
X261837200Y-103460476D01*
X261837200Y-103460476D02*
X261789580Y-103412857D01*
X261564819Y-106318095D02*
X260564819Y-106318095D01*
X261564819Y-106889523D02*
X260993390Y-106460952D01*
X260564819Y-106889523D02*
X261136247Y-106318095D01*
X88053569Y-120605714D02*
X87053569Y-120605714D01*
X87053569Y-120605714D02*
X87053569Y-120843809D01*
X87053569Y-120843809D02*
X87101188Y-120986666D01*
X87101188Y-120986666D02*
X87196426Y-121081904D01*
X87196426Y-121081904D02*
X87291664Y-121129523D01*
X87291664Y-121129523D02*
X87482140Y-121177142D01*
X87482140Y-121177142D02*
X87624997Y-121177142D01*
X87624997Y-121177142D02*
X87815473Y-121129523D01*
X87815473Y-121129523D02*
X87910711Y-121081904D01*
X87910711Y-121081904D02*
X88005950Y-120986666D01*
X88005950Y-120986666D02*
X88053569Y-120843809D01*
X88053569Y-120843809D02*
X88053569Y-120605714D01*
X87386902Y-122034285D02*
X88053569Y-122034285D01*
X87005950Y-121796190D02*
X87720235Y-121558095D01*
X87720235Y-121558095D02*
X87720235Y-122177142D01*
X88053569Y-122605714D02*
X88053569Y-122796190D01*
X88053569Y-122796190D02*
X88005950Y-122891428D01*
X88005950Y-122891428D02*
X87958330Y-122939047D01*
X87958330Y-122939047D02*
X87815473Y-123034285D01*
X87815473Y-123034285D02*
X87624997Y-123081904D01*
X87624997Y-123081904D02*
X87244045Y-123081904D01*
X87244045Y-123081904D02*
X87148807Y-123034285D01*
X87148807Y-123034285D02*
X87101188Y-122986666D01*
X87101188Y-122986666D02*
X87053569Y-122891428D01*
X87053569Y-122891428D02*
X87053569Y-122700952D01*
X87053569Y-122700952D02*
X87101188Y-122605714D01*
X87101188Y-122605714D02*
X87148807Y-122558095D01*
X87148807Y-122558095D02*
X87244045Y-122510476D01*
X87244045Y-122510476D02*
X87482140Y-122510476D01*
X87482140Y-122510476D02*
X87577378Y-122558095D01*
X87577378Y-122558095D02*
X87624997Y-122605714D01*
X87624997Y-122605714D02*
X87672616Y-122700952D01*
X87672616Y-122700952D02*
X87672616Y-122891428D01*
X87672616Y-122891428D02*
X87624997Y-122986666D01*
X87624997Y-122986666D02*
X87577378Y-123034285D01*
X87577378Y-123034285D02*
X87482140Y-123081904D01*
X87733569Y-125368095D02*
X86733569Y-125368095D01*
X87733569Y-125939523D02*
X87162140Y-125510952D01*
X86733569Y-125939523D02*
X87304997Y-125368095D01*
X242834819Y-101555714D02*
X241834819Y-101555714D01*
X241834819Y-101555714D02*
X241834819Y-101793809D01*
X241834819Y-101793809D02*
X241882438Y-101936666D01*
X241882438Y-101936666D02*
X241977676Y-102031904D01*
X241977676Y-102031904D02*
X242072914Y-102079523D01*
X242072914Y-102079523D02*
X242263390Y-102127142D01*
X242263390Y-102127142D02*
X242406247Y-102127142D01*
X242406247Y-102127142D02*
X242596723Y-102079523D01*
X242596723Y-102079523D02*
X242691961Y-102031904D01*
X242691961Y-102031904D02*
X242787200Y-101936666D01*
X242787200Y-101936666D02*
X242834819Y-101793809D01*
X242834819Y-101793809D02*
X242834819Y-101555714D01*
X242168152Y-102984285D02*
X242834819Y-102984285D01*
X241787200Y-102746190D02*
X242501485Y-102508095D01*
X242501485Y-102508095D02*
X242501485Y-103127142D01*
X241930057Y-103460476D02*
X241882438Y-103508095D01*
X241882438Y-103508095D02*
X241834819Y-103603333D01*
X241834819Y-103603333D02*
X241834819Y-103841428D01*
X241834819Y-103841428D02*
X241882438Y-103936666D01*
X241882438Y-103936666D02*
X241930057Y-103984285D01*
X241930057Y-103984285D02*
X242025295Y-104031904D01*
X242025295Y-104031904D02*
X242120533Y-104031904D01*
X242120533Y-104031904D02*
X242263390Y-103984285D01*
X242263390Y-103984285D02*
X242834819Y-103412857D01*
X242834819Y-103412857D02*
X242834819Y-104031904D01*
X242514819Y-106318095D02*
X241514819Y-106318095D01*
X242514819Y-106889523D02*
X241943390Y-106460952D01*
X241514819Y-106889523D02*
X242086247Y-106318095D01*
X142822319Y-82505714D02*
X141822319Y-82505714D01*
X141822319Y-82505714D02*
X141822319Y-82743809D01*
X141822319Y-82743809D02*
X141869938Y-82886666D01*
X141869938Y-82886666D02*
X141965176Y-82981904D01*
X141965176Y-82981904D02*
X142060414Y-83029523D01*
X142060414Y-83029523D02*
X142250890Y-83077142D01*
X142250890Y-83077142D02*
X142393747Y-83077142D01*
X142393747Y-83077142D02*
X142584223Y-83029523D01*
X142584223Y-83029523D02*
X142679461Y-82981904D01*
X142679461Y-82981904D02*
X142774700Y-82886666D01*
X142774700Y-82886666D02*
X142822319Y-82743809D01*
X142822319Y-82743809D02*
X142822319Y-82505714D01*
X141917557Y-83458095D02*
X141869938Y-83505714D01*
X141869938Y-83505714D02*
X141822319Y-83600952D01*
X141822319Y-83600952D02*
X141822319Y-83839047D01*
X141822319Y-83839047D02*
X141869938Y-83934285D01*
X141869938Y-83934285D02*
X141917557Y-83981904D01*
X141917557Y-83981904D02*
X142012795Y-84029523D01*
X142012795Y-84029523D02*
X142108033Y-84029523D01*
X142108033Y-84029523D02*
X142250890Y-83981904D01*
X142250890Y-83981904D02*
X142822319Y-83410476D01*
X142822319Y-83410476D02*
X142822319Y-84029523D01*
X142822319Y-84981904D02*
X142822319Y-84410476D01*
X142822319Y-84696190D02*
X141822319Y-84696190D01*
X141822319Y-84696190D02*
X141965176Y-84600952D01*
X141965176Y-84600952D02*
X142060414Y-84505714D01*
X142060414Y-84505714D02*
X142108033Y-84410476D01*
X142502319Y-87268095D02*
X141502319Y-87268095D01*
X142502319Y-87839523D02*
X141930890Y-87410952D01*
X141502319Y-87839523D02*
X142073747Y-87268095D01*
X102341069Y-139655714D02*
X101341069Y-139655714D01*
X101341069Y-139655714D02*
X101341069Y-139893809D01*
X101341069Y-139893809D02*
X101388688Y-140036666D01*
X101388688Y-140036666D02*
X101483926Y-140131904D01*
X101483926Y-140131904D02*
X101579164Y-140179523D01*
X101579164Y-140179523D02*
X101769640Y-140227142D01*
X101769640Y-140227142D02*
X101912497Y-140227142D01*
X101912497Y-140227142D02*
X102102973Y-140179523D01*
X102102973Y-140179523D02*
X102198211Y-140131904D01*
X102198211Y-140131904D02*
X102293450Y-140036666D01*
X102293450Y-140036666D02*
X102341069Y-139893809D01*
X102341069Y-139893809D02*
X102341069Y-139655714D01*
X101341069Y-141084285D02*
X101341069Y-140893809D01*
X101341069Y-140893809D02*
X101388688Y-140798571D01*
X101388688Y-140798571D02*
X101436307Y-140750952D01*
X101436307Y-140750952D02*
X101579164Y-140655714D01*
X101579164Y-140655714D02*
X101769640Y-140608095D01*
X101769640Y-140608095D02*
X102150592Y-140608095D01*
X102150592Y-140608095D02*
X102245830Y-140655714D01*
X102245830Y-140655714D02*
X102293450Y-140703333D01*
X102293450Y-140703333D02*
X102341069Y-140798571D01*
X102341069Y-140798571D02*
X102341069Y-140989047D01*
X102341069Y-140989047D02*
X102293450Y-141084285D01*
X102293450Y-141084285D02*
X102245830Y-141131904D01*
X102245830Y-141131904D02*
X102150592Y-141179523D01*
X102150592Y-141179523D02*
X101912497Y-141179523D01*
X101912497Y-141179523D02*
X101817259Y-141131904D01*
X101817259Y-141131904D02*
X101769640Y-141084285D01*
X101769640Y-141084285D02*
X101722021Y-140989047D01*
X101722021Y-140989047D02*
X101722021Y-140798571D01*
X101722021Y-140798571D02*
X101769640Y-140703333D01*
X101769640Y-140703333D02*
X101817259Y-140655714D01*
X101817259Y-140655714D02*
X101912497Y-140608095D01*
X101341069Y-142084285D02*
X101341069Y-141608095D01*
X101341069Y-141608095D02*
X101817259Y-141560476D01*
X101817259Y-141560476D02*
X101769640Y-141608095D01*
X101769640Y-141608095D02*
X101722021Y-141703333D01*
X101722021Y-141703333D02*
X101722021Y-141941428D01*
X101722021Y-141941428D02*
X101769640Y-142036666D01*
X101769640Y-142036666D02*
X101817259Y-142084285D01*
X101817259Y-142084285D02*
X101912497Y-142131904D01*
X101912497Y-142131904D02*
X102150592Y-142131904D01*
X102150592Y-142131904D02*
X102245830Y-142084285D01*
X102245830Y-142084285D02*
X102293450Y-142036666D01*
X102293450Y-142036666D02*
X102341069Y-141941428D01*
X102341069Y-141941428D02*
X102341069Y-141703333D01*
X102341069Y-141703333D02*
X102293450Y-141608095D01*
X102293450Y-141608095D02*
X102245830Y-141560476D01*
X102021069Y-144418095D02*
X101021069Y-144418095D01*
X102021069Y-144989523D02*
X101449640Y-144560952D01*
X101021069Y-144989523D02*
X101592497Y-144418095D01*
X285697319Y-139655714D02*
X284697319Y-139655714D01*
X284697319Y-139655714D02*
X284697319Y-139893809D01*
X284697319Y-139893809D02*
X284744938Y-140036666D01*
X284744938Y-140036666D02*
X284840176Y-140131904D01*
X284840176Y-140131904D02*
X284935414Y-140179523D01*
X284935414Y-140179523D02*
X285125890Y-140227142D01*
X285125890Y-140227142D02*
X285268747Y-140227142D01*
X285268747Y-140227142D02*
X285459223Y-140179523D01*
X285459223Y-140179523D02*
X285554461Y-140131904D01*
X285554461Y-140131904D02*
X285649700Y-140036666D01*
X285649700Y-140036666D02*
X285697319Y-139893809D01*
X285697319Y-139893809D02*
X285697319Y-139655714D01*
X284697319Y-141084285D02*
X284697319Y-140893809D01*
X284697319Y-140893809D02*
X284744938Y-140798571D01*
X284744938Y-140798571D02*
X284792557Y-140750952D01*
X284792557Y-140750952D02*
X284935414Y-140655714D01*
X284935414Y-140655714D02*
X285125890Y-140608095D01*
X285125890Y-140608095D02*
X285506842Y-140608095D01*
X285506842Y-140608095D02*
X285602080Y-140655714D01*
X285602080Y-140655714D02*
X285649700Y-140703333D01*
X285649700Y-140703333D02*
X285697319Y-140798571D01*
X285697319Y-140798571D02*
X285697319Y-140989047D01*
X285697319Y-140989047D02*
X285649700Y-141084285D01*
X285649700Y-141084285D02*
X285602080Y-141131904D01*
X285602080Y-141131904D02*
X285506842Y-141179523D01*
X285506842Y-141179523D02*
X285268747Y-141179523D01*
X285268747Y-141179523D02*
X285173509Y-141131904D01*
X285173509Y-141131904D02*
X285125890Y-141084285D01*
X285125890Y-141084285D02*
X285078271Y-140989047D01*
X285078271Y-140989047D02*
X285078271Y-140798571D01*
X285078271Y-140798571D02*
X285125890Y-140703333D01*
X285125890Y-140703333D02*
X285173509Y-140655714D01*
X285173509Y-140655714D02*
X285268747Y-140608095D01*
X285697319Y-141655714D02*
X285697319Y-141846190D01*
X285697319Y-141846190D02*
X285649700Y-141941428D01*
X285649700Y-141941428D02*
X285602080Y-141989047D01*
X285602080Y-141989047D02*
X285459223Y-142084285D01*
X285459223Y-142084285D02*
X285268747Y-142131904D01*
X285268747Y-142131904D02*
X284887795Y-142131904D01*
X284887795Y-142131904D02*
X284792557Y-142084285D01*
X284792557Y-142084285D02*
X284744938Y-142036666D01*
X284744938Y-142036666D02*
X284697319Y-141941428D01*
X284697319Y-141941428D02*
X284697319Y-141750952D01*
X284697319Y-141750952D02*
X284744938Y-141655714D01*
X284744938Y-141655714D02*
X284792557Y-141608095D01*
X284792557Y-141608095D02*
X284887795Y-141560476D01*
X284887795Y-141560476D02*
X285125890Y-141560476D01*
X285125890Y-141560476D02*
X285221128Y-141608095D01*
X285221128Y-141608095D02*
X285268747Y-141655714D01*
X285268747Y-141655714D02*
X285316366Y-141750952D01*
X285316366Y-141750952D02*
X285316366Y-141941428D01*
X285316366Y-141941428D02*
X285268747Y-142036666D01*
X285268747Y-142036666D02*
X285221128Y-142084285D01*
X285221128Y-142084285D02*
X285125890Y-142131904D01*
X285377319Y-144418095D02*
X284377319Y-144418095D01*
X285377319Y-144989523D02*
X284805890Y-144560952D01*
X284377319Y-144989523D02*
X284948747Y-144418095D01*
X257122319Y-82505714D02*
X256122319Y-82505714D01*
X256122319Y-82505714D02*
X256122319Y-82743809D01*
X256122319Y-82743809D02*
X256169938Y-82886666D01*
X256169938Y-82886666D02*
X256265176Y-82981904D01*
X256265176Y-82981904D02*
X256360414Y-83029523D01*
X256360414Y-83029523D02*
X256550890Y-83077142D01*
X256550890Y-83077142D02*
X256693747Y-83077142D01*
X256693747Y-83077142D02*
X256884223Y-83029523D01*
X256884223Y-83029523D02*
X256979461Y-82981904D01*
X256979461Y-82981904D02*
X257074700Y-82886666D01*
X257074700Y-82886666D02*
X257122319Y-82743809D01*
X257122319Y-82743809D02*
X257122319Y-82505714D01*
X256217557Y-83458095D02*
X256169938Y-83505714D01*
X256169938Y-83505714D02*
X256122319Y-83600952D01*
X256122319Y-83600952D02*
X256122319Y-83839047D01*
X256122319Y-83839047D02*
X256169938Y-83934285D01*
X256169938Y-83934285D02*
X256217557Y-83981904D01*
X256217557Y-83981904D02*
X256312795Y-84029523D01*
X256312795Y-84029523D02*
X256408033Y-84029523D01*
X256408033Y-84029523D02*
X256550890Y-83981904D01*
X256550890Y-83981904D02*
X257122319Y-83410476D01*
X257122319Y-83410476D02*
X257122319Y-84029523D01*
X256122319Y-84362857D02*
X256122319Y-85029523D01*
X256122319Y-85029523D02*
X257122319Y-84600952D01*
X256802319Y-87268095D02*
X255802319Y-87268095D01*
X256802319Y-87839523D02*
X256230890Y-87410952D01*
X255802319Y-87839523D02*
X256373747Y-87268095D01*
X209497319Y-63931905D02*
X208497319Y-63931905D01*
X208497319Y-63931905D02*
X208497319Y-64170000D01*
X208497319Y-64170000D02*
X208544938Y-64312857D01*
X208544938Y-64312857D02*
X208640176Y-64408095D01*
X208640176Y-64408095D02*
X208735414Y-64455714D01*
X208735414Y-64455714D02*
X208925890Y-64503333D01*
X208925890Y-64503333D02*
X209068747Y-64503333D01*
X209068747Y-64503333D02*
X209259223Y-64455714D01*
X209259223Y-64455714D02*
X209354461Y-64408095D01*
X209354461Y-64408095D02*
X209449700Y-64312857D01*
X209449700Y-64312857D02*
X209497319Y-64170000D01*
X209497319Y-64170000D02*
X209497319Y-63931905D01*
X209497319Y-64979524D02*
X209497319Y-65170000D01*
X209497319Y-65170000D02*
X209449700Y-65265238D01*
X209449700Y-65265238D02*
X209402080Y-65312857D01*
X209402080Y-65312857D02*
X209259223Y-65408095D01*
X209259223Y-65408095D02*
X209068747Y-65455714D01*
X209068747Y-65455714D02*
X208687795Y-65455714D01*
X208687795Y-65455714D02*
X208592557Y-65408095D01*
X208592557Y-65408095D02*
X208544938Y-65360476D01*
X208544938Y-65360476D02*
X208497319Y-65265238D01*
X208497319Y-65265238D02*
X208497319Y-65074762D01*
X208497319Y-65074762D02*
X208544938Y-64979524D01*
X208544938Y-64979524D02*
X208592557Y-64931905D01*
X208592557Y-64931905D02*
X208687795Y-64884286D01*
X208687795Y-64884286D02*
X208925890Y-64884286D01*
X208925890Y-64884286D02*
X209021128Y-64931905D01*
X209021128Y-64931905D02*
X209068747Y-64979524D01*
X209068747Y-64979524D02*
X209116366Y-65074762D01*
X209116366Y-65074762D02*
X209116366Y-65265238D01*
X209116366Y-65265238D02*
X209068747Y-65360476D01*
X209068747Y-65360476D02*
X209021128Y-65408095D01*
X209021128Y-65408095D02*
X208925890Y-65455714D01*
X209177319Y-68218095D02*
X208177319Y-68218095D01*
X209177319Y-68789523D02*
X208605890Y-68360952D01*
X208177319Y-68789523D02*
X208748747Y-68218095D01*
X138059819Y-120605714D02*
X137059819Y-120605714D01*
X137059819Y-120605714D02*
X137059819Y-120843809D01*
X137059819Y-120843809D02*
X137107438Y-120986666D01*
X137107438Y-120986666D02*
X137202676Y-121081904D01*
X137202676Y-121081904D02*
X137297914Y-121129523D01*
X137297914Y-121129523D02*
X137488390Y-121177142D01*
X137488390Y-121177142D02*
X137631247Y-121177142D01*
X137631247Y-121177142D02*
X137821723Y-121129523D01*
X137821723Y-121129523D02*
X137916961Y-121081904D01*
X137916961Y-121081904D02*
X138012200Y-120986666D01*
X138012200Y-120986666D02*
X138059819Y-120843809D01*
X138059819Y-120843809D02*
X138059819Y-120605714D01*
X137059819Y-122081904D02*
X137059819Y-121605714D01*
X137059819Y-121605714D02*
X137536009Y-121558095D01*
X137536009Y-121558095D02*
X137488390Y-121605714D01*
X137488390Y-121605714D02*
X137440771Y-121700952D01*
X137440771Y-121700952D02*
X137440771Y-121939047D01*
X137440771Y-121939047D02*
X137488390Y-122034285D01*
X137488390Y-122034285D02*
X137536009Y-122081904D01*
X137536009Y-122081904D02*
X137631247Y-122129523D01*
X137631247Y-122129523D02*
X137869342Y-122129523D01*
X137869342Y-122129523D02*
X137964580Y-122081904D01*
X137964580Y-122081904D02*
X138012200Y-122034285D01*
X138012200Y-122034285D02*
X138059819Y-121939047D01*
X138059819Y-121939047D02*
X138059819Y-121700952D01*
X138059819Y-121700952D02*
X138012200Y-121605714D01*
X138012200Y-121605714D02*
X137964580Y-121558095D01*
X138059819Y-123081904D02*
X138059819Y-122510476D01*
X138059819Y-122796190D02*
X137059819Y-122796190D01*
X137059819Y-122796190D02*
X137202676Y-122700952D01*
X137202676Y-122700952D02*
X137297914Y-122605714D01*
X137297914Y-122605714D02*
X137345533Y-122510476D01*
X137739819Y-125368095D02*
X136739819Y-125368095D01*
X137739819Y-125939523D02*
X137168390Y-125510952D01*
X136739819Y-125939523D02*
X137311247Y-125368095D01*
X119009819Y-120605714D02*
X118009819Y-120605714D01*
X118009819Y-120605714D02*
X118009819Y-120843809D01*
X118009819Y-120843809D02*
X118057438Y-120986666D01*
X118057438Y-120986666D02*
X118152676Y-121081904D01*
X118152676Y-121081904D02*
X118247914Y-121129523D01*
X118247914Y-121129523D02*
X118438390Y-121177142D01*
X118438390Y-121177142D02*
X118581247Y-121177142D01*
X118581247Y-121177142D02*
X118771723Y-121129523D01*
X118771723Y-121129523D02*
X118866961Y-121081904D01*
X118866961Y-121081904D02*
X118962200Y-120986666D01*
X118962200Y-120986666D02*
X119009819Y-120843809D01*
X119009819Y-120843809D02*
X119009819Y-120605714D01*
X118009819Y-122081904D02*
X118009819Y-121605714D01*
X118009819Y-121605714D02*
X118486009Y-121558095D01*
X118486009Y-121558095D02*
X118438390Y-121605714D01*
X118438390Y-121605714D02*
X118390771Y-121700952D01*
X118390771Y-121700952D02*
X118390771Y-121939047D01*
X118390771Y-121939047D02*
X118438390Y-122034285D01*
X118438390Y-122034285D02*
X118486009Y-122081904D01*
X118486009Y-122081904D02*
X118581247Y-122129523D01*
X118581247Y-122129523D02*
X118819342Y-122129523D01*
X118819342Y-122129523D02*
X118914580Y-122081904D01*
X118914580Y-122081904D02*
X118962200Y-122034285D01*
X118962200Y-122034285D02*
X119009819Y-121939047D01*
X119009819Y-121939047D02*
X119009819Y-121700952D01*
X119009819Y-121700952D02*
X118962200Y-121605714D01*
X118962200Y-121605714D02*
X118914580Y-121558095D01*
X118009819Y-122748571D02*
X118009819Y-122843809D01*
X118009819Y-122843809D02*
X118057438Y-122939047D01*
X118057438Y-122939047D02*
X118105057Y-122986666D01*
X118105057Y-122986666D02*
X118200295Y-123034285D01*
X118200295Y-123034285D02*
X118390771Y-123081904D01*
X118390771Y-123081904D02*
X118628866Y-123081904D01*
X118628866Y-123081904D02*
X118819342Y-123034285D01*
X118819342Y-123034285D02*
X118914580Y-122986666D01*
X118914580Y-122986666D02*
X118962200Y-122939047D01*
X118962200Y-122939047D02*
X119009819Y-122843809D01*
X119009819Y-122843809D02*
X119009819Y-122748571D01*
X119009819Y-122748571D02*
X118962200Y-122653333D01*
X118962200Y-122653333D02*
X118914580Y-122605714D01*
X118914580Y-122605714D02*
X118819342Y-122558095D01*
X118819342Y-122558095D02*
X118628866Y-122510476D01*
X118628866Y-122510476D02*
X118390771Y-122510476D01*
X118390771Y-122510476D02*
X118200295Y-122558095D01*
X118200295Y-122558095D02*
X118105057Y-122605714D01*
X118105057Y-122605714D02*
X118057438Y-122653333D01*
X118057438Y-122653333D02*
X118009819Y-122748571D01*
X118689819Y-125368095D02*
X117689819Y-125368095D01*
X118689819Y-125939523D02*
X118118390Y-125510952D01*
X117689819Y-125939523D02*
X118261247Y-125368095D01*
X238072319Y-82505714D02*
X237072319Y-82505714D01*
X237072319Y-82505714D02*
X237072319Y-82743809D01*
X237072319Y-82743809D02*
X237119938Y-82886666D01*
X237119938Y-82886666D02*
X237215176Y-82981904D01*
X237215176Y-82981904D02*
X237310414Y-83029523D01*
X237310414Y-83029523D02*
X237500890Y-83077142D01*
X237500890Y-83077142D02*
X237643747Y-83077142D01*
X237643747Y-83077142D02*
X237834223Y-83029523D01*
X237834223Y-83029523D02*
X237929461Y-82981904D01*
X237929461Y-82981904D02*
X238024700Y-82886666D01*
X238024700Y-82886666D02*
X238072319Y-82743809D01*
X238072319Y-82743809D02*
X238072319Y-82505714D01*
X237167557Y-83458095D02*
X237119938Y-83505714D01*
X237119938Y-83505714D02*
X237072319Y-83600952D01*
X237072319Y-83600952D02*
X237072319Y-83839047D01*
X237072319Y-83839047D02*
X237119938Y-83934285D01*
X237119938Y-83934285D02*
X237167557Y-83981904D01*
X237167557Y-83981904D02*
X237262795Y-84029523D01*
X237262795Y-84029523D02*
X237358033Y-84029523D01*
X237358033Y-84029523D02*
X237500890Y-83981904D01*
X237500890Y-83981904D02*
X238072319Y-83410476D01*
X238072319Y-83410476D02*
X238072319Y-84029523D01*
X237072319Y-84886666D02*
X237072319Y-84696190D01*
X237072319Y-84696190D02*
X237119938Y-84600952D01*
X237119938Y-84600952D02*
X237167557Y-84553333D01*
X237167557Y-84553333D02*
X237310414Y-84458095D01*
X237310414Y-84458095D02*
X237500890Y-84410476D01*
X237500890Y-84410476D02*
X237881842Y-84410476D01*
X237881842Y-84410476D02*
X237977080Y-84458095D01*
X237977080Y-84458095D02*
X238024700Y-84505714D01*
X238024700Y-84505714D02*
X238072319Y-84600952D01*
X238072319Y-84600952D02*
X238072319Y-84791428D01*
X238072319Y-84791428D02*
X238024700Y-84886666D01*
X238024700Y-84886666D02*
X237977080Y-84934285D01*
X237977080Y-84934285D02*
X237881842Y-84981904D01*
X237881842Y-84981904D02*
X237643747Y-84981904D01*
X237643747Y-84981904D02*
X237548509Y-84934285D01*
X237548509Y-84934285D02*
X237500890Y-84886666D01*
X237500890Y-84886666D02*
X237453271Y-84791428D01*
X237453271Y-84791428D02*
X237453271Y-84600952D01*
X237453271Y-84600952D02*
X237500890Y-84505714D01*
X237500890Y-84505714D02*
X237548509Y-84458095D01*
X237548509Y-84458095D02*
X237643747Y-84410476D01*
X237752319Y-87268095D02*
X236752319Y-87268095D01*
X237752319Y-87839523D02*
X237180890Y-87410952D01*
X236752319Y-87839523D02*
X237323747Y-87268095D01*
X95197319Y-63931905D02*
X94197319Y-63931905D01*
X94197319Y-63931905D02*
X94197319Y-64170000D01*
X94197319Y-64170000D02*
X94244938Y-64312857D01*
X94244938Y-64312857D02*
X94340176Y-64408095D01*
X94340176Y-64408095D02*
X94435414Y-64455714D01*
X94435414Y-64455714D02*
X94625890Y-64503333D01*
X94625890Y-64503333D02*
X94768747Y-64503333D01*
X94768747Y-64503333D02*
X94959223Y-64455714D01*
X94959223Y-64455714D02*
X95054461Y-64408095D01*
X95054461Y-64408095D02*
X95149700Y-64312857D01*
X95149700Y-64312857D02*
X95197319Y-64170000D01*
X95197319Y-64170000D02*
X95197319Y-63931905D01*
X94197319Y-64836667D02*
X94197319Y-65455714D01*
X94197319Y-65455714D02*
X94578271Y-65122381D01*
X94578271Y-65122381D02*
X94578271Y-65265238D01*
X94578271Y-65265238D02*
X94625890Y-65360476D01*
X94625890Y-65360476D02*
X94673509Y-65408095D01*
X94673509Y-65408095D02*
X94768747Y-65455714D01*
X94768747Y-65455714D02*
X95006842Y-65455714D01*
X95006842Y-65455714D02*
X95102080Y-65408095D01*
X95102080Y-65408095D02*
X95149700Y-65360476D01*
X95149700Y-65360476D02*
X95197319Y-65265238D01*
X95197319Y-65265238D02*
X95197319Y-64979524D01*
X95197319Y-64979524D02*
X95149700Y-64884286D01*
X95149700Y-64884286D02*
X95102080Y-64836667D01*
X94877319Y-68218095D02*
X93877319Y-68218095D01*
X94877319Y-68789523D02*
X94305890Y-68360952D01*
X93877319Y-68789523D02*
X94448747Y-68218095D01*
X152347319Y-63931905D02*
X151347319Y-63931905D01*
X151347319Y-63931905D02*
X151347319Y-64170000D01*
X151347319Y-64170000D02*
X151394938Y-64312857D01*
X151394938Y-64312857D02*
X151490176Y-64408095D01*
X151490176Y-64408095D02*
X151585414Y-64455714D01*
X151585414Y-64455714D02*
X151775890Y-64503333D01*
X151775890Y-64503333D02*
X151918747Y-64503333D01*
X151918747Y-64503333D02*
X152109223Y-64455714D01*
X152109223Y-64455714D02*
X152204461Y-64408095D01*
X152204461Y-64408095D02*
X152299700Y-64312857D01*
X152299700Y-64312857D02*
X152347319Y-64170000D01*
X152347319Y-64170000D02*
X152347319Y-63931905D01*
X151347319Y-65360476D02*
X151347319Y-65170000D01*
X151347319Y-65170000D02*
X151394938Y-65074762D01*
X151394938Y-65074762D02*
X151442557Y-65027143D01*
X151442557Y-65027143D02*
X151585414Y-64931905D01*
X151585414Y-64931905D02*
X151775890Y-64884286D01*
X151775890Y-64884286D02*
X152156842Y-64884286D01*
X152156842Y-64884286D02*
X152252080Y-64931905D01*
X152252080Y-64931905D02*
X152299700Y-64979524D01*
X152299700Y-64979524D02*
X152347319Y-65074762D01*
X152347319Y-65074762D02*
X152347319Y-65265238D01*
X152347319Y-65265238D02*
X152299700Y-65360476D01*
X152299700Y-65360476D02*
X152252080Y-65408095D01*
X152252080Y-65408095D02*
X152156842Y-65455714D01*
X152156842Y-65455714D02*
X151918747Y-65455714D01*
X151918747Y-65455714D02*
X151823509Y-65408095D01*
X151823509Y-65408095D02*
X151775890Y-65360476D01*
X151775890Y-65360476D02*
X151728271Y-65265238D01*
X151728271Y-65265238D02*
X151728271Y-65074762D01*
X151728271Y-65074762D02*
X151775890Y-64979524D01*
X151775890Y-64979524D02*
X151823509Y-64931905D01*
X151823509Y-64931905D02*
X151918747Y-64884286D01*
X152027319Y-68218095D02*
X151027319Y-68218095D01*
X152027319Y-68789523D02*
X151455890Y-68360952D01*
X151027319Y-68789523D02*
X151598747Y-68218095D01*
X214259819Y-120605714D02*
X213259819Y-120605714D01*
X213259819Y-120605714D02*
X213259819Y-120843809D01*
X213259819Y-120843809D02*
X213307438Y-120986666D01*
X213307438Y-120986666D02*
X213402676Y-121081904D01*
X213402676Y-121081904D02*
X213497914Y-121129523D01*
X213497914Y-121129523D02*
X213688390Y-121177142D01*
X213688390Y-121177142D02*
X213831247Y-121177142D01*
X213831247Y-121177142D02*
X214021723Y-121129523D01*
X214021723Y-121129523D02*
X214116961Y-121081904D01*
X214116961Y-121081904D02*
X214212200Y-120986666D01*
X214212200Y-120986666D02*
X214259819Y-120843809D01*
X214259819Y-120843809D02*
X214259819Y-120605714D01*
X213259819Y-122081904D02*
X213259819Y-121605714D01*
X213259819Y-121605714D02*
X213736009Y-121558095D01*
X213736009Y-121558095D02*
X213688390Y-121605714D01*
X213688390Y-121605714D02*
X213640771Y-121700952D01*
X213640771Y-121700952D02*
X213640771Y-121939047D01*
X213640771Y-121939047D02*
X213688390Y-122034285D01*
X213688390Y-122034285D02*
X213736009Y-122081904D01*
X213736009Y-122081904D02*
X213831247Y-122129523D01*
X213831247Y-122129523D02*
X214069342Y-122129523D01*
X214069342Y-122129523D02*
X214164580Y-122081904D01*
X214164580Y-122081904D02*
X214212200Y-122034285D01*
X214212200Y-122034285D02*
X214259819Y-121939047D01*
X214259819Y-121939047D02*
X214259819Y-121700952D01*
X214259819Y-121700952D02*
X214212200Y-121605714D01*
X214212200Y-121605714D02*
X214164580Y-121558095D01*
X213259819Y-123034285D02*
X213259819Y-122558095D01*
X213259819Y-122558095D02*
X213736009Y-122510476D01*
X213736009Y-122510476D02*
X213688390Y-122558095D01*
X213688390Y-122558095D02*
X213640771Y-122653333D01*
X213640771Y-122653333D02*
X213640771Y-122891428D01*
X213640771Y-122891428D02*
X213688390Y-122986666D01*
X213688390Y-122986666D02*
X213736009Y-123034285D01*
X213736009Y-123034285D02*
X213831247Y-123081904D01*
X213831247Y-123081904D02*
X214069342Y-123081904D01*
X214069342Y-123081904D02*
X214164580Y-123034285D01*
X214164580Y-123034285D02*
X214212200Y-122986666D01*
X214212200Y-122986666D02*
X214259819Y-122891428D01*
X214259819Y-122891428D02*
X214259819Y-122653333D01*
X214259819Y-122653333D02*
X214212200Y-122558095D01*
X214212200Y-122558095D02*
X214164580Y-122510476D01*
X213939819Y-125368095D02*
X212939819Y-125368095D01*
X213939819Y-125939523D02*
X213368390Y-125510952D01*
X212939819Y-125939523D02*
X213511247Y-125368095D01*
X223784819Y-101555714D02*
X222784819Y-101555714D01*
X222784819Y-101555714D02*
X222784819Y-101793809D01*
X222784819Y-101793809D02*
X222832438Y-101936666D01*
X222832438Y-101936666D02*
X222927676Y-102031904D01*
X222927676Y-102031904D02*
X223022914Y-102079523D01*
X223022914Y-102079523D02*
X223213390Y-102127142D01*
X223213390Y-102127142D02*
X223356247Y-102127142D01*
X223356247Y-102127142D02*
X223546723Y-102079523D01*
X223546723Y-102079523D02*
X223641961Y-102031904D01*
X223641961Y-102031904D02*
X223737200Y-101936666D01*
X223737200Y-101936666D02*
X223784819Y-101793809D01*
X223784819Y-101793809D02*
X223784819Y-101555714D01*
X223118152Y-102984285D02*
X223784819Y-102984285D01*
X222737200Y-102746190D02*
X223451485Y-102508095D01*
X223451485Y-102508095D02*
X223451485Y-103127142D01*
X223784819Y-104031904D02*
X223784819Y-103460476D01*
X223784819Y-103746190D02*
X222784819Y-103746190D01*
X222784819Y-103746190D02*
X222927676Y-103650952D01*
X222927676Y-103650952D02*
X223022914Y-103555714D01*
X223022914Y-103555714D02*
X223070533Y-103460476D01*
X223464819Y-106318095D02*
X222464819Y-106318095D01*
X223464819Y-106889523D02*
X222893390Y-106460952D01*
X222464819Y-106889523D02*
X223036247Y-106318095D01*
X109484819Y-101555714D02*
X108484819Y-101555714D01*
X108484819Y-101555714D02*
X108484819Y-101793809D01*
X108484819Y-101793809D02*
X108532438Y-101936666D01*
X108532438Y-101936666D02*
X108627676Y-102031904D01*
X108627676Y-102031904D02*
X108722914Y-102079523D01*
X108722914Y-102079523D02*
X108913390Y-102127142D01*
X108913390Y-102127142D02*
X109056247Y-102127142D01*
X109056247Y-102127142D02*
X109246723Y-102079523D01*
X109246723Y-102079523D02*
X109341961Y-102031904D01*
X109341961Y-102031904D02*
X109437200Y-101936666D01*
X109437200Y-101936666D02*
X109484819Y-101793809D01*
X109484819Y-101793809D02*
X109484819Y-101555714D01*
X108484819Y-102460476D02*
X108484819Y-103079523D01*
X108484819Y-103079523D02*
X108865771Y-102746190D01*
X108865771Y-102746190D02*
X108865771Y-102889047D01*
X108865771Y-102889047D02*
X108913390Y-102984285D01*
X108913390Y-102984285D02*
X108961009Y-103031904D01*
X108961009Y-103031904D02*
X109056247Y-103079523D01*
X109056247Y-103079523D02*
X109294342Y-103079523D01*
X109294342Y-103079523D02*
X109389580Y-103031904D01*
X109389580Y-103031904D02*
X109437200Y-102984285D01*
X109437200Y-102984285D02*
X109484819Y-102889047D01*
X109484819Y-102889047D02*
X109484819Y-102603333D01*
X109484819Y-102603333D02*
X109437200Y-102508095D01*
X109437200Y-102508095D02*
X109389580Y-102460476D01*
X108484819Y-103984285D02*
X108484819Y-103508095D01*
X108484819Y-103508095D02*
X108961009Y-103460476D01*
X108961009Y-103460476D02*
X108913390Y-103508095D01*
X108913390Y-103508095D02*
X108865771Y-103603333D01*
X108865771Y-103603333D02*
X108865771Y-103841428D01*
X108865771Y-103841428D02*
X108913390Y-103936666D01*
X108913390Y-103936666D02*
X108961009Y-103984285D01*
X108961009Y-103984285D02*
X109056247Y-104031904D01*
X109056247Y-104031904D02*
X109294342Y-104031904D01*
X109294342Y-104031904D02*
X109389580Y-103984285D01*
X109389580Y-103984285D02*
X109437200Y-103936666D01*
X109437200Y-103936666D02*
X109484819Y-103841428D01*
X109484819Y-103841428D02*
X109484819Y-103603333D01*
X109484819Y-103603333D02*
X109437200Y-103508095D01*
X109437200Y-103508095D02*
X109389580Y-103460476D01*
X109164819Y-106318095D02*
X108164819Y-106318095D01*
X109164819Y-106889523D02*
X108593390Y-106460952D01*
X108164819Y-106889523D02*
X108736247Y-106318095D01*
X280934819Y-101555714D02*
X279934819Y-101555714D01*
X279934819Y-101555714D02*
X279934819Y-101793809D01*
X279934819Y-101793809D02*
X279982438Y-101936666D01*
X279982438Y-101936666D02*
X280077676Y-102031904D01*
X280077676Y-102031904D02*
X280172914Y-102079523D01*
X280172914Y-102079523D02*
X280363390Y-102127142D01*
X280363390Y-102127142D02*
X280506247Y-102127142D01*
X280506247Y-102127142D02*
X280696723Y-102079523D01*
X280696723Y-102079523D02*
X280791961Y-102031904D01*
X280791961Y-102031904D02*
X280887200Y-101936666D01*
X280887200Y-101936666D02*
X280934819Y-101793809D01*
X280934819Y-101793809D02*
X280934819Y-101555714D01*
X280268152Y-102984285D02*
X280934819Y-102984285D01*
X279887200Y-102746190D02*
X280601485Y-102508095D01*
X280601485Y-102508095D02*
X280601485Y-103127142D01*
X280268152Y-103936666D02*
X280934819Y-103936666D01*
X279887200Y-103698571D02*
X280601485Y-103460476D01*
X280601485Y-103460476D02*
X280601485Y-104079523D01*
X280614819Y-106318095D02*
X279614819Y-106318095D01*
X280614819Y-106889523D02*
X280043390Y-106460952D01*
X279614819Y-106889523D02*
X280186247Y-106318095D01*
X233309819Y-120605714D02*
X232309819Y-120605714D01*
X232309819Y-120605714D02*
X232309819Y-120843809D01*
X232309819Y-120843809D02*
X232357438Y-120986666D01*
X232357438Y-120986666D02*
X232452676Y-121081904D01*
X232452676Y-121081904D02*
X232547914Y-121129523D01*
X232547914Y-121129523D02*
X232738390Y-121177142D01*
X232738390Y-121177142D02*
X232881247Y-121177142D01*
X232881247Y-121177142D02*
X233071723Y-121129523D01*
X233071723Y-121129523D02*
X233166961Y-121081904D01*
X233166961Y-121081904D02*
X233262200Y-120986666D01*
X233262200Y-120986666D02*
X233309819Y-120843809D01*
X233309819Y-120843809D02*
X233309819Y-120605714D01*
X232309819Y-122081904D02*
X232309819Y-121605714D01*
X232309819Y-121605714D02*
X232786009Y-121558095D01*
X232786009Y-121558095D02*
X232738390Y-121605714D01*
X232738390Y-121605714D02*
X232690771Y-121700952D01*
X232690771Y-121700952D02*
X232690771Y-121939047D01*
X232690771Y-121939047D02*
X232738390Y-122034285D01*
X232738390Y-122034285D02*
X232786009Y-122081904D01*
X232786009Y-122081904D02*
X232881247Y-122129523D01*
X232881247Y-122129523D02*
X233119342Y-122129523D01*
X233119342Y-122129523D02*
X233214580Y-122081904D01*
X233214580Y-122081904D02*
X233262200Y-122034285D01*
X233262200Y-122034285D02*
X233309819Y-121939047D01*
X233309819Y-121939047D02*
X233309819Y-121700952D01*
X233309819Y-121700952D02*
X233262200Y-121605714D01*
X233262200Y-121605714D02*
X233214580Y-121558095D01*
X232309819Y-122986666D02*
X232309819Y-122796190D01*
X232309819Y-122796190D02*
X232357438Y-122700952D01*
X232357438Y-122700952D02*
X232405057Y-122653333D01*
X232405057Y-122653333D02*
X232547914Y-122558095D01*
X232547914Y-122558095D02*
X232738390Y-122510476D01*
X232738390Y-122510476D02*
X233119342Y-122510476D01*
X233119342Y-122510476D02*
X233214580Y-122558095D01*
X233214580Y-122558095D02*
X233262200Y-122605714D01*
X233262200Y-122605714D02*
X233309819Y-122700952D01*
X233309819Y-122700952D02*
X233309819Y-122891428D01*
X233309819Y-122891428D02*
X233262200Y-122986666D01*
X233262200Y-122986666D02*
X233214580Y-123034285D01*
X233214580Y-123034285D02*
X233119342Y-123081904D01*
X233119342Y-123081904D02*
X232881247Y-123081904D01*
X232881247Y-123081904D02*
X232786009Y-123034285D01*
X232786009Y-123034285D02*
X232738390Y-122986666D01*
X232738390Y-122986666D02*
X232690771Y-122891428D01*
X232690771Y-122891428D02*
X232690771Y-122700952D01*
X232690771Y-122700952D02*
X232738390Y-122605714D01*
X232738390Y-122605714D02*
X232786009Y-122558095D01*
X232786009Y-122558095D02*
X232881247Y-122510476D01*
X232989819Y-125368095D02*
X231989819Y-125368095D01*
X232989819Y-125939523D02*
X232418390Y-125510952D01*
X231989819Y-125939523D02*
X232561247Y-125368095D01*
X195209819Y-120605714D02*
X194209819Y-120605714D01*
X194209819Y-120605714D02*
X194209819Y-120843809D01*
X194209819Y-120843809D02*
X194257438Y-120986666D01*
X194257438Y-120986666D02*
X194352676Y-121081904D01*
X194352676Y-121081904D02*
X194447914Y-121129523D01*
X194447914Y-121129523D02*
X194638390Y-121177142D01*
X194638390Y-121177142D02*
X194781247Y-121177142D01*
X194781247Y-121177142D02*
X194971723Y-121129523D01*
X194971723Y-121129523D02*
X195066961Y-121081904D01*
X195066961Y-121081904D02*
X195162200Y-120986666D01*
X195162200Y-120986666D02*
X195209819Y-120843809D01*
X195209819Y-120843809D02*
X195209819Y-120605714D01*
X194209819Y-122081904D02*
X194209819Y-121605714D01*
X194209819Y-121605714D02*
X194686009Y-121558095D01*
X194686009Y-121558095D02*
X194638390Y-121605714D01*
X194638390Y-121605714D02*
X194590771Y-121700952D01*
X194590771Y-121700952D02*
X194590771Y-121939047D01*
X194590771Y-121939047D02*
X194638390Y-122034285D01*
X194638390Y-122034285D02*
X194686009Y-122081904D01*
X194686009Y-122081904D02*
X194781247Y-122129523D01*
X194781247Y-122129523D02*
X195019342Y-122129523D01*
X195019342Y-122129523D02*
X195114580Y-122081904D01*
X195114580Y-122081904D02*
X195162200Y-122034285D01*
X195162200Y-122034285D02*
X195209819Y-121939047D01*
X195209819Y-121939047D02*
X195209819Y-121700952D01*
X195209819Y-121700952D02*
X195162200Y-121605714D01*
X195162200Y-121605714D02*
X195114580Y-121558095D01*
X194543152Y-122986666D02*
X195209819Y-122986666D01*
X194162200Y-122748571D02*
X194876485Y-122510476D01*
X194876485Y-122510476D02*
X194876485Y-123129523D01*
X194889819Y-125368095D02*
X193889819Y-125368095D01*
X194889819Y-125939523D02*
X194318390Y-125510952D01*
X193889819Y-125939523D02*
X194461247Y-125368095D01*
X161872319Y-82505714D02*
X160872319Y-82505714D01*
X160872319Y-82505714D02*
X160872319Y-82743809D01*
X160872319Y-82743809D02*
X160919938Y-82886666D01*
X160919938Y-82886666D02*
X161015176Y-82981904D01*
X161015176Y-82981904D02*
X161110414Y-83029523D01*
X161110414Y-83029523D02*
X161300890Y-83077142D01*
X161300890Y-83077142D02*
X161443747Y-83077142D01*
X161443747Y-83077142D02*
X161634223Y-83029523D01*
X161634223Y-83029523D02*
X161729461Y-82981904D01*
X161729461Y-82981904D02*
X161824700Y-82886666D01*
X161824700Y-82886666D02*
X161872319Y-82743809D01*
X161872319Y-82743809D02*
X161872319Y-82505714D01*
X160967557Y-83458095D02*
X160919938Y-83505714D01*
X160919938Y-83505714D02*
X160872319Y-83600952D01*
X160872319Y-83600952D02*
X160872319Y-83839047D01*
X160872319Y-83839047D02*
X160919938Y-83934285D01*
X160919938Y-83934285D02*
X160967557Y-83981904D01*
X160967557Y-83981904D02*
X161062795Y-84029523D01*
X161062795Y-84029523D02*
X161158033Y-84029523D01*
X161158033Y-84029523D02*
X161300890Y-83981904D01*
X161300890Y-83981904D02*
X161872319Y-83410476D01*
X161872319Y-83410476D02*
X161872319Y-84029523D01*
X160967557Y-84410476D02*
X160919938Y-84458095D01*
X160919938Y-84458095D02*
X160872319Y-84553333D01*
X160872319Y-84553333D02*
X160872319Y-84791428D01*
X160872319Y-84791428D02*
X160919938Y-84886666D01*
X160919938Y-84886666D02*
X160967557Y-84934285D01*
X160967557Y-84934285D02*
X161062795Y-84981904D01*
X161062795Y-84981904D02*
X161158033Y-84981904D01*
X161158033Y-84981904D02*
X161300890Y-84934285D01*
X161300890Y-84934285D02*
X161872319Y-84362857D01*
X161872319Y-84362857D02*
X161872319Y-84981904D01*
X161552319Y-87268095D02*
X160552319Y-87268095D01*
X161552319Y-87839523D02*
X160980890Y-87410952D01*
X160552319Y-87839523D02*
X161123747Y-87268095D01*
X342847319Y-139655714D02*
X341847319Y-139655714D01*
X341847319Y-139655714D02*
X341847319Y-139893809D01*
X341847319Y-139893809D02*
X341894938Y-140036666D01*
X341894938Y-140036666D02*
X341990176Y-140131904D01*
X341990176Y-140131904D02*
X342085414Y-140179523D01*
X342085414Y-140179523D02*
X342275890Y-140227142D01*
X342275890Y-140227142D02*
X342418747Y-140227142D01*
X342418747Y-140227142D02*
X342609223Y-140179523D01*
X342609223Y-140179523D02*
X342704461Y-140131904D01*
X342704461Y-140131904D02*
X342799700Y-140036666D01*
X342799700Y-140036666D02*
X342847319Y-139893809D01*
X342847319Y-139893809D02*
X342847319Y-139655714D01*
X341847319Y-140560476D02*
X341847319Y-141227142D01*
X341847319Y-141227142D02*
X342847319Y-140798571D01*
X341942557Y-141560476D02*
X341894938Y-141608095D01*
X341894938Y-141608095D02*
X341847319Y-141703333D01*
X341847319Y-141703333D02*
X341847319Y-141941428D01*
X341847319Y-141941428D02*
X341894938Y-142036666D01*
X341894938Y-142036666D02*
X341942557Y-142084285D01*
X341942557Y-142084285D02*
X342037795Y-142131904D01*
X342037795Y-142131904D02*
X342133033Y-142131904D01*
X342133033Y-142131904D02*
X342275890Y-142084285D01*
X342275890Y-142084285D02*
X342847319Y-141512857D01*
X342847319Y-141512857D02*
X342847319Y-142131904D01*
X342527319Y-144418095D02*
X341527319Y-144418095D01*
X342527319Y-144989523D02*
X341955890Y-144560952D01*
X341527319Y-144989523D02*
X342098747Y-144418095D01*
X76147319Y-63931905D02*
X75147319Y-63931905D01*
X75147319Y-63931905D02*
X75147319Y-64170000D01*
X75147319Y-64170000D02*
X75194938Y-64312857D01*
X75194938Y-64312857D02*
X75290176Y-64408095D01*
X75290176Y-64408095D02*
X75385414Y-64455714D01*
X75385414Y-64455714D02*
X75575890Y-64503333D01*
X75575890Y-64503333D02*
X75718747Y-64503333D01*
X75718747Y-64503333D02*
X75909223Y-64455714D01*
X75909223Y-64455714D02*
X76004461Y-64408095D01*
X76004461Y-64408095D02*
X76099700Y-64312857D01*
X76099700Y-64312857D02*
X76147319Y-64170000D01*
X76147319Y-64170000D02*
X76147319Y-63931905D01*
X75242557Y-64884286D02*
X75194938Y-64931905D01*
X75194938Y-64931905D02*
X75147319Y-65027143D01*
X75147319Y-65027143D02*
X75147319Y-65265238D01*
X75147319Y-65265238D02*
X75194938Y-65360476D01*
X75194938Y-65360476D02*
X75242557Y-65408095D01*
X75242557Y-65408095D02*
X75337795Y-65455714D01*
X75337795Y-65455714D02*
X75433033Y-65455714D01*
X75433033Y-65455714D02*
X75575890Y-65408095D01*
X75575890Y-65408095D02*
X76147319Y-64836667D01*
X76147319Y-64836667D02*
X76147319Y-65455714D01*
X75827319Y-68218095D02*
X74827319Y-68218095D01*
X75827319Y-68789523D02*
X75255890Y-68360952D01*
X74827319Y-68789523D02*
X75398747Y-68218095D01*
X361897319Y-101555714D02*
X360897319Y-101555714D01*
X360897319Y-101555714D02*
X360897319Y-101793809D01*
X360897319Y-101793809D02*
X360944938Y-101936666D01*
X360944938Y-101936666D02*
X361040176Y-102031904D01*
X361040176Y-102031904D02*
X361135414Y-102079523D01*
X361135414Y-102079523D02*
X361325890Y-102127142D01*
X361325890Y-102127142D02*
X361468747Y-102127142D01*
X361468747Y-102127142D02*
X361659223Y-102079523D01*
X361659223Y-102079523D02*
X361754461Y-102031904D01*
X361754461Y-102031904D02*
X361849700Y-101936666D01*
X361849700Y-101936666D02*
X361897319Y-101793809D01*
X361897319Y-101793809D02*
X361897319Y-101555714D01*
X361230652Y-102984285D02*
X361897319Y-102984285D01*
X360849700Y-102746190D02*
X361563985Y-102508095D01*
X361563985Y-102508095D02*
X361563985Y-103127142D01*
X360897319Y-103412857D02*
X360897319Y-104079523D01*
X360897319Y-104079523D02*
X361897319Y-103650952D01*
X361577319Y-106318095D02*
X360577319Y-106318095D01*
X361577319Y-106889523D02*
X361005890Y-106460952D01*
X360577319Y-106889523D02*
X361148747Y-106318095D01*
X333322319Y-63455714D02*
X332322319Y-63455714D01*
X332322319Y-63455714D02*
X332322319Y-63693809D01*
X332322319Y-63693809D02*
X332369938Y-63836666D01*
X332369938Y-63836666D02*
X332465176Y-63931904D01*
X332465176Y-63931904D02*
X332560414Y-63979523D01*
X332560414Y-63979523D02*
X332750890Y-64027142D01*
X332750890Y-64027142D02*
X332893747Y-64027142D01*
X332893747Y-64027142D02*
X333084223Y-63979523D01*
X333084223Y-63979523D02*
X333179461Y-63931904D01*
X333179461Y-63931904D02*
X333274700Y-63836666D01*
X333274700Y-63836666D02*
X333322319Y-63693809D01*
X333322319Y-63693809D02*
X333322319Y-63455714D01*
X333322319Y-64979523D02*
X333322319Y-64408095D01*
X333322319Y-64693809D02*
X332322319Y-64693809D01*
X332322319Y-64693809D02*
X332465176Y-64598571D01*
X332465176Y-64598571D02*
X332560414Y-64503333D01*
X332560414Y-64503333D02*
X332608033Y-64408095D01*
X332322319Y-65884285D02*
X332322319Y-65408095D01*
X332322319Y-65408095D02*
X332798509Y-65360476D01*
X332798509Y-65360476D02*
X332750890Y-65408095D01*
X332750890Y-65408095D02*
X332703271Y-65503333D01*
X332703271Y-65503333D02*
X332703271Y-65741428D01*
X332703271Y-65741428D02*
X332750890Y-65836666D01*
X332750890Y-65836666D02*
X332798509Y-65884285D01*
X332798509Y-65884285D02*
X332893747Y-65931904D01*
X332893747Y-65931904D02*
X333131842Y-65931904D01*
X333131842Y-65931904D02*
X333227080Y-65884285D01*
X333227080Y-65884285D02*
X333274700Y-65836666D01*
X333274700Y-65836666D02*
X333322319Y-65741428D01*
X333322319Y-65741428D02*
X333322319Y-65503333D01*
X333322319Y-65503333D02*
X333274700Y-65408095D01*
X333274700Y-65408095D02*
X333227080Y-65360476D01*
X333002319Y-68218095D02*
X332002319Y-68218095D01*
X333002319Y-68789523D02*
X332430890Y-68360952D01*
X332002319Y-68789523D02*
X332573747Y-68218095D01*
X316653569Y-120605714D02*
X315653569Y-120605714D01*
X315653569Y-120605714D02*
X315653569Y-120843809D01*
X315653569Y-120843809D02*
X315701188Y-120986666D01*
X315701188Y-120986666D02*
X315796426Y-121081904D01*
X315796426Y-121081904D02*
X315891664Y-121129523D01*
X315891664Y-121129523D02*
X316082140Y-121177142D01*
X316082140Y-121177142D02*
X316224997Y-121177142D01*
X316224997Y-121177142D02*
X316415473Y-121129523D01*
X316415473Y-121129523D02*
X316510711Y-121081904D01*
X316510711Y-121081904D02*
X316605950Y-120986666D01*
X316605950Y-120986666D02*
X316653569Y-120843809D01*
X316653569Y-120843809D02*
X316653569Y-120605714D01*
X315653569Y-122034285D02*
X315653569Y-121843809D01*
X315653569Y-121843809D02*
X315701188Y-121748571D01*
X315701188Y-121748571D02*
X315748807Y-121700952D01*
X315748807Y-121700952D02*
X315891664Y-121605714D01*
X315891664Y-121605714D02*
X316082140Y-121558095D01*
X316082140Y-121558095D02*
X316463092Y-121558095D01*
X316463092Y-121558095D02*
X316558330Y-121605714D01*
X316558330Y-121605714D02*
X316605950Y-121653333D01*
X316605950Y-121653333D02*
X316653569Y-121748571D01*
X316653569Y-121748571D02*
X316653569Y-121939047D01*
X316653569Y-121939047D02*
X316605950Y-122034285D01*
X316605950Y-122034285D02*
X316558330Y-122081904D01*
X316558330Y-122081904D02*
X316463092Y-122129523D01*
X316463092Y-122129523D02*
X316224997Y-122129523D01*
X316224997Y-122129523D02*
X316129759Y-122081904D01*
X316129759Y-122081904D02*
X316082140Y-122034285D01*
X316082140Y-122034285D02*
X316034521Y-121939047D01*
X316034521Y-121939047D02*
X316034521Y-121748571D01*
X316034521Y-121748571D02*
X316082140Y-121653333D01*
X316082140Y-121653333D02*
X316129759Y-121605714D01*
X316129759Y-121605714D02*
X316224997Y-121558095D01*
X315653569Y-122748571D02*
X315653569Y-122843809D01*
X315653569Y-122843809D02*
X315701188Y-122939047D01*
X315701188Y-122939047D02*
X315748807Y-122986666D01*
X315748807Y-122986666D02*
X315844045Y-123034285D01*
X315844045Y-123034285D02*
X316034521Y-123081904D01*
X316034521Y-123081904D02*
X316272616Y-123081904D01*
X316272616Y-123081904D02*
X316463092Y-123034285D01*
X316463092Y-123034285D02*
X316558330Y-122986666D01*
X316558330Y-122986666D02*
X316605950Y-122939047D01*
X316605950Y-122939047D02*
X316653569Y-122843809D01*
X316653569Y-122843809D02*
X316653569Y-122748571D01*
X316653569Y-122748571D02*
X316605950Y-122653333D01*
X316605950Y-122653333D02*
X316558330Y-122605714D01*
X316558330Y-122605714D02*
X316463092Y-122558095D01*
X316463092Y-122558095D02*
X316272616Y-122510476D01*
X316272616Y-122510476D02*
X316034521Y-122510476D01*
X316034521Y-122510476D02*
X315844045Y-122558095D01*
X315844045Y-122558095D02*
X315748807Y-122605714D01*
X315748807Y-122605714D02*
X315701188Y-122653333D01*
X315701188Y-122653333D02*
X315653569Y-122748571D01*
X316333569Y-125368095D02*
X315333569Y-125368095D01*
X316333569Y-125939523D02*
X315762140Y-125510952D01*
X315333569Y-125939523D02*
X315904997Y-125368095D01*
X52334819Y-63931905D02*
X51334819Y-63931905D01*
X51334819Y-63931905D02*
X51334819Y-64170000D01*
X51334819Y-64170000D02*
X51382438Y-64312857D01*
X51382438Y-64312857D02*
X51477676Y-64408095D01*
X51477676Y-64408095D02*
X51572914Y-64455714D01*
X51572914Y-64455714D02*
X51763390Y-64503333D01*
X51763390Y-64503333D02*
X51906247Y-64503333D01*
X51906247Y-64503333D02*
X52096723Y-64455714D01*
X52096723Y-64455714D02*
X52191961Y-64408095D01*
X52191961Y-64408095D02*
X52287200Y-64312857D01*
X52287200Y-64312857D02*
X52334819Y-64170000D01*
X52334819Y-64170000D02*
X52334819Y-63931905D01*
X52334819Y-65455714D02*
X52334819Y-64884286D01*
X52334819Y-65170000D02*
X51334819Y-65170000D01*
X51334819Y-65170000D02*
X51477676Y-65074762D01*
X51477676Y-65074762D02*
X51572914Y-64979524D01*
X51572914Y-64979524D02*
X51620533Y-64884286D01*
X52014819Y-68218095D02*
X51014819Y-68218095D01*
X52014819Y-68789523D02*
X51443390Y-68360952D01*
X51014819Y-68789523D02*
X51586247Y-68218095D01*
X361897319Y-63455714D02*
X360897319Y-63455714D01*
X360897319Y-63455714D02*
X360897319Y-63693809D01*
X360897319Y-63693809D02*
X360944938Y-63836666D01*
X360944938Y-63836666D02*
X361040176Y-63931904D01*
X361040176Y-63931904D02*
X361135414Y-63979523D01*
X361135414Y-63979523D02*
X361325890Y-64027142D01*
X361325890Y-64027142D02*
X361468747Y-64027142D01*
X361468747Y-64027142D02*
X361659223Y-63979523D01*
X361659223Y-63979523D02*
X361754461Y-63931904D01*
X361754461Y-63931904D02*
X361849700Y-63836666D01*
X361849700Y-63836666D02*
X361897319Y-63693809D01*
X361897319Y-63693809D02*
X361897319Y-63455714D01*
X361897319Y-64979523D02*
X361897319Y-64408095D01*
X361897319Y-64693809D02*
X360897319Y-64693809D01*
X360897319Y-64693809D02*
X361040176Y-64598571D01*
X361040176Y-64598571D02*
X361135414Y-64503333D01*
X361135414Y-64503333D02*
X361183033Y-64408095D01*
X360897319Y-65836666D02*
X360897319Y-65646190D01*
X360897319Y-65646190D02*
X360944938Y-65550952D01*
X360944938Y-65550952D02*
X360992557Y-65503333D01*
X360992557Y-65503333D02*
X361135414Y-65408095D01*
X361135414Y-65408095D02*
X361325890Y-65360476D01*
X361325890Y-65360476D02*
X361706842Y-65360476D01*
X361706842Y-65360476D02*
X361802080Y-65408095D01*
X361802080Y-65408095D02*
X361849700Y-65455714D01*
X361849700Y-65455714D02*
X361897319Y-65550952D01*
X361897319Y-65550952D02*
X361897319Y-65741428D01*
X361897319Y-65741428D02*
X361849700Y-65836666D01*
X361849700Y-65836666D02*
X361802080Y-65884285D01*
X361802080Y-65884285D02*
X361706842Y-65931904D01*
X361706842Y-65931904D02*
X361468747Y-65931904D01*
X361468747Y-65931904D02*
X361373509Y-65884285D01*
X361373509Y-65884285D02*
X361325890Y-65836666D01*
X361325890Y-65836666D02*
X361278271Y-65741428D01*
X361278271Y-65741428D02*
X361278271Y-65550952D01*
X361278271Y-65550952D02*
X361325890Y-65455714D01*
X361325890Y-65455714D02*
X361373509Y-65408095D01*
X361373509Y-65408095D02*
X361468747Y-65360476D01*
X361577319Y-68218095D02*
X360577319Y-68218095D01*
X361577319Y-68789523D02*
X361005890Y-68360952D01*
X360577319Y-68789523D02*
X361148747Y-68218095D01*
X157109819Y-120605714D02*
X156109819Y-120605714D01*
X156109819Y-120605714D02*
X156109819Y-120843809D01*
X156109819Y-120843809D02*
X156157438Y-120986666D01*
X156157438Y-120986666D02*
X156252676Y-121081904D01*
X156252676Y-121081904D02*
X156347914Y-121129523D01*
X156347914Y-121129523D02*
X156538390Y-121177142D01*
X156538390Y-121177142D02*
X156681247Y-121177142D01*
X156681247Y-121177142D02*
X156871723Y-121129523D01*
X156871723Y-121129523D02*
X156966961Y-121081904D01*
X156966961Y-121081904D02*
X157062200Y-120986666D01*
X157062200Y-120986666D02*
X157109819Y-120843809D01*
X157109819Y-120843809D02*
X157109819Y-120605714D01*
X156109819Y-122081904D02*
X156109819Y-121605714D01*
X156109819Y-121605714D02*
X156586009Y-121558095D01*
X156586009Y-121558095D02*
X156538390Y-121605714D01*
X156538390Y-121605714D02*
X156490771Y-121700952D01*
X156490771Y-121700952D02*
X156490771Y-121939047D01*
X156490771Y-121939047D02*
X156538390Y-122034285D01*
X156538390Y-122034285D02*
X156586009Y-122081904D01*
X156586009Y-122081904D02*
X156681247Y-122129523D01*
X156681247Y-122129523D02*
X156919342Y-122129523D01*
X156919342Y-122129523D02*
X157014580Y-122081904D01*
X157014580Y-122081904D02*
X157062200Y-122034285D01*
X157062200Y-122034285D02*
X157109819Y-121939047D01*
X157109819Y-121939047D02*
X157109819Y-121700952D01*
X157109819Y-121700952D02*
X157062200Y-121605714D01*
X157062200Y-121605714D02*
X157014580Y-121558095D01*
X156205057Y-122510476D02*
X156157438Y-122558095D01*
X156157438Y-122558095D02*
X156109819Y-122653333D01*
X156109819Y-122653333D02*
X156109819Y-122891428D01*
X156109819Y-122891428D02*
X156157438Y-122986666D01*
X156157438Y-122986666D02*
X156205057Y-123034285D01*
X156205057Y-123034285D02*
X156300295Y-123081904D01*
X156300295Y-123081904D02*
X156395533Y-123081904D01*
X156395533Y-123081904D02*
X156538390Y-123034285D01*
X156538390Y-123034285D02*
X157109819Y-122462857D01*
X157109819Y-122462857D02*
X157109819Y-123081904D01*
X156789819Y-125368095D02*
X155789819Y-125368095D01*
X156789819Y-125939523D02*
X156218390Y-125510952D01*
X155789819Y-125939523D02*
X156361247Y-125368095D01*
X190447319Y-63931905D02*
X189447319Y-63931905D01*
X189447319Y-63931905D02*
X189447319Y-64170000D01*
X189447319Y-64170000D02*
X189494938Y-64312857D01*
X189494938Y-64312857D02*
X189590176Y-64408095D01*
X189590176Y-64408095D02*
X189685414Y-64455714D01*
X189685414Y-64455714D02*
X189875890Y-64503333D01*
X189875890Y-64503333D02*
X190018747Y-64503333D01*
X190018747Y-64503333D02*
X190209223Y-64455714D01*
X190209223Y-64455714D02*
X190304461Y-64408095D01*
X190304461Y-64408095D02*
X190399700Y-64312857D01*
X190399700Y-64312857D02*
X190447319Y-64170000D01*
X190447319Y-64170000D02*
X190447319Y-63931905D01*
X189875890Y-65074762D02*
X189828271Y-64979524D01*
X189828271Y-64979524D02*
X189780652Y-64931905D01*
X189780652Y-64931905D02*
X189685414Y-64884286D01*
X189685414Y-64884286D02*
X189637795Y-64884286D01*
X189637795Y-64884286D02*
X189542557Y-64931905D01*
X189542557Y-64931905D02*
X189494938Y-64979524D01*
X189494938Y-64979524D02*
X189447319Y-65074762D01*
X189447319Y-65074762D02*
X189447319Y-65265238D01*
X189447319Y-65265238D02*
X189494938Y-65360476D01*
X189494938Y-65360476D02*
X189542557Y-65408095D01*
X189542557Y-65408095D02*
X189637795Y-65455714D01*
X189637795Y-65455714D02*
X189685414Y-65455714D01*
X189685414Y-65455714D02*
X189780652Y-65408095D01*
X189780652Y-65408095D02*
X189828271Y-65360476D01*
X189828271Y-65360476D02*
X189875890Y-65265238D01*
X189875890Y-65265238D02*
X189875890Y-65074762D01*
X189875890Y-65074762D02*
X189923509Y-64979524D01*
X189923509Y-64979524D02*
X189971128Y-64931905D01*
X189971128Y-64931905D02*
X190066366Y-64884286D01*
X190066366Y-64884286D02*
X190256842Y-64884286D01*
X190256842Y-64884286D02*
X190352080Y-64931905D01*
X190352080Y-64931905D02*
X190399700Y-64979524D01*
X190399700Y-64979524D02*
X190447319Y-65074762D01*
X190447319Y-65074762D02*
X190447319Y-65265238D01*
X190447319Y-65265238D02*
X190399700Y-65360476D01*
X190399700Y-65360476D02*
X190352080Y-65408095D01*
X190352080Y-65408095D02*
X190256842Y-65455714D01*
X190256842Y-65455714D02*
X190066366Y-65455714D01*
X190066366Y-65455714D02*
X189971128Y-65408095D01*
X189971128Y-65408095D02*
X189923509Y-65360476D01*
X189923509Y-65360476D02*
X189875890Y-65265238D01*
X190127319Y-68218095D02*
X189127319Y-68218095D01*
X190127319Y-68789523D02*
X189555890Y-68360952D01*
X189127319Y-68789523D02*
X189698747Y-68218095D01*
X80909819Y-82505714D02*
X79909819Y-82505714D01*
X79909819Y-82505714D02*
X79909819Y-82743809D01*
X79909819Y-82743809D02*
X79957438Y-82886666D01*
X79957438Y-82886666D02*
X80052676Y-82981904D01*
X80052676Y-82981904D02*
X80147914Y-83029523D01*
X80147914Y-83029523D02*
X80338390Y-83077142D01*
X80338390Y-83077142D02*
X80481247Y-83077142D01*
X80481247Y-83077142D02*
X80671723Y-83029523D01*
X80671723Y-83029523D02*
X80766961Y-82981904D01*
X80766961Y-82981904D02*
X80862200Y-82886666D01*
X80862200Y-82886666D02*
X80909819Y-82743809D01*
X80909819Y-82743809D02*
X80909819Y-82505714D01*
X80909819Y-84029523D02*
X80909819Y-83458095D01*
X80909819Y-83743809D02*
X79909819Y-83743809D01*
X79909819Y-83743809D02*
X80052676Y-83648571D01*
X80052676Y-83648571D02*
X80147914Y-83553333D01*
X80147914Y-83553333D02*
X80195533Y-83458095D01*
X80338390Y-84600952D02*
X80290771Y-84505714D01*
X80290771Y-84505714D02*
X80243152Y-84458095D01*
X80243152Y-84458095D02*
X80147914Y-84410476D01*
X80147914Y-84410476D02*
X80100295Y-84410476D01*
X80100295Y-84410476D02*
X80005057Y-84458095D01*
X80005057Y-84458095D02*
X79957438Y-84505714D01*
X79957438Y-84505714D02*
X79909819Y-84600952D01*
X79909819Y-84600952D02*
X79909819Y-84791428D01*
X79909819Y-84791428D02*
X79957438Y-84886666D01*
X79957438Y-84886666D02*
X80005057Y-84934285D01*
X80005057Y-84934285D02*
X80100295Y-84981904D01*
X80100295Y-84981904D02*
X80147914Y-84981904D01*
X80147914Y-84981904D02*
X80243152Y-84934285D01*
X80243152Y-84934285D02*
X80290771Y-84886666D01*
X80290771Y-84886666D02*
X80338390Y-84791428D01*
X80338390Y-84791428D02*
X80338390Y-84600952D01*
X80338390Y-84600952D02*
X80386009Y-84505714D01*
X80386009Y-84505714D02*
X80433628Y-84458095D01*
X80433628Y-84458095D02*
X80528866Y-84410476D01*
X80528866Y-84410476D02*
X80719342Y-84410476D01*
X80719342Y-84410476D02*
X80814580Y-84458095D01*
X80814580Y-84458095D02*
X80862200Y-84505714D01*
X80862200Y-84505714D02*
X80909819Y-84600952D01*
X80909819Y-84600952D02*
X80909819Y-84791428D01*
X80909819Y-84791428D02*
X80862200Y-84886666D01*
X80862200Y-84886666D02*
X80814580Y-84934285D01*
X80814580Y-84934285D02*
X80719342Y-84981904D01*
X80719342Y-84981904D02*
X80528866Y-84981904D01*
X80528866Y-84981904D02*
X80433628Y-84934285D01*
X80433628Y-84934285D02*
X80386009Y-84886666D01*
X80386009Y-84886666D02*
X80338390Y-84791428D01*
X80589819Y-87268095D02*
X79589819Y-87268095D01*
X80589819Y-87839523D02*
X80018390Y-87410952D01*
X79589819Y-87839523D02*
X80161247Y-87268095D01*
X83291069Y-101555714D02*
X82291069Y-101555714D01*
X82291069Y-101555714D02*
X82291069Y-101793809D01*
X82291069Y-101793809D02*
X82338688Y-101936666D01*
X82338688Y-101936666D02*
X82433926Y-102031904D01*
X82433926Y-102031904D02*
X82529164Y-102079523D01*
X82529164Y-102079523D02*
X82719640Y-102127142D01*
X82719640Y-102127142D02*
X82862497Y-102127142D01*
X82862497Y-102127142D02*
X83052973Y-102079523D01*
X83052973Y-102079523D02*
X83148211Y-102031904D01*
X83148211Y-102031904D02*
X83243450Y-101936666D01*
X83243450Y-101936666D02*
X83291069Y-101793809D01*
X83291069Y-101793809D02*
X83291069Y-101555714D01*
X82291069Y-102460476D02*
X82291069Y-103079523D01*
X82291069Y-103079523D02*
X82672021Y-102746190D01*
X82672021Y-102746190D02*
X82672021Y-102889047D01*
X82672021Y-102889047D02*
X82719640Y-102984285D01*
X82719640Y-102984285D02*
X82767259Y-103031904D01*
X82767259Y-103031904D02*
X82862497Y-103079523D01*
X82862497Y-103079523D02*
X83100592Y-103079523D01*
X83100592Y-103079523D02*
X83195830Y-103031904D01*
X83195830Y-103031904D02*
X83243450Y-102984285D01*
X83243450Y-102984285D02*
X83291069Y-102889047D01*
X83291069Y-102889047D02*
X83291069Y-102603333D01*
X83291069Y-102603333D02*
X83243450Y-102508095D01*
X83243450Y-102508095D02*
X83195830Y-102460476D01*
X82624402Y-103936666D02*
X83291069Y-103936666D01*
X82243450Y-103698571D02*
X82957735Y-103460476D01*
X82957735Y-103460476D02*
X82957735Y-104079523D01*
X82971069Y-106318095D02*
X81971069Y-106318095D01*
X82971069Y-106889523D02*
X82399640Y-106460952D01*
X81971069Y-106889523D02*
X82542497Y-106318095D01*
X185684819Y-101555714D02*
X184684819Y-101555714D01*
X184684819Y-101555714D02*
X184684819Y-101793809D01*
X184684819Y-101793809D02*
X184732438Y-101936666D01*
X184732438Y-101936666D02*
X184827676Y-102031904D01*
X184827676Y-102031904D02*
X184922914Y-102079523D01*
X184922914Y-102079523D02*
X185113390Y-102127142D01*
X185113390Y-102127142D02*
X185256247Y-102127142D01*
X185256247Y-102127142D02*
X185446723Y-102079523D01*
X185446723Y-102079523D02*
X185541961Y-102031904D01*
X185541961Y-102031904D02*
X185637200Y-101936666D01*
X185637200Y-101936666D02*
X185684819Y-101793809D01*
X185684819Y-101793809D02*
X185684819Y-101555714D01*
X184684819Y-102460476D02*
X184684819Y-103079523D01*
X184684819Y-103079523D02*
X185065771Y-102746190D01*
X185065771Y-102746190D02*
X185065771Y-102889047D01*
X185065771Y-102889047D02*
X185113390Y-102984285D01*
X185113390Y-102984285D02*
X185161009Y-103031904D01*
X185161009Y-103031904D02*
X185256247Y-103079523D01*
X185256247Y-103079523D02*
X185494342Y-103079523D01*
X185494342Y-103079523D02*
X185589580Y-103031904D01*
X185589580Y-103031904D02*
X185637200Y-102984285D01*
X185637200Y-102984285D02*
X185684819Y-102889047D01*
X185684819Y-102889047D02*
X185684819Y-102603333D01*
X185684819Y-102603333D02*
X185637200Y-102508095D01*
X185637200Y-102508095D02*
X185589580Y-102460476D01*
X185684819Y-103555714D02*
X185684819Y-103746190D01*
X185684819Y-103746190D02*
X185637200Y-103841428D01*
X185637200Y-103841428D02*
X185589580Y-103889047D01*
X185589580Y-103889047D02*
X185446723Y-103984285D01*
X185446723Y-103984285D02*
X185256247Y-104031904D01*
X185256247Y-104031904D02*
X184875295Y-104031904D01*
X184875295Y-104031904D02*
X184780057Y-103984285D01*
X184780057Y-103984285D02*
X184732438Y-103936666D01*
X184732438Y-103936666D02*
X184684819Y-103841428D01*
X184684819Y-103841428D02*
X184684819Y-103650952D01*
X184684819Y-103650952D02*
X184732438Y-103555714D01*
X184732438Y-103555714D02*
X184780057Y-103508095D01*
X184780057Y-103508095D02*
X184875295Y-103460476D01*
X184875295Y-103460476D02*
X185113390Y-103460476D01*
X185113390Y-103460476D02*
X185208628Y-103508095D01*
X185208628Y-103508095D02*
X185256247Y-103555714D01*
X185256247Y-103555714D02*
X185303866Y-103650952D01*
X185303866Y-103650952D02*
X185303866Y-103841428D01*
X185303866Y-103841428D02*
X185256247Y-103936666D01*
X185256247Y-103936666D02*
X185208628Y-103984285D01*
X185208628Y-103984285D02*
X185113390Y-104031904D01*
X185364819Y-106318095D02*
X184364819Y-106318095D01*
X185364819Y-106889523D02*
X184793390Y-106460952D01*
X184364819Y-106889523D02*
X184936247Y-106318095D01*
X147584819Y-101555714D02*
X146584819Y-101555714D01*
X146584819Y-101555714D02*
X146584819Y-101793809D01*
X146584819Y-101793809D02*
X146632438Y-101936666D01*
X146632438Y-101936666D02*
X146727676Y-102031904D01*
X146727676Y-102031904D02*
X146822914Y-102079523D01*
X146822914Y-102079523D02*
X147013390Y-102127142D01*
X147013390Y-102127142D02*
X147156247Y-102127142D01*
X147156247Y-102127142D02*
X147346723Y-102079523D01*
X147346723Y-102079523D02*
X147441961Y-102031904D01*
X147441961Y-102031904D02*
X147537200Y-101936666D01*
X147537200Y-101936666D02*
X147584819Y-101793809D01*
X147584819Y-101793809D02*
X147584819Y-101555714D01*
X146584819Y-102460476D02*
X146584819Y-103079523D01*
X146584819Y-103079523D02*
X146965771Y-102746190D01*
X146965771Y-102746190D02*
X146965771Y-102889047D01*
X146965771Y-102889047D02*
X147013390Y-102984285D01*
X147013390Y-102984285D02*
X147061009Y-103031904D01*
X147061009Y-103031904D02*
X147156247Y-103079523D01*
X147156247Y-103079523D02*
X147394342Y-103079523D01*
X147394342Y-103079523D02*
X147489580Y-103031904D01*
X147489580Y-103031904D02*
X147537200Y-102984285D01*
X147537200Y-102984285D02*
X147584819Y-102889047D01*
X147584819Y-102889047D02*
X147584819Y-102603333D01*
X147584819Y-102603333D02*
X147537200Y-102508095D01*
X147537200Y-102508095D02*
X147489580Y-102460476D01*
X146584819Y-103412857D02*
X146584819Y-104079523D01*
X146584819Y-104079523D02*
X147584819Y-103650952D01*
X147264819Y-106318095D02*
X146264819Y-106318095D01*
X147264819Y-106889523D02*
X146693390Y-106460952D01*
X146264819Y-106889523D02*
X146836247Y-106318095D01*
X123772319Y-82505714D02*
X122772319Y-82505714D01*
X122772319Y-82505714D02*
X122772319Y-82743809D01*
X122772319Y-82743809D02*
X122819938Y-82886666D01*
X122819938Y-82886666D02*
X122915176Y-82981904D01*
X122915176Y-82981904D02*
X123010414Y-83029523D01*
X123010414Y-83029523D02*
X123200890Y-83077142D01*
X123200890Y-83077142D02*
X123343747Y-83077142D01*
X123343747Y-83077142D02*
X123534223Y-83029523D01*
X123534223Y-83029523D02*
X123629461Y-82981904D01*
X123629461Y-82981904D02*
X123724700Y-82886666D01*
X123724700Y-82886666D02*
X123772319Y-82743809D01*
X123772319Y-82743809D02*
X123772319Y-82505714D01*
X122867557Y-83458095D02*
X122819938Y-83505714D01*
X122819938Y-83505714D02*
X122772319Y-83600952D01*
X122772319Y-83600952D02*
X122772319Y-83839047D01*
X122772319Y-83839047D02*
X122819938Y-83934285D01*
X122819938Y-83934285D02*
X122867557Y-83981904D01*
X122867557Y-83981904D02*
X122962795Y-84029523D01*
X122962795Y-84029523D02*
X123058033Y-84029523D01*
X123058033Y-84029523D02*
X123200890Y-83981904D01*
X123200890Y-83981904D02*
X123772319Y-83410476D01*
X123772319Y-83410476D02*
X123772319Y-84029523D01*
X122772319Y-84648571D02*
X122772319Y-84743809D01*
X122772319Y-84743809D02*
X122819938Y-84839047D01*
X122819938Y-84839047D02*
X122867557Y-84886666D01*
X122867557Y-84886666D02*
X122962795Y-84934285D01*
X122962795Y-84934285D02*
X123153271Y-84981904D01*
X123153271Y-84981904D02*
X123391366Y-84981904D01*
X123391366Y-84981904D02*
X123581842Y-84934285D01*
X123581842Y-84934285D02*
X123677080Y-84886666D01*
X123677080Y-84886666D02*
X123724700Y-84839047D01*
X123724700Y-84839047D02*
X123772319Y-84743809D01*
X123772319Y-84743809D02*
X123772319Y-84648571D01*
X123772319Y-84648571D02*
X123724700Y-84553333D01*
X123724700Y-84553333D02*
X123677080Y-84505714D01*
X123677080Y-84505714D02*
X123581842Y-84458095D01*
X123581842Y-84458095D02*
X123391366Y-84410476D01*
X123391366Y-84410476D02*
X123153271Y-84410476D01*
X123153271Y-84410476D02*
X122962795Y-84458095D01*
X122962795Y-84458095D02*
X122867557Y-84505714D01*
X122867557Y-84505714D02*
X122819938Y-84553333D01*
X122819938Y-84553333D02*
X122772319Y-84648571D01*
X123452319Y-87268095D02*
X122452319Y-87268095D01*
X123452319Y-87839523D02*
X122880890Y-87410952D01*
X122452319Y-87839523D02*
X123023747Y-87268095D01*
X219022319Y-82505714D02*
X218022319Y-82505714D01*
X218022319Y-82505714D02*
X218022319Y-82743809D01*
X218022319Y-82743809D02*
X218069938Y-82886666D01*
X218069938Y-82886666D02*
X218165176Y-82981904D01*
X218165176Y-82981904D02*
X218260414Y-83029523D01*
X218260414Y-83029523D02*
X218450890Y-83077142D01*
X218450890Y-83077142D02*
X218593747Y-83077142D01*
X218593747Y-83077142D02*
X218784223Y-83029523D01*
X218784223Y-83029523D02*
X218879461Y-82981904D01*
X218879461Y-82981904D02*
X218974700Y-82886666D01*
X218974700Y-82886666D02*
X219022319Y-82743809D01*
X219022319Y-82743809D02*
X219022319Y-82505714D01*
X218117557Y-83458095D02*
X218069938Y-83505714D01*
X218069938Y-83505714D02*
X218022319Y-83600952D01*
X218022319Y-83600952D02*
X218022319Y-83839047D01*
X218022319Y-83839047D02*
X218069938Y-83934285D01*
X218069938Y-83934285D02*
X218117557Y-83981904D01*
X218117557Y-83981904D02*
X218212795Y-84029523D01*
X218212795Y-84029523D02*
X218308033Y-84029523D01*
X218308033Y-84029523D02*
X218450890Y-83981904D01*
X218450890Y-83981904D02*
X219022319Y-83410476D01*
X219022319Y-83410476D02*
X219022319Y-84029523D01*
X218022319Y-84934285D02*
X218022319Y-84458095D01*
X218022319Y-84458095D02*
X218498509Y-84410476D01*
X218498509Y-84410476D02*
X218450890Y-84458095D01*
X218450890Y-84458095D02*
X218403271Y-84553333D01*
X218403271Y-84553333D02*
X218403271Y-84791428D01*
X218403271Y-84791428D02*
X218450890Y-84886666D01*
X218450890Y-84886666D02*
X218498509Y-84934285D01*
X218498509Y-84934285D02*
X218593747Y-84981904D01*
X218593747Y-84981904D02*
X218831842Y-84981904D01*
X218831842Y-84981904D02*
X218927080Y-84934285D01*
X218927080Y-84934285D02*
X218974700Y-84886666D01*
X218974700Y-84886666D02*
X219022319Y-84791428D01*
X219022319Y-84791428D02*
X219022319Y-84553333D01*
X219022319Y-84553333D02*
X218974700Y-84458095D01*
X218974700Y-84458095D02*
X218927080Y-84410476D01*
X218702319Y-87268095D02*
X217702319Y-87268095D01*
X218702319Y-87839523D02*
X218130890Y-87410952D01*
X217702319Y-87839523D02*
X218273747Y-87268095D01*
X199972319Y-82505714D02*
X198972319Y-82505714D01*
X198972319Y-82505714D02*
X198972319Y-82743809D01*
X198972319Y-82743809D02*
X199019938Y-82886666D01*
X199019938Y-82886666D02*
X199115176Y-82981904D01*
X199115176Y-82981904D02*
X199210414Y-83029523D01*
X199210414Y-83029523D02*
X199400890Y-83077142D01*
X199400890Y-83077142D02*
X199543747Y-83077142D01*
X199543747Y-83077142D02*
X199734223Y-83029523D01*
X199734223Y-83029523D02*
X199829461Y-82981904D01*
X199829461Y-82981904D02*
X199924700Y-82886666D01*
X199924700Y-82886666D02*
X199972319Y-82743809D01*
X199972319Y-82743809D02*
X199972319Y-82505714D01*
X199067557Y-83458095D02*
X199019938Y-83505714D01*
X199019938Y-83505714D02*
X198972319Y-83600952D01*
X198972319Y-83600952D02*
X198972319Y-83839047D01*
X198972319Y-83839047D02*
X199019938Y-83934285D01*
X199019938Y-83934285D02*
X199067557Y-83981904D01*
X199067557Y-83981904D02*
X199162795Y-84029523D01*
X199162795Y-84029523D02*
X199258033Y-84029523D01*
X199258033Y-84029523D02*
X199400890Y-83981904D01*
X199400890Y-83981904D02*
X199972319Y-83410476D01*
X199972319Y-83410476D02*
X199972319Y-84029523D01*
X199305652Y-84886666D02*
X199972319Y-84886666D01*
X198924700Y-84648571D02*
X199638985Y-84410476D01*
X199638985Y-84410476D02*
X199638985Y-85029523D01*
X199652319Y-87268095D02*
X198652319Y-87268095D01*
X199652319Y-87839523D02*
X199080890Y-87410952D01*
X198652319Y-87839523D02*
X199223747Y-87268095D01*
X361577319Y-87268095D02*
X360577319Y-87268095D01*
X361577319Y-87839523D02*
X361005890Y-87410952D01*
X360577319Y-87839523D02*
X361148747Y-87268095D01*
X304747319Y-63455714D02*
X303747319Y-63455714D01*
X303747319Y-63455714D02*
X303747319Y-63693809D01*
X303747319Y-63693809D02*
X303794938Y-63836666D01*
X303794938Y-63836666D02*
X303890176Y-63931904D01*
X303890176Y-63931904D02*
X303985414Y-63979523D01*
X303985414Y-63979523D02*
X304175890Y-64027142D01*
X304175890Y-64027142D02*
X304318747Y-64027142D01*
X304318747Y-64027142D02*
X304509223Y-63979523D01*
X304509223Y-63979523D02*
X304604461Y-63931904D01*
X304604461Y-63931904D02*
X304699700Y-63836666D01*
X304699700Y-63836666D02*
X304747319Y-63693809D01*
X304747319Y-63693809D02*
X304747319Y-63455714D01*
X304747319Y-64979523D02*
X304747319Y-64408095D01*
X304747319Y-64693809D02*
X303747319Y-64693809D01*
X303747319Y-64693809D02*
X303890176Y-64598571D01*
X303890176Y-64598571D02*
X303985414Y-64503333D01*
X303985414Y-64503333D02*
X304033033Y-64408095D01*
X304080652Y-65836666D02*
X304747319Y-65836666D01*
X303699700Y-65598571D02*
X304413985Y-65360476D01*
X304413985Y-65360476D02*
X304413985Y-65979523D01*
X304427319Y-68218095D02*
X303427319Y-68218095D01*
X304427319Y-68789523D02*
X303855890Y-68360952D01*
X303427319Y-68789523D02*
X303998747Y-68218095D01*
X228547319Y-63455714D02*
X227547319Y-63455714D01*
X227547319Y-63455714D02*
X227547319Y-63693809D01*
X227547319Y-63693809D02*
X227594938Y-63836666D01*
X227594938Y-63836666D02*
X227690176Y-63931904D01*
X227690176Y-63931904D02*
X227785414Y-63979523D01*
X227785414Y-63979523D02*
X227975890Y-64027142D01*
X227975890Y-64027142D02*
X228118747Y-64027142D01*
X228118747Y-64027142D02*
X228309223Y-63979523D01*
X228309223Y-63979523D02*
X228404461Y-63931904D01*
X228404461Y-63931904D02*
X228499700Y-63836666D01*
X228499700Y-63836666D02*
X228547319Y-63693809D01*
X228547319Y-63693809D02*
X228547319Y-63455714D01*
X228547319Y-64979523D02*
X228547319Y-64408095D01*
X228547319Y-64693809D02*
X227547319Y-64693809D01*
X227547319Y-64693809D02*
X227690176Y-64598571D01*
X227690176Y-64598571D02*
X227785414Y-64503333D01*
X227785414Y-64503333D02*
X227833033Y-64408095D01*
X227547319Y-65598571D02*
X227547319Y-65693809D01*
X227547319Y-65693809D02*
X227594938Y-65789047D01*
X227594938Y-65789047D02*
X227642557Y-65836666D01*
X227642557Y-65836666D02*
X227737795Y-65884285D01*
X227737795Y-65884285D02*
X227928271Y-65931904D01*
X227928271Y-65931904D02*
X228166366Y-65931904D01*
X228166366Y-65931904D02*
X228356842Y-65884285D01*
X228356842Y-65884285D02*
X228452080Y-65836666D01*
X228452080Y-65836666D02*
X228499700Y-65789047D01*
X228499700Y-65789047D02*
X228547319Y-65693809D01*
X228547319Y-65693809D02*
X228547319Y-65598571D01*
X228547319Y-65598571D02*
X228499700Y-65503333D01*
X228499700Y-65503333D02*
X228452080Y-65455714D01*
X228452080Y-65455714D02*
X228356842Y-65408095D01*
X228356842Y-65408095D02*
X228166366Y-65360476D01*
X228166366Y-65360476D02*
X227928271Y-65360476D01*
X227928271Y-65360476D02*
X227737795Y-65408095D01*
X227737795Y-65408095D02*
X227642557Y-65455714D01*
X227642557Y-65455714D02*
X227594938Y-65503333D01*
X227594938Y-65503333D02*
X227547319Y-65598571D01*
X228227319Y-68218095D02*
X227227319Y-68218095D01*
X228227319Y-68789523D02*
X227655890Y-68360952D01*
X227227319Y-68789523D02*
X227798747Y-68218095D01*
X52334819Y-82505714D02*
X51334819Y-82505714D01*
X51334819Y-82505714D02*
X51334819Y-82743809D01*
X51334819Y-82743809D02*
X51382438Y-82886666D01*
X51382438Y-82886666D02*
X51477676Y-82981904D01*
X51477676Y-82981904D02*
X51572914Y-83029523D01*
X51572914Y-83029523D02*
X51763390Y-83077142D01*
X51763390Y-83077142D02*
X51906247Y-83077142D01*
X51906247Y-83077142D02*
X52096723Y-83029523D01*
X52096723Y-83029523D02*
X52191961Y-82981904D01*
X52191961Y-82981904D02*
X52287200Y-82886666D01*
X52287200Y-82886666D02*
X52334819Y-82743809D01*
X52334819Y-82743809D02*
X52334819Y-82505714D01*
X52334819Y-84029523D02*
X52334819Y-83458095D01*
X52334819Y-83743809D02*
X51334819Y-83743809D01*
X51334819Y-83743809D02*
X51477676Y-83648571D01*
X51477676Y-83648571D02*
X51572914Y-83553333D01*
X51572914Y-83553333D02*
X51620533Y-83458095D01*
X51334819Y-84362857D02*
X51334819Y-85029523D01*
X51334819Y-85029523D02*
X52334819Y-84600952D01*
X52014819Y-87268095D02*
X51014819Y-87268095D01*
X52014819Y-87839523D02*
X51443390Y-87410952D01*
X51014819Y-87839523D02*
X51586247Y-87268095D01*
X330941069Y-101555714D02*
X329941069Y-101555714D01*
X329941069Y-101555714D02*
X329941069Y-101793809D01*
X329941069Y-101793809D02*
X329988688Y-101936666D01*
X329988688Y-101936666D02*
X330083926Y-102031904D01*
X330083926Y-102031904D02*
X330179164Y-102079523D01*
X330179164Y-102079523D02*
X330369640Y-102127142D01*
X330369640Y-102127142D02*
X330512497Y-102127142D01*
X330512497Y-102127142D02*
X330702973Y-102079523D01*
X330702973Y-102079523D02*
X330798211Y-102031904D01*
X330798211Y-102031904D02*
X330893450Y-101936666D01*
X330893450Y-101936666D02*
X330941069Y-101793809D01*
X330941069Y-101793809D02*
X330941069Y-101555714D01*
X330274402Y-102984285D02*
X330941069Y-102984285D01*
X329893450Y-102746190D02*
X330607735Y-102508095D01*
X330607735Y-102508095D02*
X330607735Y-103127142D01*
X329941069Y-103936666D02*
X329941069Y-103746190D01*
X329941069Y-103746190D02*
X329988688Y-103650952D01*
X329988688Y-103650952D02*
X330036307Y-103603333D01*
X330036307Y-103603333D02*
X330179164Y-103508095D01*
X330179164Y-103508095D02*
X330369640Y-103460476D01*
X330369640Y-103460476D02*
X330750592Y-103460476D01*
X330750592Y-103460476D02*
X330845830Y-103508095D01*
X330845830Y-103508095D02*
X330893450Y-103555714D01*
X330893450Y-103555714D02*
X330941069Y-103650952D01*
X330941069Y-103650952D02*
X330941069Y-103841428D01*
X330941069Y-103841428D02*
X330893450Y-103936666D01*
X330893450Y-103936666D02*
X330845830Y-103984285D01*
X330845830Y-103984285D02*
X330750592Y-104031904D01*
X330750592Y-104031904D02*
X330512497Y-104031904D01*
X330512497Y-104031904D02*
X330417259Y-103984285D01*
X330417259Y-103984285D02*
X330369640Y-103936666D01*
X330369640Y-103936666D02*
X330322021Y-103841428D01*
X330322021Y-103841428D02*
X330322021Y-103650952D01*
X330322021Y-103650952D02*
X330369640Y-103555714D01*
X330369640Y-103555714D02*
X330417259Y-103508095D01*
X330417259Y-103508095D02*
X330512497Y-103460476D01*
X330621069Y-106318095D02*
X329621069Y-106318095D01*
X330621069Y-106889523D02*
X330049640Y-106460952D01*
X329621069Y-106889523D02*
X330192497Y-106318095D01*
X204734819Y-101555714D02*
X203734819Y-101555714D01*
X203734819Y-101555714D02*
X203734819Y-101793809D01*
X203734819Y-101793809D02*
X203782438Y-101936666D01*
X203782438Y-101936666D02*
X203877676Y-102031904D01*
X203877676Y-102031904D02*
X203972914Y-102079523D01*
X203972914Y-102079523D02*
X204163390Y-102127142D01*
X204163390Y-102127142D02*
X204306247Y-102127142D01*
X204306247Y-102127142D02*
X204496723Y-102079523D01*
X204496723Y-102079523D02*
X204591961Y-102031904D01*
X204591961Y-102031904D02*
X204687200Y-101936666D01*
X204687200Y-101936666D02*
X204734819Y-101793809D01*
X204734819Y-101793809D02*
X204734819Y-101555714D01*
X204068152Y-102984285D02*
X204734819Y-102984285D01*
X203687200Y-102746190D02*
X204401485Y-102508095D01*
X204401485Y-102508095D02*
X204401485Y-103127142D01*
X203734819Y-103698571D02*
X203734819Y-103793809D01*
X203734819Y-103793809D02*
X203782438Y-103889047D01*
X203782438Y-103889047D02*
X203830057Y-103936666D01*
X203830057Y-103936666D02*
X203925295Y-103984285D01*
X203925295Y-103984285D02*
X204115771Y-104031904D01*
X204115771Y-104031904D02*
X204353866Y-104031904D01*
X204353866Y-104031904D02*
X204544342Y-103984285D01*
X204544342Y-103984285D02*
X204639580Y-103936666D01*
X204639580Y-103936666D02*
X204687200Y-103889047D01*
X204687200Y-103889047D02*
X204734819Y-103793809D01*
X204734819Y-103793809D02*
X204734819Y-103698571D01*
X204734819Y-103698571D02*
X204687200Y-103603333D01*
X204687200Y-103603333D02*
X204639580Y-103555714D01*
X204639580Y-103555714D02*
X204544342Y-103508095D01*
X204544342Y-103508095D02*
X204353866Y-103460476D01*
X204353866Y-103460476D02*
X204115771Y-103460476D01*
X204115771Y-103460476D02*
X203925295Y-103508095D01*
X203925295Y-103508095D02*
X203830057Y-103555714D01*
X203830057Y-103555714D02*
X203782438Y-103603333D01*
X203782438Y-103603333D02*
X203734819Y-103698571D01*
X204414819Y-106318095D02*
X203414819Y-106318095D01*
X204414819Y-106889523D02*
X203843390Y-106460952D01*
X203414819Y-106889523D02*
X203986247Y-106318095D01*
X78528569Y-139655714D02*
X77528569Y-139655714D01*
X77528569Y-139655714D02*
X77528569Y-139893809D01*
X77528569Y-139893809D02*
X77576188Y-140036666D01*
X77576188Y-140036666D02*
X77671426Y-140131904D01*
X77671426Y-140131904D02*
X77766664Y-140179523D01*
X77766664Y-140179523D02*
X77957140Y-140227142D01*
X77957140Y-140227142D02*
X78099997Y-140227142D01*
X78099997Y-140227142D02*
X78290473Y-140179523D01*
X78290473Y-140179523D02*
X78385711Y-140131904D01*
X78385711Y-140131904D02*
X78480950Y-140036666D01*
X78480950Y-140036666D02*
X78528569Y-139893809D01*
X78528569Y-139893809D02*
X78528569Y-139655714D01*
X77528569Y-141084285D02*
X77528569Y-140893809D01*
X77528569Y-140893809D02*
X77576188Y-140798571D01*
X77576188Y-140798571D02*
X77623807Y-140750952D01*
X77623807Y-140750952D02*
X77766664Y-140655714D01*
X77766664Y-140655714D02*
X77957140Y-140608095D01*
X77957140Y-140608095D02*
X78338092Y-140608095D01*
X78338092Y-140608095D02*
X78433330Y-140655714D01*
X78433330Y-140655714D02*
X78480950Y-140703333D01*
X78480950Y-140703333D02*
X78528569Y-140798571D01*
X78528569Y-140798571D02*
X78528569Y-140989047D01*
X78528569Y-140989047D02*
X78480950Y-141084285D01*
X78480950Y-141084285D02*
X78433330Y-141131904D01*
X78433330Y-141131904D02*
X78338092Y-141179523D01*
X78338092Y-141179523D02*
X78099997Y-141179523D01*
X78099997Y-141179523D02*
X78004759Y-141131904D01*
X78004759Y-141131904D02*
X77957140Y-141084285D01*
X77957140Y-141084285D02*
X77909521Y-140989047D01*
X77909521Y-140989047D02*
X77909521Y-140798571D01*
X77909521Y-140798571D02*
X77957140Y-140703333D01*
X77957140Y-140703333D02*
X78004759Y-140655714D01*
X78004759Y-140655714D02*
X78099997Y-140608095D01*
X77861902Y-142036666D02*
X78528569Y-142036666D01*
X77480950Y-141798571D02*
X78195235Y-141560476D01*
X78195235Y-141560476D02*
X78195235Y-142179523D01*
X78208569Y-144418095D02*
X77208569Y-144418095D01*
X78208569Y-144989523D02*
X77637140Y-144560952D01*
X77208569Y-144989523D02*
X77779997Y-144418095D01*
X290459819Y-120605714D02*
X289459819Y-120605714D01*
X289459819Y-120605714D02*
X289459819Y-120843809D01*
X289459819Y-120843809D02*
X289507438Y-120986666D01*
X289507438Y-120986666D02*
X289602676Y-121081904D01*
X289602676Y-121081904D02*
X289697914Y-121129523D01*
X289697914Y-121129523D02*
X289888390Y-121177142D01*
X289888390Y-121177142D02*
X290031247Y-121177142D01*
X290031247Y-121177142D02*
X290221723Y-121129523D01*
X290221723Y-121129523D02*
X290316961Y-121081904D01*
X290316961Y-121081904D02*
X290412200Y-120986666D01*
X290412200Y-120986666D02*
X290459819Y-120843809D01*
X290459819Y-120843809D02*
X290459819Y-120605714D01*
X289459819Y-122081904D02*
X289459819Y-121605714D01*
X289459819Y-121605714D02*
X289936009Y-121558095D01*
X289936009Y-121558095D02*
X289888390Y-121605714D01*
X289888390Y-121605714D02*
X289840771Y-121700952D01*
X289840771Y-121700952D02*
X289840771Y-121939047D01*
X289840771Y-121939047D02*
X289888390Y-122034285D01*
X289888390Y-122034285D02*
X289936009Y-122081904D01*
X289936009Y-122081904D02*
X290031247Y-122129523D01*
X290031247Y-122129523D02*
X290269342Y-122129523D01*
X290269342Y-122129523D02*
X290364580Y-122081904D01*
X290364580Y-122081904D02*
X290412200Y-122034285D01*
X290412200Y-122034285D02*
X290459819Y-121939047D01*
X290459819Y-121939047D02*
X290459819Y-121700952D01*
X290459819Y-121700952D02*
X290412200Y-121605714D01*
X290412200Y-121605714D02*
X290364580Y-121558095D01*
X290459819Y-122605714D02*
X290459819Y-122796190D01*
X290459819Y-122796190D02*
X290412200Y-122891428D01*
X290412200Y-122891428D02*
X290364580Y-122939047D01*
X290364580Y-122939047D02*
X290221723Y-123034285D01*
X290221723Y-123034285D02*
X290031247Y-123081904D01*
X290031247Y-123081904D02*
X289650295Y-123081904D01*
X289650295Y-123081904D02*
X289555057Y-123034285D01*
X289555057Y-123034285D02*
X289507438Y-122986666D01*
X289507438Y-122986666D02*
X289459819Y-122891428D01*
X289459819Y-122891428D02*
X289459819Y-122700952D01*
X289459819Y-122700952D02*
X289507438Y-122605714D01*
X289507438Y-122605714D02*
X289555057Y-122558095D01*
X289555057Y-122558095D02*
X289650295Y-122510476D01*
X289650295Y-122510476D02*
X289888390Y-122510476D01*
X289888390Y-122510476D02*
X289983628Y-122558095D01*
X289983628Y-122558095D02*
X290031247Y-122605714D01*
X290031247Y-122605714D02*
X290078866Y-122700952D01*
X290078866Y-122700952D02*
X290078866Y-122891428D01*
X290078866Y-122891428D02*
X290031247Y-122986666D01*
X290031247Y-122986666D02*
X289983628Y-123034285D01*
X289983628Y-123034285D02*
X289888390Y-123081904D01*
X290139819Y-125368095D02*
X289139819Y-125368095D01*
X290139819Y-125939523D02*
X289568390Y-125510952D01*
X289139819Y-125939523D02*
X289711247Y-125368095D01*
X114247319Y-63931905D02*
X113247319Y-63931905D01*
X113247319Y-63931905D02*
X113247319Y-64170000D01*
X113247319Y-64170000D02*
X113294938Y-64312857D01*
X113294938Y-64312857D02*
X113390176Y-64408095D01*
X113390176Y-64408095D02*
X113485414Y-64455714D01*
X113485414Y-64455714D02*
X113675890Y-64503333D01*
X113675890Y-64503333D02*
X113818747Y-64503333D01*
X113818747Y-64503333D02*
X114009223Y-64455714D01*
X114009223Y-64455714D02*
X114104461Y-64408095D01*
X114104461Y-64408095D02*
X114199700Y-64312857D01*
X114199700Y-64312857D02*
X114247319Y-64170000D01*
X114247319Y-64170000D02*
X114247319Y-63931905D01*
X113580652Y-65360476D02*
X114247319Y-65360476D01*
X113199700Y-65122381D02*
X113913985Y-64884286D01*
X113913985Y-64884286D02*
X113913985Y-65503333D01*
X113927319Y-68218095D02*
X112927319Y-68218095D01*
X113927319Y-68789523D02*
X113355890Y-68360952D01*
X112927319Y-68789523D02*
X113498747Y-68218095D01*
X342847319Y-120605714D02*
X341847319Y-120605714D01*
X341847319Y-120605714D02*
X341847319Y-120843809D01*
X341847319Y-120843809D02*
X341894938Y-120986666D01*
X341894938Y-120986666D02*
X341990176Y-121081904D01*
X341990176Y-121081904D02*
X342085414Y-121129523D01*
X342085414Y-121129523D02*
X342275890Y-121177142D01*
X342275890Y-121177142D02*
X342418747Y-121177142D01*
X342418747Y-121177142D02*
X342609223Y-121129523D01*
X342609223Y-121129523D02*
X342704461Y-121081904D01*
X342704461Y-121081904D02*
X342799700Y-120986666D01*
X342799700Y-120986666D02*
X342847319Y-120843809D01*
X342847319Y-120843809D02*
X342847319Y-120605714D01*
X341847319Y-122034285D02*
X341847319Y-121843809D01*
X341847319Y-121843809D02*
X341894938Y-121748571D01*
X341894938Y-121748571D02*
X341942557Y-121700952D01*
X341942557Y-121700952D02*
X342085414Y-121605714D01*
X342085414Y-121605714D02*
X342275890Y-121558095D01*
X342275890Y-121558095D02*
X342656842Y-121558095D01*
X342656842Y-121558095D02*
X342752080Y-121605714D01*
X342752080Y-121605714D02*
X342799700Y-121653333D01*
X342799700Y-121653333D02*
X342847319Y-121748571D01*
X342847319Y-121748571D02*
X342847319Y-121939047D01*
X342847319Y-121939047D02*
X342799700Y-122034285D01*
X342799700Y-122034285D02*
X342752080Y-122081904D01*
X342752080Y-122081904D02*
X342656842Y-122129523D01*
X342656842Y-122129523D02*
X342418747Y-122129523D01*
X342418747Y-122129523D02*
X342323509Y-122081904D01*
X342323509Y-122081904D02*
X342275890Y-122034285D01*
X342275890Y-122034285D02*
X342228271Y-121939047D01*
X342228271Y-121939047D02*
X342228271Y-121748571D01*
X342228271Y-121748571D02*
X342275890Y-121653333D01*
X342275890Y-121653333D02*
X342323509Y-121605714D01*
X342323509Y-121605714D02*
X342418747Y-121558095D01*
X342847319Y-123081904D02*
X342847319Y-122510476D01*
X342847319Y-122796190D02*
X341847319Y-122796190D01*
X341847319Y-122796190D02*
X341990176Y-122700952D01*
X341990176Y-122700952D02*
X342085414Y-122605714D01*
X342085414Y-122605714D02*
X342133033Y-122510476D01*
X342527319Y-125368095D02*
X341527319Y-125368095D01*
X342527319Y-125939523D02*
X341955890Y-125510952D01*
X341527319Y-125939523D02*
X342098747Y-125368095D01*
X171397319Y-63931905D02*
X170397319Y-63931905D01*
X170397319Y-63931905D02*
X170397319Y-64170000D01*
X170397319Y-64170000D02*
X170444938Y-64312857D01*
X170444938Y-64312857D02*
X170540176Y-64408095D01*
X170540176Y-64408095D02*
X170635414Y-64455714D01*
X170635414Y-64455714D02*
X170825890Y-64503333D01*
X170825890Y-64503333D02*
X170968747Y-64503333D01*
X170968747Y-64503333D02*
X171159223Y-64455714D01*
X171159223Y-64455714D02*
X171254461Y-64408095D01*
X171254461Y-64408095D02*
X171349700Y-64312857D01*
X171349700Y-64312857D02*
X171397319Y-64170000D01*
X171397319Y-64170000D02*
X171397319Y-63931905D01*
X170397319Y-64836667D02*
X170397319Y-65503333D01*
X170397319Y-65503333D02*
X171397319Y-65074762D01*
X171077319Y-68218095D02*
X170077319Y-68218095D01*
X171077319Y-68789523D02*
X170505890Y-68360952D01*
X170077319Y-68789523D02*
X170648747Y-68218095D01*
X361897319Y-120605714D02*
X360897319Y-120605714D01*
X360897319Y-120605714D02*
X360897319Y-120843809D01*
X360897319Y-120843809D02*
X360944938Y-120986666D01*
X360944938Y-120986666D02*
X361040176Y-121081904D01*
X361040176Y-121081904D02*
X361135414Y-121129523D01*
X361135414Y-121129523D02*
X361325890Y-121177142D01*
X361325890Y-121177142D02*
X361468747Y-121177142D01*
X361468747Y-121177142D02*
X361659223Y-121129523D01*
X361659223Y-121129523D02*
X361754461Y-121081904D01*
X361754461Y-121081904D02*
X361849700Y-120986666D01*
X361849700Y-120986666D02*
X361897319Y-120843809D01*
X361897319Y-120843809D02*
X361897319Y-120605714D01*
X360897319Y-122034285D02*
X360897319Y-121843809D01*
X360897319Y-121843809D02*
X360944938Y-121748571D01*
X360944938Y-121748571D02*
X360992557Y-121700952D01*
X360992557Y-121700952D02*
X361135414Y-121605714D01*
X361135414Y-121605714D02*
X361325890Y-121558095D01*
X361325890Y-121558095D02*
X361706842Y-121558095D01*
X361706842Y-121558095D02*
X361802080Y-121605714D01*
X361802080Y-121605714D02*
X361849700Y-121653333D01*
X361849700Y-121653333D02*
X361897319Y-121748571D01*
X361897319Y-121748571D02*
X361897319Y-121939047D01*
X361897319Y-121939047D02*
X361849700Y-122034285D01*
X361849700Y-122034285D02*
X361802080Y-122081904D01*
X361802080Y-122081904D02*
X361706842Y-122129523D01*
X361706842Y-122129523D02*
X361468747Y-122129523D01*
X361468747Y-122129523D02*
X361373509Y-122081904D01*
X361373509Y-122081904D02*
X361325890Y-122034285D01*
X361325890Y-122034285D02*
X361278271Y-121939047D01*
X361278271Y-121939047D02*
X361278271Y-121748571D01*
X361278271Y-121748571D02*
X361325890Y-121653333D01*
X361325890Y-121653333D02*
X361373509Y-121605714D01*
X361373509Y-121605714D02*
X361468747Y-121558095D01*
X360992557Y-122510476D02*
X360944938Y-122558095D01*
X360944938Y-122558095D02*
X360897319Y-122653333D01*
X360897319Y-122653333D02*
X360897319Y-122891428D01*
X360897319Y-122891428D02*
X360944938Y-122986666D01*
X360944938Y-122986666D02*
X360992557Y-123034285D01*
X360992557Y-123034285D02*
X361087795Y-123081904D01*
X361087795Y-123081904D02*
X361183033Y-123081904D01*
X361183033Y-123081904D02*
X361325890Y-123034285D01*
X361325890Y-123034285D02*
X361897319Y-122462857D01*
X361897319Y-122462857D02*
X361897319Y-123081904D01*
X361577319Y-125368095D02*
X360577319Y-125368095D01*
X361577319Y-125939523D02*
X361005890Y-125510952D01*
X360577319Y-125939523D02*
X361148747Y-125368095D01*
X52334819Y-139655714D02*
X51334819Y-139655714D01*
X51334819Y-139655714D02*
X51334819Y-139893809D01*
X51334819Y-139893809D02*
X51382438Y-140036666D01*
X51382438Y-140036666D02*
X51477676Y-140131904D01*
X51477676Y-140131904D02*
X51572914Y-140179523D01*
X51572914Y-140179523D02*
X51763390Y-140227142D01*
X51763390Y-140227142D02*
X51906247Y-140227142D01*
X51906247Y-140227142D02*
X52096723Y-140179523D01*
X52096723Y-140179523D02*
X52191961Y-140131904D01*
X52191961Y-140131904D02*
X52287200Y-140036666D01*
X52287200Y-140036666D02*
X52334819Y-139893809D01*
X52334819Y-139893809D02*
X52334819Y-139655714D01*
X51334819Y-141084285D02*
X51334819Y-140893809D01*
X51334819Y-140893809D02*
X51382438Y-140798571D01*
X51382438Y-140798571D02*
X51430057Y-140750952D01*
X51430057Y-140750952D02*
X51572914Y-140655714D01*
X51572914Y-140655714D02*
X51763390Y-140608095D01*
X51763390Y-140608095D02*
X52144342Y-140608095D01*
X52144342Y-140608095D02*
X52239580Y-140655714D01*
X52239580Y-140655714D02*
X52287200Y-140703333D01*
X52287200Y-140703333D02*
X52334819Y-140798571D01*
X52334819Y-140798571D02*
X52334819Y-140989047D01*
X52334819Y-140989047D02*
X52287200Y-141084285D01*
X52287200Y-141084285D02*
X52239580Y-141131904D01*
X52239580Y-141131904D02*
X52144342Y-141179523D01*
X52144342Y-141179523D02*
X51906247Y-141179523D01*
X51906247Y-141179523D02*
X51811009Y-141131904D01*
X51811009Y-141131904D02*
X51763390Y-141084285D01*
X51763390Y-141084285D02*
X51715771Y-140989047D01*
X51715771Y-140989047D02*
X51715771Y-140798571D01*
X51715771Y-140798571D02*
X51763390Y-140703333D01*
X51763390Y-140703333D02*
X51811009Y-140655714D01*
X51811009Y-140655714D02*
X51906247Y-140608095D01*
X51334819Y-141512857D02*
X51334819Y-142131904D01*
X51334819Y-142131904D02*
X51715771Y-141798571D01*
X51715771Y-141798571D02*
X51715771Y-141941428D01*
X51715771Y-141941428D02*
X51763390Y-142036666D01*
X51763390Y-142036666D02*
X51811009Y-142084285D01*
X51811009Y-142084285D02*
X51906247Y-142131904D01*
X51906247Y-142131904D02*
X52144342Y-142131904D01*
X52144342Y-142131904D02*
X52239580Y-142084285D01*
X52239580Y-142084285D02*
X52287200Y-142036666D01*
X52287200Y-142036666D02*
X52334819Y-141941428D01*
X52334819Y-141941428D02*
X52334819Y-141655714D01*
X52334819Y-141655714D02*
X52287200Y-141560476D01*
X52287200Y-141560476D02*
X52239580Y-141512857D01*
X52014819Y-144418095D02*
X51014819Y-144418095D01*
X52014819Y-144989523D02*
X51443390Y-144560952D01*
X51014819Y-144989523D02*
X51586247Y-144418095D01*
X247597319Y-63455714D02*
X246597319Y-63455714D01*
X246597319Y-63455714D02*
X246597319Y-63693809D01*
X246597319Y-63693809D02*
X246644938Y-63836666D01*
X246644938Y-63836666D02*
X246740176Y-63931904D01*
X246740176Y-63931904D02*
X246835414Y-63979523D01*
X246835414Y-63979523D02*
X247025890Y-64027142D01*
X247025890Y-64027142D02*
X247168747Y-64027142D01*
X247168747Y-64027142D02*
X247359223Y-63979523D01*
X247359223Y-63979523D02*
X247454461Y-63931904D01*
X247454461Y-63931904D02*
X247549700Y-63836666D01*
X247549700Y-63836666D02*
X247597319Y-63693809D01*
X247597319Y-63693809D02*
X247597319Y-63455714D01*
X247597319Y-64979523D02*
X247597319Y-64408095D01*
X247597319Y-64693809D02*
X246597319Y-64693809D01*
X246597319Y-64693809D02*
X246740176Y-64598571D01*
X246740176Y-64598571D02*
X246835414Y-64503333D01*
X246835414Y-64503333D02*
X246883033Y-64408095D01*
X247597319Y-65931904D02*
X247597319Y-65360476D01*
X247597319Y-65646190D02*
X246597319Y-65646190D01*
X246597319Y-65646190D02*
X246740176Y-65550952D01*
X246740176Y-65550952D02*
X246835414Y-65455714D01*
X246835414Y-65455714D02*
X246883033Y-65360476D01*
X247277319Y-68218095D02*
X246277319Y-68218095D01*
X247277319Y-68789523D02*
X246705890Y-68360952D01*
X246277319Y-68789523D02*
X246848747Y-68218095D01*
X133297319Y-63931905D02*
X132297319Y-63931905D01*
X132297319Y-63931905D02*
X132297319Y-64170000D01*
X132297319Y-64170000D02*
X132344938Y-64312857D01*
X132344938Y-64312857D02*
X132440176Y-64408095D01*
X132440176Y-64408095D02*
X132535414Y-64455714D01*
X132535414Y-64455714D02*
X132725890Y-64503333D01*
X132725890Y-64503333D02*
X132868747Y-64503333D01*
X132868747Y-64503333D02*
X133059223Y-64455714D01*
X133059223Y-64455714D02*
X133154461Y-64408095D01*
X133154461Y-64408095D02*
X133249700Y-64312857D01*
X133249700Y-64312857D02*
X133297319Y-64170000D01*
X133297319Y-64170000D02*
X133297319Y-63931905D01*
X132297319Y-65408095D02*
X132297319Y-64931905D01*
X132297319Y-64931905D02*
X132773509Y-64884286D01*
X132773509Y-64884286D02*
X132725890Y-64931905D01*
X132725890Y-64931905D02*
X132678271Y-65027143D01*
X132678271Y-65027143D02*
X132678271Y-65265238D01*
X132678271Y-65265238D02*
X132725890Y-65360476D01*
X132725890Y-65360476D02*
X132773509Y-65408095D01*
X132773509Y-65408095D02*
X132868747Y-65455714D01*
X132868747Y-65455714D02*
X133106842Y-65455714D01*
X133106842Y-65455714D02*
X133202080Y-65408095D01*
X133202080Y-65408095D02*
X133249700Y-65360476D01*
X133249700Y-65360476D02*
X133297319Y-65265238D01*
X133297319Y-65265238D02*
X133297319Y-65027143D01*
X133297319Y-65027143D02*
X133249700Y-64931905D01*
X133249700Y-64931905D02*
X133202080Y-64884286D01*
X132977319Y-68218095D02*
X131977319Y-68218095D01*
X132977319Y-68789523D02*
X132405890Y-68360952D01*
X131977319Y-68789523D02*
X132548747Y-68218095D01*
X52334819Y-101555714D02*
X51334819Y-101555714D01*
X51334819Y-101555714D02*
X51334819Y-101793809D01*
X51334819Y-101793809D02*
X51382438Y-101936666D01*
X51382438Y-101936666D02*
X51477676Y-102031904D01*
X51477676Y-102031904D02*
X51572914Y-102079523D01*
X51572914Y-102079523D02*
X51763390Y-102127142D01*
X51763390Y-102127142D02*
X51906247Y-102127142D01*
X51906247Y-102127142D02*
X52096723Y-102079523D01*
X52096723Y-102079523D02*
X52191961Y-102031904D01*
X52191961Y-102031904D02*
X52287200Y-101936666D01*
X52287200Y-101936666D02*
X52334819Y-101793809D01*
X52334819Y-101793809D02*
X52334819Y-101555714D01*
X51334819Y-102460476D02*
X51334819Y-103079523D01*
X51334819Y-103079523D02*
X51715771Y-102746190D01*
X51715771Y-102746190D02*
X51715771Y-102889047D01*
X51715771Y-102889047D02*
X51763390Y-102984285D01*
X51763390Y-102984285D02*
X51811009Y-103031904D01*
X51811009Y-103031904D02*
X51906247Y-103079523D01*
X51906247Y-103079523D02*
X52144342Y-103079523D01*
X52144342Y-103079523D02*
X52239580Y-103031904D01*
X52239580Y-103031904D02*
X52287200Y-102984285D01*
X52287200Y-102984285D02*
X52334819Y-102889047D01*
X52334819Y-102889047D02*
X52334819Y-102603333D01*
X52334819Y-102603333D02*
X52287200Y-102508095D01*
X52287200Y-102508095D02*
X52239580Y-102460476D01*
X51334819Y-103412857D02*
X51334819Y-104031904D01*
X51334819Y-104031904D02*
X51715771Y-103698571D01*
X51715771Y-103698571D02*
X51715771Y-103841428D01*
X51715771Y-103841428D02*
X51763390Y-103936666D01*
X51763390Y-103936666D02*
X51811009Y-103984285D01*
X51811009Y-103984285D02*
X51906247Y-104031904D01*
X51906247Y-104031904D02*
X52144342Y-104031904D01*
X52144342Y-104031904D02*
X52239580Y-103984285D01*
X52239580Y-103984285D02*
X52287200Y-103936666D01*
X52287200Y-103936666D02*
X52334819Y-103841428D01*
X52334819Y-103841428D02*
X52334819Y-103555714D01*
X52334819Y-103555714D02*
X52287200Y-103460476D01*
X52287200Y-103460476D02*
X52239580Y-103412857D01*
X52014819Y-106318095D02*
X51014819Y-106318095D01*
X52014819Y-106889523D02*
X51443390Y-106460952D01*
X51014819Y-106889523D02*
X51586247Y-106318095D01*
X295222319Y-82505714D02*
X294222319Y-82505714D01*
X294222319Y-82505714D02*
X294222319Y-82743809D01*
X294222319Y-82743809D02*
X294269938Y-82886666D01*
X294269938Y-82886666D02*
X294365176Y-82981904D01*
X294365176Y-82981904D02*
X294460414Y-83029523D01*
X294460414Y-83029523D02*
X294650890Y-83077142D01*
X294650890Y-83077142D02*
X294793747Y-83077142D01*
X294793747Y-83077142D02*
X294984223Y-83029523D01*
X294984223Y-83029523D02*
X295079461Y-82981904D01*
X295079461Y-82981904D02*
X295174700Y-82886666D01*
X295174700Y-82886666D02*
X295222319Y-82743809D01*
X295222319Y-82743809D02*
X295222319Y-82505714D01*
X294317557Y-83458095D02*
X294269938Y-83505714D01*
X294269938Y-83505714D02*
X294222319Y-83600952D01*
X294222319Y-83600952D02*
X294222319Y-83839047D01*
X294222319Y-83839047D02*
X294269938Y-83934285D01*
X294269938Y-83934285D02*
X294317557Y-83981904D01*
X294317557Y-83981904D02*
X294412795Y-84029523D01*
X294412795Y-84029523D02*
X294508033Y-84029523D01*
X294508033Y-84029523D02*
X294650890Y-83981904D01*
X294650890Y-83981904D02*
X295222319Y-83410476D01*
X295222319Y-83410476D02*
X295222319Y-84029523D01*
X295222319Y-84505714D02*
X295222319Y-84696190D01*
X295222319Y-84696190D02*
X295174700Y-84791428D01*
X295174700Y-84791428D02*
X295127080Y-84839047D01*
X295127080Y-84839047D02*
X294984223Y-84934285D01*
X294984223Y-84934285D02*
X294793747Y-84981904D01*
X294793747Y-84981904D02*
X294412795Y-84981904D01*
X294412795Y-84981904D02*
X294317557Y-84934285D01*
X294317557Y-84934285D02*
X294269938Y-84886666D01*
X294269938Y-84886666D02*
X294222319Y-84791428D01*
X294222319Y-84791428D02*
X294222319Y-84600952D01*
X294222319Y-84600952D02*
X294269938Y-84505714D01*
X294269938Y-84505714D02*
X294317557Y-84458095D01*
X294317557Y-84458095D02*
X294412795Y-84410476D01*
X294412795Y-84410476D02*
X294650890Y-84410476D01*
X294650890Y-84410476D02*
X294746128Y-84458095D01*
X294746128Y-84458095D02*
X294793747Y-84505714D01*
X294793747Y-84505714D02*
X294841366Y-84600952D01*
X294841366Y-84600952D02*
X294841366Y-84791428D01*
X294841366Y-84791428D02*
X294793747Y-84886666D01*
X294793747Y-84886666D02*
X294746128Y-84934285D01*
X294746128Y-84934285D02*
X294650890Y-84981904D01*
X294902319Y-87268095D02*
X293902319Y-87268095D01*
X294902319Y-87839523D02*
X294330890Y-87410952D01*
X293902319Y-87839523D02*
X294473747Y-87268095D01*
X180922319Y-82505714D02*
X179922319Y-82505714D01*
X179922319Y-82505714D02*
X179922319Y-82743809D01*
X179922319Y-82743809D02*
X179969938Y-82886666D01*
X179969938Y-82886666D02*
X180065176Y-82981904D01*
X180065176Y-82981904D02*
X180160414Y-83029523D01*
X180160414Y-83029523D02*
X180350890Y-83077142D01*
X180350890Y-83077142D02*
X180493747Y-83077142D01*
X180493747Y-83077142D02*
X180684223Y-83029523D01*
X180684223Y-83029523D02*
X180779461Y-82981904D01*
X180779461Y-82981904D02*
X180874700Y-82886666D01*
X180874700Y-82886666D02*
X180922319Y-82743809D01*
X180922319Y-82743809D02*
X180922319Y-82505714D01*
X180017557Y-83458095D02*
X179969938Y-83505714D01*
X179969938Y-83505714D02*
X179922319Y-83600952D01*
X179922319Y-83600952D02*
X179922319Y-83839047D01*
X179922319Y-83839047D02*
X179969938Y-83934285D01*
X179969938Y-83934285D02*
X180017557Y-83981904D01*
X180017557Y-83981904D02*
X180112795Y-84029523D01*
X180112795Y-84029523D02*
X180208033Y-84029523D01*
X180208033Y-84029523D02*
X180350890Y-83981904D01*
X180350890Y-83981904D02*
X180922319Y-83410476D01*
X180922319Y-83410476D02*
X180922319Y-84029523D01*
X179922319Y-84362857D02*
X179922319Y-84981904D01*
X179922319Y-84981904D02*
X180303271Y-84648571D01*
X180303271Y-84648571D02*
X180303271Y-84791428D01*
X180303271Y-84791428D02*
X180350890Y-84886666D01*
X180350890Y-84886666D02*
X180398509Y-84934285D01*
X180398509Y-84934285D02*
X180493747Y-84981904D01*
X180493747Y-84981904D02*
X180731842Y-84981904D01*
X180731842Y-84981904D02*
X180827080Y-84934285D01*
X180827080Y-84934285D02*
X180874700Y-84886666D01*
X180874700Y-84886666D02*
X180922319Y-84791428D01*
X180922319Y-84791428D02*
X180922319Y-84505714D01*
X180922319Y-84505714D02*
X180874700Y-84410476D01*
X180874700Y-84410476D02*
X180827080Y-84362857D01*
X180602319Y-87268095D02*
X179602319Y-87268095D01*
X180602319Y-87839523D02*
X180030890Y-87410952D01*
X179602319Y-87839523D02*
X180173747Y-87268095D01*
X299984819Y-101555714D02*
X298984819Y-101555714D01*
X298984819Y-101555714D02*
X298984819Y-101793809D01*
X298984819Y-101793809D02*
X299032438Y-101936666D01*
X299032438Y-101936666D02*
X299127676Y-102031904D01*
X299127676Y-102031904D02*
X299222914Y-102079523D01*
X299222914Y-102079523D02*
X299413390Y-102127142D01*
X299413390Y-102127142D02*
X299556247Y-102127142D01*
X299556247Y-102127142D02*
X299746723Y-102079523D01*
X299746723Y-102079523D02*
X299841961Y-102031904D01*
X299841961Y-102031904D02*
X299937200Y-101936666D01*
X299937200Y-101936666D02*
X299984819Y-101793809D01*
X299984819Y-101793809D02*
X299984819Y-101555714D01*
X299318152Y-102984285D02*
X299984819Y-102984285D01*
X298937200Y-102746190D02*
X299651485Y-102508095D01*
X299651485Y-102508095D02*
X299651485Y-103127142D01*
X298984819Y-103984285D02*
X298984819Y-103508095D01*
X298984819Y-103508095D02*
X299461009Y-103460476D01*
X299461009Y-103460476D02*
X299413390Y-103508095D01*
X299413390Y-103508095D02*
X299365771Y-103603333D01*
X299365771Y-103603333D02*
X299365771Y-103841428D01*
X299365771Y-103841428D02*
X299413390Y-103936666D01*
X299413390Y-103936666D02*
X299461009Y-103984285D01*
X299461009Y-103984285D02*
X299556247Y-104031904D01*
X299556247Y-104031904D02*
X299794342Y-104031904D01*
X299794342Y-104031904D02*
X299889580Y-103984285D01*
X299889580Y-103984285D02*
X299937200Y-103936666D01*
X299937200Y-103936666D02*
X299984819Y-103841428D01*
X299984819Y-103841428D02*
X299984819Y-103603333D01*
X299984819Y-103603333D02*
X299937200Y-103508095D01*
X299937200Y-103508095D02*
X299889580Y-103460476D01*
X299664819Y-106318095D02*
X298664819Y-106318095D01*
X299664819Y-106889523D02*
X299093390Y-106460952D01*
X298664819Y-106889523D02*
X299236247Y-106318095D01*
X197591069Y-139655714D02*
X196591069Y-139655714D01*
X196591069Y-139655714D02*
X196591069Y-139893809D01*
X196591069Y-139893809D02*
X196638688Y-140036666D01*
X196638688Y-140036666D02*
X196733926Y-140131904D01*
X196733926Y-140131904D02*
X196829164Y-140179523D01*
X196829164Y-140179523D02*
X197019640Y-140227142D01*
X197019640Y-140227142D02*
X197162497Y-140227142D01*
X197162497Y-140227142D02*
X197352973Y-140179523D01*
X197352973Y-140179523D02*
X197448211Y-140131904D01*
X197448211Y-140131904D02*
X197543450Y-140036666D01*
X197543450Y-140036666D02*
X197591069Y-139893809D01*
X197591069Y-139893809D02*
X197591069Y-139655714D01*
X196591069Y-141084285D02*
X196591069Y-140893809D01*
X196591069Y-140893809D02*
X196638688Y-140798571D01*
X196638688Y-140798571D02*
X196686307Y-140750952D01*
X196686307Y-140750952D02*
X196829164Y-140655714D01*
X196829164Y-140655714D02*
X197019640Y-140608095D01*
X197019640Y-140608095D02*
X197400592Y-140608095D01*
X197400592Y-140608095D02*
X197495830Y-140655714D01*
X197495830Y-140655714D02*
X197543450Y-140703333D01*
X197543450Y-140703333D02*
X197591069Y-140798571D01*
X197591069Y-140798571D02*
X197591069Y-140989047D01*
X197591069Y-140989047D02*
X197543450Y-141084285D01*
X197543450Y-141084285D02*
X197495830Y-141131904D01*
X197495830Y-141131904D02*
X197400592Y-141179523D01*
X197400592Y-141179523D02*
X197162497Y-141179523D01*
X197162497Y-141179523D02*
X197067259Y-141131904D01*
X197067259Y-141131904D02*
X197019640Y-141084285D01*
X197019640Y-141084285D02*
X196972021Y-140989047D01*
X196972021Y-140989047D02*
X196972021Y-140798571D01*
X196972021Y-140798571D02*
X197019640Y-140703333D01*
X197019640Y-140703333D02*
X197067259Y-140655714D01*
X197067259Y-140655714D02*
X197162497Y-140608095D01*
X196591069Y-141512857D02*
X196591069Y-142179523D01*
X196591069Y-142179523D02*
X197591069Y-141750952D01*
X197271069Y-144418095D02*
X196271069Y-144418095D01*
X197271069Y-144989523D02*
X196699640Y-144560952D01*
X196271069Y-144989523D02*
X196842497Y-144418095D01*
X285697319Y-63455714D02*
X284697319Y-63455714D01*
X284697319Y-63455714D02*
X284697319Y-63693809D01*
X284697319Y-63693809D02*
X284744938Y-63836666D01*
X284744938Y-63836666D02*
X284840176Y-63931904D01*
X284840176Y-63931904D02*
X284935414Y-63979523D01*
X284935414Y-63979523D02*
X285125890Y-64027142D01*
X285125890Y-64027142D02*
X285268747Y-64027142D01*
X285268747Y-64027142D02*
X285459223Y-63979523D01*
X285459223Y-63979523D02*
X285554461Y-63931904D01*
X285554461Y-63931904D02*
X285649700Y-63836666D01*
X285649700Y-63836666D02*
X285697319Y-63693809D01*
X285697319Y-63693809D02*
X285697319Y-63455714D01*
X285697319Y-64979523D02*
X285697319Y-64408095D01*
X285697319Y-64693809D02*
X284697319Y-64693809D01*
X284697319Y-64693809D02*
X284840176Y-64598571D01*
X284840176Y-64598571D02*
X284935414Y-64503333D01*
X284935414Y-64503333D02*
X284983033Y-64408095D01*
X284697319Y-65312857D02*
X284697319Y-65931904D01*
X284697319Y-65931904D02*
X285078271Y-65598571D01*
X285078271Y-65598571D02*
X285078271Y-65741428D01*
X285078271Y-65741428D02*
X285125890Y-65836666D01*
X285125890Y-65836666D02*
X285173509Y-65884285D01*
X285173509Y-65884285D02*
X285268747Y-65931904D01*
X285268747Y-65931904D02*
X285506842Y-65931904D01*
X285506842Y-65931904D02*
X285602080Y-65884285D01*
X285602080Y-65884285D02*
X285649700Y-65836666D01*
X285649700Y-65836666D02*
X285697319Y-65741428D01*
X285697319Y-65741428D02*
X285697319Y-65455714D01*
X285697319Y-65455714D02*
X285649700Y-65360476D01*
X285649700Y-65360476D02*
X285602080Y-65312857D01*
X285377319Y-68218095D02*
X284377319Y-68218095D01*
X285377319Y-68789523D02*
X284805890Y-68360952D01*
X284377319Y-68789523D02*
X284948747Y-68218095D01*
X361897319Y-139655714D02*
X360897319Y-139655714D01*
X360897319Y-139655714D02*
X360897319Y-139893809D01*
X360897319Y-139893809D02*
X360944938Y-140036666D01*
X360944938Y-140036666D02*
X361040176Y-140131904D01*
X361040176Y-140131904D02*
X361135414Y-140179523D01*
X361135414Y-140179523D02*
X361325890Y-140227142D01*
X361325890Y-140227142D02*
X361468747Y-140227142D01*
X361468747Y-140227142D02*
X361659223Y-140179523D01*
X361659223Y-140179523D02*
X361754461Y-140131904D01*
X361754461Y-140131904D02*
X361849700Y-140036666D01*
X361849700Y-140036666D02*
X361897319Y-139893809D01*
X361897319Y-139893809D02*
X361897319Y-139655714D01*
X360897319Y-140560476D02*
X360897319Y-141227142D01*
X360897319Y-141227142D02*
X361897319Y-140798571D01*
X360897319Y-141512857D02*
X360897319Y-142131904D01*
X360897319Y-142131904D02*
X361278271Y-141798571D01*
X361278271Y-141798571D02*
X361278271Y-141941428D01*
X361278271Y-141941428D02*
X361325890Y-142036666D01*
X361325890Y-142036666D02*
X361373509Y-142084285D01*
X361373509Y-142084285D02*
X361468747Y-142131904D01*
X361468747Y-142131904D02*
X361706842Y-142131904D01*
X361706842Y-142131904D02*
X361802080Y-142084285D01*
X361802080Y-142084285D02*
X361849700Y-142036666D01*
X361849700Y-142036666D02*
X361897319Y-141941428D01*
X361897319Y-141941428D02*
X361897319Y-141655714D01*
X361897319Y-141655714D02*
X361849700Y-141560476D01*
X361849700Y-141560476D02*
X361802080Y-141512857D01*
X361577319Y-144418095D02*
X360577319Y-144418095D01*
X361577319Y-144989523D02*
X361005890Y-144560952D01*
X360577319Y-144989523D02*
X361148747Y-144418095D01*
X166634819Y-101555714D02*
X165634819Y-101555714D01*
X165634819Y-101555714D02*
X165634819Y-101793809D01*
X165634819Y-101793809D02*
X165682438Y-101936666D01*
X165682438Y-101936666D02*
X165777676Y-102031904D01*
X165777676Y-102031904D02*
X165872914Y-102079523D01*
X165872914Y-102079523D02*
X166063390Y-102127142D01*
X166063390Y-102127142D02*
X166206247Y-102127142D01*
X166206247Y-102127142D02*
X166396723Y-102079523D01*
X166396723Y-102079523D02*
X166491961Y-102031904D01*
X166491961Y-102031904D02*
X166587200Y-101936666D01*
X166587200Y-101936666D02*
X166634819Y-101793809D01*
X166634819Y-101793809D02*
X166634819Y-101555714D01*
X165634819Y-102460476D02*
X165634819Y-103079523D01*
X165634819Y-103079523D02*
X166015771Y-102746190D01*
X166015771Y-102746190D02*
X166015771Y-102889047D01*
X166015771Y-102889047D02*
X166063390Y-102984285D01*
X166063390Y-102984285D02*
X166111009Y-103031904D01*
X166111009Y-103031904D02*
X166206247Y-103079523D01*
X166206247Y-103079523D02*
X166444342Y-103079523D01*
X166444342Y-103079523D02*
X166539580Y-103031904D01*
X166539580Y-103031904D02*
X166587200Y-102984285D01*
X166587200Y-102984285D02*
X166634819Y-102889047D01*
X166634819Y-102889047D02*
X166634819Y-102603333D01*
X166634819Y-102603333D02*
X166587200Y-102508095D01*
X166587200Y-102508095D02*
X166539580Y-102460476D01*
X166063390Y-103650952D02*
X166015771Y-103555714D01*
X166015771Y-103555714D02*
X165968152Y-103508095D01*
X165968152Y-103508095D02*
X165872914Y-103460476D01*
X165872914Y-103460476D02*
X165825295Y-103460476D01*
X165825295Y-103460476D02*
X165730057Y-103508095D01*
X165730057Y-103508095D02*
X165682438Y-103555714D01*
X165682438Y-103555714D02*
X165634819Y-103650952D01*
X165634819Y-103650952D02*
X165634819Y-103841428D01*
X165634819Y-103841428D02*
X165682438Y-103936666D01*
X165682438Y-103936666D02*
X165730057Y-103984285D01*
X165730057Y-103984285D02*
X165825295Y-104031904D01*
X165825295Y-104031904D02*
X165872914Y-104031904D01*
X165872914Y-104031904D02*
X165968152Y-103984285D01*
X165968152Y-103984285D02*
X166015771Y-103936666D01*
X166015771Y-103936666D02*
X166063390Y-103841428D01*
X166063390Y-103841428D02*
X166063390Y-103650952D01*
X166063390Y-103650952D02*
X166111009Y-103555714D01*
X166111009Y-103555714D02*
X166158628Y-103508095D01*
X166158628Y-103508095D02*
X166253866Y-103460476D01*
X166253866Y-103460476D02*
X166444342Y-103460476D01*
X166444342Y-103460476D02*
X166539580Y-103508095D01*
X166539580Y-103508095D02*
X166587200Y-103555714D01*
X166587200Y-103555714D02*
X166634819Y-103650952D01*
X166634819Y-103650952D02*
X166634819Y-103841428D01*
X166634819Y-103841428D02*
X166587200Y-103936666D01*
X166587200Y-103936666D02*
X166539580Y-103984285D01*
X166539580Y-103984285D02*
X166444342Y-104031904D01*
X166444342Y-104031904D02*
X166253866Y-104031904D01*
X166253866Y-104031904D02*
X166158628Y-103984285D01*
X166158628Y-103984285D02*
X166111009Y-103936666D01*
X166111009Y-103936666D02*
X166063390Y-103841428D01*
X166314819Y-106318095D02*
X165314819Y-106318095D01*
X166314819Y-106889523D02*
X165743390Y-106460952D01*
X165314819Y-106889523D02*
X165886247Y-106318095D01*
X304747319Y-139655714D02*
X303747319Y-139655714D01*
X303747319Y-139655714D02*
X303747319Y-139893809D01*
X303747319Y-139893809D02*
X303794938Y-140036666D01*
X303794938Y-140036666D02*
X303890176Y-140131904D01*
X303890176Y-140131904D02*
X303985414Y-140179523D01*
X303985414Y-140179523D02*
X304175890Y-140227142D01*
X304175890Y-140227142D02*
X304318747Y-140227142D01*
X304318747Y-140227142D02*
X304509223Y-140179523D01*
X304509223Y-140179523D02*
X304604461Y-140131904D01*
X304604461Y-140131904D02*
X304699700Y-140036666D01*
X304699700Y-140036666D02*
X304747319Y-139893809D01*
X304747319Y-139893809D02*
X304747319Y-139655714D01*
X303747319Y-140560476D02*
X303747319Y-141227142D01*
X303747319Y-141227142D02*
X304747319Y-140798571D01*
X303747319Y-141798571D02*
X303747319Y-141893809D01*
X303747319Y-141893809D02*
X303794938Y-141989047D01*
X303794938Y-141989047D02*
X303842557Y-142036666D01*
X303842557Y-142036666D02*
X303937795Y-142084285D01*
X303937795Y-142084285D02*
X304128271Y-142131904D01*
X304128271Y-142131904D02*
X304366366Y-142131904D01*
X304366366Y-142131904D02*
X304556842Y-142084285D01*
X304556842Y-142084285D02*
X304652080Y-142036666D01*
X304652080Y-142036666D02*
X304699700Y-141989047D01*
X304699700Y-141989047D02*
X304747319Y-141893809D01*
X304747319Y-141893809D02*
X304747319Y-141798571D01*
X304747319Y-141798571D02*
X304699700Y-141703333D01*
X304699700Y-141703333D02*
X304652080Y-141655714D01*
X304652080Y-141655714D02*
X304556842Y-141608095D01*
X304556842Y-141608095D02*
X304366366Y-141560476D01*
X304366366Y-141560476D02*
X304128271Y-141560476D01*
X304128271Y-141560476D02*
X303937795Y-141608095D01*
X303937795Y-141608095D02*
X303842557Y-141655714D01*
X303842557Y-141655714D02*
X303794938Y-141703333D01*
X303794938Y-141703333D02*
X303747319Y-141798571D01*
X304427319Y-144418095D02*
X303427319Y-144418095D01*
X304427319Y-144989523D02*
X303855890Y-144560952D01*
X303427319Y-144989523D02*
X303998747Y-144418095D01*
X314272319Y-82505714D02*
X313272319Y-82505714D01*
X313272319Y-82505714D02*
X313272319Y-82743809D01*
X313272319Y-82743809D02*
X313319938Y-82886666D01*
X313319938Y-82886666D02*
X313415176Y-82981904D01*
X313415176Y-82981904D02*
X313510414Y-83029523D01*
X313510414Y-83029523D02*
X313700890Y-83077142D01*
X313700890Y-83077142D02*
X313843747Y-83077142D01*
X313843747Y-83077142D02*
X314034223Y-83029523D01*
X314034223Y-83029523D02*
X314129461Y-82981904D01*
X314129461Y-82981904D02*
X314224700Y-82886666D01*
X314224700Y-82886666D02*
X314272319Y-82743809D01*
X314272319Y-82743809D02*
X314272319Y-82505714D01*
X313272319Y-83410476D02*
X313272319Y-84029523D01*
X313272319Y-84029523D02*
X313653271Y-83696190D01*
X313653271Y-83696190D02*
X313653271Y-83839047D01*
X313653271Y-83839047D02*
X313700890Y-83934285D01*
X313700890Y-83934285D02*
X313748509Y-83981904D01*
X313748509Y-83981904D02*
X313843747Y-84029523D01*
X313843747Y-84029523D02*
X314081842Y-84029523D01*
X314081842Y-84029523D02*
X314177080Y-83981904D01*
X314177080Y-83981904D02*
X314224700Y-83934285D01*
X314224700Y-83934285D02*
X314272319Y-83839047D01*
X314272319Y-83839047D02*
X314272319Y-83553333D01*
X314272319Y-83553333D02*
X314224700Y-83458095D01*
X314224700Y-83458095D02*
X314177080Y-83410476D01*
X313272319Y-84648571D02*
X313272319Y-84743809D01*
X313272319Y-84743809D02*
X313319938Y-84839047D01*
X313319938Y-84839047D02*
X313367557Y-84886666D01*
X313367557Y-84886666D02*
X313462795Y-84934285D01*
X313462795Y-84934285D02*
X313653271Y-84981904D01*
X313653271Y-84981904D02*
X313891366Y-84981904D01*
X313891366Y-84981904D02*
X314081842Y-84934285D01*
X314081842Y-84934285D02*
X314177080Y-84886666D01*
X314177080Y-84886666D02*
X314224700Y-84839047D01*
X314224700Y-84839047D02*
X314272319Y-84743809D01*
X314272319Y-84743809D02*
X314272319Y-84648571D01*
X314272319Y-84648571D02*
X314224700Y-84553333D01*
X314224700Y-84553333D02*
X314177080Y-84505714D01*
X314177080Y-84505714D02*
X314081842Y-84458095D01*
X314081842Y-84458095D02*
X313891366Y-84410476D01*
X313891366Y-84410476D02*
X313653271Y-84410476D01*
X313653271Y-84410476D02*
X313462795Y-84458095D01*
X313462795Y-84458095D02*
X313367557Y-84505714D01*
X313367557Y-84505714D02*
X313319938Y-84553333D01*
X313319938Y-84553333D02*
X313272319Y-84648571D01*
X313952319Y-87268095D02*
X312952319Y-87268095D01*
X313952319Y-87839523D02*
X313380890Y-87410952D01*
X312952319Y-87839523D02*
X313523747Y-87268095D01*
X104722319Y-82505714D02*
X103722319Y-82505714D01*
X103722319Y-82505714D02*
X103722319Y-82743809D01*
X103722319Y-82743809D02*
X103769938Y-82886666D01*
X103769938Y-82886666D02*
X103865176Y-82981904D01*
X103865176Y-82981904D02*
X103960414Y-83029523D01*
X103960414Y-83029523D02*
X104150890Y-83077142D01*
X104150890Y-83077142D02*
X104293747Y-83077142D01*
X104293747Y-83077142D02*
X104484223Y-83029523D01*
X104484223Y-83029523D02*
X104579461Y-82981904D01*
X104579461Y-82981904D02*
X104674700Y-82886666D01*
X104674700Y-82886666D02*
X104722319Y-82743809D01*
X104722319Y-82743809D02*
X104722319Y-82505714D01*
X104722319Y-84029523D02*
X104722319Y-83458095D01*
X104722319Y-83743809D02*
X103722319Y-83743809D01*
X103722319Y-83743809D02*
X103865176Y-83648571D01*
X103865176Y-83648571D02*
X103960414Y-83553333D01*
X103960414Y-83553333D02*
X104008033Y-83458095D01*
X104722319Y-84505714D02*
X104722319Y-84696190D01*
X104722319Y-84696190D02*
X104674700Y-84791428D01*
X104674700Y-84791428D02*
X104627080Y-84839047D01*
X104627080Y-84839047D02*
X104484223Y-84934285D01*
X104484223Y-84934285D02*
X104293747Y-84981904D01*
X104293747Y-84981904D02*
X103912795Y-84981904D01*
X103912795Y-84981904D02*
X103817557Y-84934285D01*
X103817557Y-84934285D02*
X103769938Y-84886666D01*
X103769938Y-84886666D02*
X103722319Y-84791428D01*
X103722319Y-84791428D02*
X103722319Y-84600952D01*
X103722319Y-84600952D02*
X103769938Y-84505714D01*
X103769938Y-84505714D02*
X103817557Y-84458095D01*
X103817557Y-84458095D02*
X103912795Y-84410476D01*
X103912795Y-84410476D02*
X104150890Y-84410476D01*
X104150890Y-84410476D02*
X104246128Y-84458095D01*
X104246128Y-84458095D02*
X104293747Y-84505714D01*
X104293747Y-84505714D02*
X104341366Y-84600952D01*
X104341366Y-84600952D02*
X104341366Y-84791428D01*
X104341366Y-84791428D02*
X104293747Y-84886666D01*
X104293747Y-84886666D02*
X104246128Y-84934285D01*
X104246128Y-84934285D02*
X104150890Y-84981904D01*
X104402319Y-87268095D02*
X103402319Y-87268095D01*
X104402319Y-87839523D02*
X103830890Y-87410952D01*
X103402319Y-87839523D02*
X103973747Y-87268095D01*
X271409819Y-120605714D02*
X270409819Y-120605714D01*
X270409819Y-120605714D02*
X270409819Y-120843809D01*
X270409819Y-120843809D02*
X270457438Y-120986666D01*
X270457438Y-120986666D02*
X270552676Y-121081904D01*
X270552676Y-121081904D02*
X270647914Y-121129523D01*
X270647914Y-121129523D02*
X270838390Y-121177142D01*
X270838390Y-121177142D02*
X270981247Y-121177142D01*
X270981247Y-121177142D02*
X271171723Y-121129523D01*
X271171723Y-121129523D02*
X271266961Y-121081904D01*
X271266961Y-121081904D02*
X271362200Y-120986666D01*
X271362200Y-120986666D02*
X271409819Y-120843809D01*
X271409819Y-120843809D02*
X271409819Y-120605714D01*
X270409819Y-122081904D02*
X270409819Y-121605714D01*
X270409819Y-121605714D02*
X270886009Y-121558095D01*
X270886009Y-121558095D02*
X270838390Y-121605714D01*
X270838390Y-121605714D02*
X270790771Y-121700952D01*
X270790771Y-121700952D02*
X270790771Y-121939047D01*
X270790771Y-121939047D02*
X270838390Y-122034285D01*
X270838390Y-122034285D02*
X270886009Y-122081904D01*
X270886009Y-122081904D02*
X270981247Y-122129523D01*
X270981247Y-122129523D02*
X271219342Y-122129523D01*
X271219342Y-122129523D02*
X271314580Y-122081904D01*
X271314580Y-122081904D02*
X271362200Y-122034285D01*
X271362200Y-122034285D02*
X271409819Y-121939047D01*
X271409819Y-121939047D02*
X271409819Y-121700952D01*
X271409819Y-121700952D02*
X271362200Y-121605714D01*
X271362200Y-121605714D02*
X271314580Y-121558095D01*
X270838390Y-122700952D02*
X270790771Y-122605714D01*
X270790771Y-122605714D02*
X270743152Y-122558095D01*
X270743152Y-122558095D02*
X270647914Y-122510476D01*
X270647914Y-122510476D02*
X270600295Y-122510476D01*
X270600295Y-122510476D02*
X270505057Y-122558095D01*
X270505057Y-122558095D02*
X270457438Y-122605714D01*
X270457438Y-122605714D02*
X270409819Y-122700952D01*
X270409819Y-122700952D02*
X270409819Y-122891428D01*
X270409819Y-122891428D02*
X270457438Y-122986666D01*
X270457438Y-122986666D02*
X270505057Y-123034285D01*
X270505057Y-123034285D02*
X270600295Y-123081904D01*
X270600295Y-123081904D02*
X270647914Y-123081904D01*
X270647914Y-123081904D02*
X270743152Y-123034285D01*
X270743152Y-123034285D02*
X270790771Y-122986666D01*
X270790771Y-122986666D02*
X270838390Y-122891428D01*
X270838390Y-122891428D02*
X270838390Y-122700952D01*
X270838390Y-122700952D02*
X270886009Y-122605714D01*
X270886009Y-122605714D02*
X270933628Y-122558095D01*
X270933628Y-122558095D02*
X271028866Y-122510476D01*
X271028866Y-122510476D02*
X271219342Y-122510476D01*
X271219342Y-122510476D02*
X271314580Y-122558095D01*
X271314580Y-122558095D02*
X271362200Y-122605714D01*
X271362200Y-122605714D02*
X271409819Y-122700952D01*
X271409819Y-122700952D02*
X271409819Y-122891428D01*
X271409819Y-122891428D02*
X271362200Y-122986666D01*
X271362200Y-122986666D02*
X271314580Y-123034285D01*
X271314580Y-123034285D02*
X271219342Y-123081904D01*
X271219342Y-123081904D02*
X271028866Y-123081904D01*
X271028866Y-123081904D02*
X270933628Y-123034285D01*
X270933628Y-123034285D02*
X270886009Y-122986666D01*
X270886009Y-122986666D02*
X270838390Y-122891428D01*
X271089819Y-125368095D02*
X270089819Y-125368095D01*
X271089819Y-125939523D02*
X270518390Y-125510952D01*
X270089819Y-125939523D02*
X270661247Y-125368095D01*
%TO.C,D31*%
D11*
X335510000Y-80950000D02*
X335510000Y-81600000D01*
X335510000Y-86490000D02*
X335510000Y-85840000D01*
X336630000Y-85000000D02*
X334390000Y-85000000D01*
X336630000Y-85120000D02*
X334390000Y-85120000D01*
X336630000Y-85240000D02*
X334390000Y-85240000D01*
X334390000Y-81600000D02*
X336630000Y-81600000D01*
X336630000Y-85840000D01*
X334390000Y-85840000D01*
X334390000Y-81600000D01*
%TO.C,D12*%
X264072500Y-61900000D02*
X264072500Y-62550000D01*
X264072500Y-67440000D02*
X264072500Y-66790000D01*
X265192500Y-65950000D02*
X262952500Y-65950000D01*
X265192500Y-66070000D02*
X262952500Y-66070000D01*
X265192500Y-66190000D02*
X262952500Y-66190000D01*
X262952500Y-62550000D02*
X265192500Y-62550000D01*
X265192500Y-66790000D01*
X262952500Y-66790000D01*
X262952500Y-62550000D01*
%TO.C,D28*%
X273597500Y-80950000D02*
X273597500Y-81600000D01*
X273597500Y-86490000D02*
X273597500Y-85840000D01*
X274717500Y-85000000D02*
X272477500Y-85000000D01*
X274717500Y-85120000D02*
X272477500Y-85120000D01*
X274717500Y-85240000D02*
X272477500Y-85240000D01*
X272477500Y-81600000D02*
X274717500Y-81600000D01*
X274717500Y-85840000D01*
X272477500Y-85840000D01*
X272477500Y-81600000D01*
%TO.C,D48*%
X49760000Y-119050000D02*
X49760000Y-119700000D01*
X49760000Y-124590000D02*
X49760000Y-123940000D01*
X50880000Y-123100000D02*
X48640000Y-123100000D01*
X50880000Y-123220000D02*
X48640000Y-123220000D01*
X50880000Y-123340000D02*
X48640000Y-123340000D01*
X48640000Y-119700000D02*
X50880000Y-119700000D01*
X50880000Y-123940000D01*
X48640000Y-123940000D01*
X48640000Y-119700000D01*
%TO.C,D66*%
X123578750Y-138100000D02*
X123578750Y-138750000D01*
X123578750Y-143640000D02*
X123578750Y-142990000D01*
X124698750Y-142150000D02*
X122458750Y-142150000D01*
X124698750Y-142270000D02*
X122458750Y-142270000D01*
X124698750Y-142390000D02*
X122458750Y-142390000D01*
X122458750Y-138750000D02*
X124698750Y-138750000D01*
X124698750Y-142990000D01*
X122458750Y-142990000D01*
X122458750Y-138750000D01*
%TO.C,D53*%
X173585000Y-119050000D02*
X173585000Y-119700000D01*
X173585000Y-124590000D02*
X173585000Y-123940000D01*
X174705000Y-123100000D02*
X172465000Y-123100000D01*
X174705000Y-123220000D02*
X172465000Y-123220000D01*
X174705000Y-123340000D02*
X172465000Y-123340000D01*
X172465000Y-119700000D02*
X174705000Y-119700000D01*
X174705000Y-123940000D01*
X172465000Y-123940000D01*
X172465000Y-119700000D01*
%TO.C,D36*%
X125960000Y-100000000D02*
X125960000Y-100650000D01*
X125960000Y-105540000D02*
X125960000Y-104890000D01*
X127080000Y-104050000D02*
X124840000Y-104050000D01*
X127080000Y-104170000D02*
X124840000Y-104170000D01*
X127080000Y-104290000D02*
X124840000Y-104290000D01*
X124840000Y-100650000D02*
X127080000Y-100650000D01*
X127080000Y-104890000D01*
X124840000Y-104890000D01*
X124840000Y-100650000D01*
%TO.C,D71*%
X321222500Y-138100000D02*
X321222500Y-138750000D01*
X321222500Y-143640000D02*
X321222500Y-142990000D01*
X322342500Y-142150000D02*
X320102500Y-142150000D01*
X322342500Y-142270000D02*
X320102500Y-142270000D01*
X322342500Y-142390000D02*
X320102500Y-142390000D01*
X320102500Y-138750000D02*
X322342500Y-138750000D01*
X322342500Y-142990000D01*
X320102500Y-142990000D01*
X320102500Y-138750000D01*
%TO.C,D57*%
X249785000Y-119050000D02*
X249785000Y-119700000D01*
X249785000Y-124590000D02*
X249785000Y-123940000D01*
X250905000Y-123100000D02*
X248665000Y-123100000D01*
X250905000Y-123220000D02*
X248665000Y-123220000D01*
X250905000Y-123340000D02*
X248665000Y-123340000D01*
X248665000Y-119700000D02*
X250905000Y-119700000D01*
X250905000Y-123940000D01*
X248665000Y-123940000D01*
X248665000Y-119700000D01*
%TO.C,D68*%
X264072500Y-138100000D02*
X264072500Y-138750000D01*
X264072500Y-143640000D02*
X264072500Y-142990000D01*
X265192500Y-142150000D02*
X262952500Y-142150000D01*
X265192500Y-142270000D02*
X262952500Y-142270000D01*
X265192500Y-142390000D02*
X262952500Y-142390000D01*
X262952500Y-138750000D02*
X265192500Y-138750000D01*
X265192500Y-142990000D01*
X262952500Y-142990000D01*
X262952500Y-138750000D01*
%TO.C,D43*%
X259310000Y-100000000D02*
X259310000Y-100650000D01*
X259310000Y-105540000D02*
X259310000Y-104890000D01*
X260430000Y-104050000D02*
X258190000Y-104050000D01*
X260430000Y-104170000D02*
X258190000Y-104170000D01*
X260430000Y-104290000D02*
X258190000Y-104290000D01*
X258190000Y-100650000D02*
X260430000Y-100650000D01*
X260430000Y-104890000D01*
X258190000Y-104890000D01*
X258190000Y-100650000D01*
%TO.C,D49*%
X85478750Y-119050000D02*
X85478750Y-119700000D01*
X85478750Y-124590000D02*
X85478750Y-123940000D01*
X86598750Y-123100000D02*
X84358750Y-123100000D01*
X86598750Y-123220000D02*
X84358750Y-123220000D01*
X86598750Y-123340000D02*
X84358750Y-123340000D01*
X84358750Y-119700000D02*
X86598750Y-119700000D01*
X86598750Y-123940000D01*
X84358750Y-123940000D01*
X84358750Y-119700000D01*
%TO.C,D42*%
X240260000Y-100000000D02*
X240260000Y-100650000D01*
X240260000Y-105540000D02*
X240260000Y-104890000D01*
X241380000Y-104050000D02*
X239140000Y-104050000D01*
X241380000Y-104170000D02*
X239140000Y-104170000D01*
X241380000Y-104290000D02*
X239140000Y-104290000D01*
X239140000Y-100650000D02*
X241380000Y-100650000D01*
X241380000Y-104890000D01*
X239140000Y-104890000D01*
X239140000Y-100650000D01*
%TO.C,D21*%
X140247500Y-80950000D02*
X140247500Y-81600000D01*
X140247500Y-86490000D02*
X140247500Y-85840000D01*
X141367500Y-85000000D02*
X139127500Y-85000000D01*
X141367500Y-85120000D02*
X139127500Y-85120000D01*
X141367500Y-85240000D02*
X139127500Y-85240000D01*
X139127500Y-81600000D02*
X141367500Y-81600000D01*
X141367500Y-85840000D01*
X139127500Y-85840000D01*
X139127500Y-81600000D01*
%TO.C,D65*%
X99766250Y-138100000D02*
X99766250Y-138750000D01*
X99766250Y-143640000D02*
X99766250Y-142990000D01*
X100886250Y-142150000D02*
X98646250Y-142150000D01*
X100886250Y-142270000D02*
X98646250Y-142270000D01*
X100886250Y-142390000D02*
X98646250Y-142390000D01*
X98646250Y-138750000D02*
X100886250Y-138750000D01*
X100886250Y-142990000D01*
X98646250Y-142990000D01*
X98646250Y-138750000D01*
%TO.C,D69*%
X283122500Y-138100000D02*
X283122500Y-138750000D01*
X283122500Y-143640000D02*
X283122500Y-142990000D01*
X284242500Y-142150000D02*
X282002500Y-142150000D01*
X284242500Y-142270000D02*
X282002500Y-142270000D01*
X284242500Y-142390000D02*
X282002500Y-142390000D01*
X282002500Y-138750000D02*
X284242500Y-138750000D01*
X284242500Y-142990000D01*
X282002500Y-142990000D01*
X282002500Y-138750000D01*
%TO.C,D27*%
X254547500Y-80950000D02*
X254547500Y-81600000D01*
X254547500Y-86490000D02*
X254547500Y-85840000D01*
X255667500Y-85000000D02*
X253427500Y-85000000D01*
X255667500Y-85120000D02*
X253427500Y-85120000D01*
X255667500Y-85240000D02*
X253427500Y-85240000D01*
X253427500Y-81600000D02*
X255667500Y-81600000D01*
X255667500Y-85840000D01*
X253427500Y-85840000D01*
X253427500Y-81600000D01*
%TO.C,D9*%
X206922500Y-61900000D02*
X206922500Y-62550000D01*
X206922500Y-67440000D02*
X206922500Y-66790000D01*
X208042500Y-65950000D02*
X205802500Y-65950000D01*
X208042500Y-66070000D02*
X205802500Y-66070000D01*
X208042500Y-66190000D02*
X205802500Y-66190000D01*
X205802500Y-62550000D02*
X208042500Y-62550000D01*
X208042500Y-66790000D01*
X205802500Y-66790000D01*
X205802500Y-62550000D01*
%TO.C,D51*%
X135485000Y-119050000D02*
X135485000Y-119700000D01*
X135485000Y-124590000D02*
X135485000Y-123940000D01*
X136605000Y-123100000D02*
X134365000Y-123100000D01*
X136605000Y-123220000D02*
X134365000Y-123220000D01*
X136605000Y-123340000D02*
X134365000Y-123340000D01*
X134365000Y-119700000D02*
X136605000Y-119700000D01*
X136605000Y-123940000D01*
X134365000Y-123940000D01*
X134365000Y-119700000D01*
%TO.C,D50*%
X116435000Y-119050000D02*
X116435000Y-119700000D01*
X116435000Y-124590000D02*
X116435000Y-123940000D01*
X117555000Y-123100000D02*
X115315000Y-123100000D01*
X117555000Y-123220000D02*
X115315000Y-123220000D01*
X117555000Y-123340000D02*
X115315000Y-123340000D01*
X115315000Y-119700000D02*
X117555000Y-119700000D01*
X117555000Y-123940000D01*
X115315000Y-123940000D01*
X115315000Y-119700000D01*
%TO.C,D26*%
X235497500Y-80950000D02*
X235497500Y-81600000D01*
X235497500Y-86490000D02*
X235497500Y-85840000D01*
X236617500Y-85000000D02*
X234377500Y-85000000D01*
X236617500Y-85120000D02*
X234377500Y-85120000D01*
X236617500Y-85240000D02*
X234377500Y-85240000D01*
X234377500Y-81600000D02*
X236617500Y-81600000D01*
X236617500Y-85840000D01*
X234377500Y-85840000D01*
X234377500Y-81600000D01*
%TO.C,D3*%
X92622500Y-61900000D02*
X92622500Y-62550000D01*
X92622500Y-67440000D02*
X92622500Y-66790000D01*
X93742500Y-65950000D02*
X91502500Y-65950000D01*
X93742500Y-66070000D02*
X91502500Y-66070000D01*
X93742500Y-66190000D02*
X91502500Y-66190000D01*
X91502500Y-62550000D02*
X93742500Y-62550000D01*
X93742500Y-66790000D01*
X91502500Y-66790000D01*
X91502500Y-62550000D01*
%TO.C,D6*%
X149772500Y-61900000D02*
X149772500Y-62550000D01*
X149772500Y-67440000D02*
X149772500Y-66790000D01*
X150892500Y-65950000D02*
X148652500Y-65950000D01*
X150892500Y-66070000D02*
X148652500Y-66070000D01*
X150892500Y-66190000D02*
X148652500Y-66190000D01*
X148652500Y-62550000D02*
X150892500Y-62550000D01*
X150892500Y-66790000D01*
X148652500Y-66790000D01*
X148652500Y-62550000D01*
%TO.C,D55*%
X211685000Y-119050000D02*
X211685000Y-119700000D01*
X211685000Y-124590000D02*
X211685000Y-123940000D01*
X212805000Y-123100000D02*
X210565000Y-123100000D01*
X212805000Y-123220000D02*
X210565000Y-123220000D01*
X212805000Y-123340000D02*
X210565000Y-123340000D01*
X210565000Y-119700000D02*
X212805000Y-119700000D01*
X212805000Y-123940000D01*
X210565000Y-123940000D01*
X210565000Y-119700000D01*
%TO.C,D41*%
X221210000Y-100000000D02*
X221210000Y-100650000D01*
X221210000Y-105540000D02*
X221210000Y-104890000D01*
X222330000Y-104050000D02*
X220090000Y-104050000D01*
X222330000Y-104170000D02*
X220090000Y-104170000D01*
X222330000Y-104290000D02*
X220090000Y-104290000D01*
X220090000Y-100650000D02*
X222330000Y-100650000D01*
X222330000Y-104890000D01*
X220090000Y-104890000D01*
X220090000Y-100650000D01*
%TO.C,D35*%
X106910000Y-100000000D02*
X106910000Y-100650000D01*
X106910000Y-105540000D02*
X106910000Y-104890000D01*
X108030000Y-104050000D02*
X105790000Y-104050000D01*
X108030000Y-104170000D02*
X105790000Y-104170000D01*
X108030000Y-104290000D02*
X105790000Y-104290000D01*
X105790000Y-100650000D02*
X108030000Y-100650000D01*
X108030000Y-104890000D01*
X105790000Y-104890000D01*
X105790000Y-100650000D01*
%TO.C,D44*%
X278360000Y-100000000D02*
X278360000Y-100650000D01*
X278360000Y-105540000D02*
X278360000Y-104890000D01*
X279480000Y-104050000D02*
X277240000Y-104050000D01*
X279480000Y-104170000D02*
X277240000Y-104170000D01*
X279480000Y-104290000D02*
X277240000Y-104290000D01*
X277240000Y-100650000D02*
X279480000Y-100650000D01*
X279480000Y-104890000D01*
X277240000Y-104890000D01*
X277240000Y-100650000D01*
%TO.C,D56*%
X230735000Y-119050000D02*
X230735000Y-119700000D01*
X230735000Y-124590000D02*
X230735000Y-123940000D01*
X231855000Y-123100000D02*
X229615000Y-123100000D01*
X231855000Y-123220000D02*
X229615000Y-123220000D01*
X231855000Y-123340000D02*
X229615000Y-123340000D01*
X229615000Y-119700000D02*
X231855000Y-119700000D01*
X231855000Y-123940000D01*
X229615000Y-123940000D01*
X229615000Y-119700000D01*
%TO.C,D54*%
X192635000Y-119050000D02*
X192635000Y-119700000D01*
X192635000Y-124590000D02*
X192635000Y-123940000D01*
X193755000Y-123100000D02*
X191515000Y-123100000D01*
X193755000Y-123220000D02*
X191515000Y-123220000D01*
X193755000Y-123340000D02*
X191515000Y-123340000D01*
X191515000Y-119700000D02*
X193755000Y-119700000D01*
X193755000Y-123940000D01*
X191515000Y-123940000D01*
X191515000Y-119700000D01*
%TO.C,D22*%
X159297500Y-80950000D02*
X159297500Y-81600000D01*
X159297500Y-86490000D02*
X159297500Y-85840000D01*
X160417500Y-85000000D02*
X158177500Y-85000000D01*
X160417500Y-85120000D02*
X158177500Y-85120000D01*
X160417500Y-85240000D02*
X158177500Y-85240000D01*
X158177500Y-81600000D02*
X160417500Y-81600000D01*
X160417500Y-85840000D01*
X158177500Y-85840000D01*
X158177500Y-81600000D01*
%TO.C,D72*%
X340272500Y-138100000D02*
X340272500Y-138750000D01*
X340272500Y-143640000D02*
X340272500Y-142990000D01*
X341392500Y-142150000D02*
X339152500Y-142150000D01*
X341392500Y-142270000D02*
X339152500Y-142270000D01*
X341392500Y-142390000D02*
X339152500Y-142390000D01*
X339152500Y-138750000D02*
X341392500Y-138750000D01*
X341392500Y-142990000D01*
X339152500Y-142990000D01*
X339152500Y-138750000D01*
%TO.C,D2*%
X73572500Y-61900000D02*
X73572500Y-62550000D01*
X73572500Y-67440000D02*
X73572500Y-66790000D01*
X74692500Y-65950000D02*
X72452500Y-65950000D01*
X74692500Y-66070000D02*
X72452500Y-66070000D01*
X74692500Y-66190000D02*
X72452500Y-66190000D01*
X72452500Y-62550000D02*
X74692500Y-62550000D01*
X74692500Y-66790000D01*
X72452500Y-66790000D01*
X72452500Y-62550000D01*
%TO.C,D47*%
X359322500Y-100000000D02*
X359322500Y-100650000D01*
X359322500Y-105540000D02*
X359322500Y-104890000D01*
X360442500Y-104050000D02*
X358202500Y-104050000D01*
X360442500Y-104170000D02*
X358202500Y-104170000D01*
X360442500Y-104290000D02*
X358202500Y-104290000D01*
X358202500Y-100650000D02*
X360442500Y-100650000D01*
X360442500Y-104890000D01*
X358202500Y-104890000D01*
X358202500Y-100650000D01*
%TO.C,D15*%
X330747500Y-61900000D02*
X330747500Y-62550000D01*
X330747500Y-67440000D02*
X330747500Y-66790000D01*
X331867500Y-65950000D02*
X329627500Y-65950000D01*
X331867500Y-66070000D02*
X329627500Y-66070000D01*
X331867500Y-66190000D02*
X329627500Y-66190000D01*
X329627500Y-62550000D02*
X331867500Y-62550000D01*
X331867500Y-66790000D01*
X329627500Y-66790000D01*
X329627500Y-62550000D01*
%TO.C,D60*%
X314078750Y-119050000D02*
X314078750Y-119700000D01*
X314078750Y-124590000D02*
X314078750Y-123940000D01*
X315198750Y-123100000D02*
X312958750Y-123100000D01*
X315198750Y-123220000D02*
X312958750Y-123220000D01*
X315198750Y-123340000D02*
X312958750Y-123340000D01*
X312958750Y-119700000D02*
X315198750Y-119700000D01*
X315198750Y-123940000D01*
X312958750Y-123940000D01*
X312958750Y-119700000D01*
%TO.C,D1*%
X49760000Y-61900000D02*
X49760000Y-62550000D01*
X49760000Y-67440000D02*
X49760000Y-66790000D01*
X50880000Y-65950000D02*
X48640000Y-65950000D01*
X50880000Y-66070000D02*
X48640000Y-66070000D01*
X50880000Y-66190000D02*
X48640000Y-66190000D01*
X48640000Y-62550000D02*
X50880000Y-62550000D01*
X50880000Y-66790000D01*
X48640000Y-66790000D01*
X48640000Y-62550000D01*
%TO.C,D16*%
X359322500Y-61900000D02*
X359322500Y-62550000D01*
X359322500Y-67440000D02*
X359322500Y-66790000D01*
X360442500Y-65950000D02*
X358202500Y-65950000D01*
X360442500Y-66070000D02*
X358202500Y-66070000D01*
X360442500Y-66190000D02*
X358202500Y-66190000D01*
X358202500Y-62550000D02*
X360442500Y-62550000D01*
X360442500Y-66790000D01*
X358202500Y-66790000D01*
X358202500Y-62550000D01*
%TO.C,D52*%
X154535000Y-119050000D02*
X154535000Y-119700000D01*
X154535000Y-124590000D02*
X154535000Y-123940000D01*
X155655000Y-123100000D02*
X153415000Y-123100000D01*
X155655000Y-123220000D02*
X153415000Y-123220000D01*
X155655000Y-123340000D02*
X153415000Y-123340000D01*
X153415000Y-119700000D02*
X155655000Y-119700000D01*
X155655000Y-123940000D01*
X153415000Y-123940000D01*
X153415000Y-119700000D01*
%TO.C,D8*%
X187872500Y-61900000D02*
X187872500Y-62550000D01*
X187872500Y-67440000D02*
X187872500Y-66790000D01*
X188992500Y-65950000D02*
X186752500Y-65950000D01*
X188992500Y-66070000D02*
X186752500Y-66070000D01*
X188992500Y-66190000D02*
X186752500Y-66190000D01*
X186752500Y-62550000D02*
X188992500Y-62550000D01*
X188992500Y-66790000D01*
X186752500Y-66790000D01*
X186752500Y-62550000D01*
%TO.C,D18*%
X78335000Y-80950000D02*
X78335000Y-81600000D01*
X78335000Y-86490000D02*
X78335000Y-85840000D01*
X79455000Y-85000000D02*
X77215000Y-85000000D01*
X79455000Y-85120000D02*
X77215000Y-85120000D01*
X79455000Y-85240000D02*
X77215000Y-85240000D01*
X77215000Y-81600000D02*
X79455000Y-81600000D01*
X79455000Y-85840000D01*
X77215000Y-85840000D01*
X77215000Y-81600000D01*
%TO.C,D34*%
X80716250Y-100000000D02*
X80716250Y-100650000D01*
X80716250Y-105540000D02*
X80716250Y-104890000D01*
X81836250Y-104050000D02*
X79596250Y-104050000D01*
X81836250Y-104170000D02*
X79596250Y-104170000D01*
X81836250Y-104290000D02*
X79596250Y-104290000D01*
X79596250Y-100650000D02*
X81836250Y-100650000D01*
X81836250Y-104890000D01*
X79596250Y-104890000D01*
X79596250Y-100650000D01*
%TO.C,D39*%
X183110000Y-100000000D02*
X183110000Y-100650000D01*
X183110000Y-105540000D02*
X183110000Y-104890000D01*
X184230000Y-104050000D02*
X181990000Y-104050000D01*
X184230000Y-104170000D02*
X181990000Y-104170000D01*
X184230000Y-104290000D02*
X181990000Y-104290000D01*
X181990000Y-100650000D02*
X184230000Y-100650000D01*
X184230000Y-104890000D01*
X181990000Y-104890000D01*
X181990000Y-100650000D01*
%TO.C,D37*%
X145010000Y-100000000D02*
X145010000Y-100650000D01*
X145010000Y-105540000D02*
X145010000Y-104890000D01*
X146130000Y-104050000D02*
X143890000Y-104050000D01*
X146130000Y-104170000D02*
X143890000Y-104170000D01*
X146130000Y-104290000D02*
X143890000Y-104290000D01*
X143890000Y-100650000D02*
X146130000Y-100650000D01*
X146130000Y-104890000D01*
X143890000Y-104890000D01*
X143890000Y-100650000D01*
%TO.C,D20*%
X121197500Y-80950000D02*
X121197500Y-81600000D01*
X121197500Y-86490000D02*
X121197500Y-85840000D01*
X122317500Y-85000000D02*
X120077500Y-85000000D01*
X122317500Y-85120000D02*
X120077500Y-85120000D01*
X122317500Y-85240000D02*
X120077500Y-85240000D01*
X120077500Y-81600000D02*
X122317500Y-81600000D01*
X122317500Y-85840000D01*
X120077500Y-85840000D01*
X120077500Y-81600000D01*
%TO.C,D25*%
X216447500Y-80950000D02*
X216447500Y-81600000D01*
X216447500Y-86490000D02*
X216447500Y-85840000D01*
X217567500Y-85000000D02*
X215327500Y-85000000D01*
X217567500Y-85120000D02*
X215327500Y-85120000D01*
X217567500Y-85240000D02*
X215327500Y-85240000D01*
X215327500Y-81600000D02*
X217567500Y-81600000D01*
X217567500Y-85840000D01*
X215327500Y-85840000D01*
X215327500Y-81600000D01*
%TO.C,D24*%
X197397500Y-80950000D02*
X197397500Y-81600000D01*
X197397500Y-86490000D02*
X197397500Y-85840000D01*
X198517500Y-85000000D02*
X196277500Y-85000000D01*
X198517500Y-85120000D02*
X196277500Y-85120000D01*
X198517500Y-85240000D02*
X196277500Y-85240000D01*
X196277500Y-81600000D02*
X198517500Y-81600000D01*
X198517500Y-85840000D01*
X196277500Y-85840000D01*
X196277500Y-81600000D01*
%TO.C,D32*%
X359322500Y-80950000D02*
X359322500Y-81600000D01*
X359322500Y-86490000D02*
X359322500Y-85840000D01*
X360442500Y-85000000D02*
X358202500Y-85000000D01*
X360442500Y-85120000D02*
X358202500Y-85120000D01*
X360442500Y-85240000D02*
X358202500Y-85240000D01*
X358202500Y-81600000D02*
X360442500Y-81600000D01*
X360442500Y-85840000D01*
X358202500Y-85840000D01*
X358202500Y-81600000D01*
%TO.C,D14*%
X302172500Y-61900000D02*
X302172500Y-62550000D01*
X302172500Y-67440000D02*
X302172500Y-66790000D01*
X303292500Y-65950000D02*
X301052500Y-65950000D01*
X303292500Y-66070000D02*
X301052500Y-66070000D01*
X303292500Y-66190000D02*
X301052500Y-66190000D01*
X301052500Y-62550000D02*
X303292500Y-62550000D01*
X303292500Y-66790000D01*
X301052500Y-66790000D01*
X301052500Y-62550000D01*
%TO.C,D10*%
X225972500Y-61900000D02*
X225972500Y-62550000D01*
X225972500Y-67440000D02*
X225972500Y-66790000D01*
X227092500Y-65950000D02*
X224852500Y-65950000D01*
X227092500Y-66070000D02*
X224852500Y-66070000D01*
X227092500Y-66190000D02*
X224852500Y-66190000D01*
X224852500Y-62550000D02*
X227092500Y-62550000D01*
X227092500Y-66790000D01*
X224852500Y-66790000D01*
X224852500Y-62550000D01*
%TO.C,D17*%
X49760000Y-80950000D02*
X49760000Y-81600000D01*
X49760000Y-86490000D02*
X49760000Y-85840000D01*
X50880000Y-85000000D02*
X48640000Y-85000000D01*
X50880000Y-85120000D02*
X48640000Y-85120000D01*
X50880000Y-85240000D02*
X48640000Y-85240000D01*
X48640000Y-81600000D02*
X50880000Y-81600000D01*
X50880000Y-85840000D01*
X48640000Y-85840000D01*
X48640000Y-81600000D01*
%TO.C,D46*%
X328366250Y-100000000D02*
X328366250Y-100650000D01*
X328366250Y-105540000D02*
X328366250Y-104890000D01*
X329486250Y-104050000D02*
X327246250Y-104050000D01*
X329486250Y-104170000D02*
X327246250Y-104170000D01*
X329486250Y-104290000D02*
X327246250Y-104290000D01*
X327246250Y-100650000D02*
X329486250Y-100650000D01*
X329486250Y-104890000D01*
X327246250Y-104890000D01*
X327246250Y-100650000D01*
%TO.C,D40*%
X202160000Y-100000000D02*
X202160000Y-100650000D01*
X202160000Y-105540000D02*
X202160000Y-104890000D01*
X203280000Y-104050000D02*
X201040000Y-104050000D01*
X203280000Y-104170000D02*
X201040000Y-104170000D01*
X203280000Y-104290000D02*
X201040000Y-104290000D01*
X201040000Y-100650000D02*
X203280000Y-100650000D01*
X203280000Y-104890000D01*
X201040000Y-104890000D01*
X201040000Y-100650000D01*
%TO.C,D64*%
X75953750Y-138100000D02*
X75953750Y-138750000D01*
X75953750Y-143640000D02*
X75953750Y-142990000D01*
X77073750Y-142150000D02*
X74833750Y-142150000D01*
X77073750Y-142270000D02*
X74833750Y-142270000D01*
X77073750Y-142390000D02*
X74833750Y-142390000D01*
X74833750Y-138750000D02*
X77073750Y-138750000D01*
X77073750Y-142990000D01*
X74833750Y-142990000D01*
X74833750Y-138750000D01*
%TO.C,D59*%
X287885000Y-119050000D02*
X287885000Y-119700000D01*
X287885000Y-124590000D02*
X287885000Y-123940000D01*
X289005000Y-123100000D02*
X286765000Y-123100000D01*
X289005000Y-123220000D02*
X286765000Y-123220000D01*
X289005000Y-123340000D02*
X286765000Y-123340000D01*
X286765000Y-119700000D02*
X289005000Y-119700000D01*
X289005000Y-123940000D01*
X286765000Y-123940000D01*
X286765000Y-119700000D01*
%TO.C,D4*%
X111672500Y-61900000D02*
X111672500Y-62550000D01*
X111672500Y-67440000D02*
X111672500Y-66790000D01*
X112792500Y-65950000D02*
X110552500Y-65950000D01*
X112792500Y-66070000D02*
X110552500Y-66070000D01*
X112792500Y-66190000D02*
X110552500Y-66190000D01*
X110552500Y-62550000D02*
X112792500Y-62550000D01*
X112792500Y-66790000D01*
X110552500Y-66790000D01*
X110552500Y-62550000D01*
%TO.C,D61*%
X340272500Y-119050000D02*
X340272500Y-119700000D01*
X340272500Y-124590000D02*
X340272500Y-123940000D01*
X341392500Y-123100000D02*
X339152500Y-123100000D01*
X341392500Y-123220000D02*
X339152500Y-123220000D01*
X341392500Y-123340000D02*
X339152500Y-123340000D01*
X339152500Y-119700000D02*
X341392500Y-119700000D01*
X341392500Y-123940000D01*
X339152500Y-123940000D01*
X339152500Y-119700000D01*
%TO.C,D7*%
X168822500Y-61900000D02*
X168822500Y-62550000D01*
X168822500Y-67440000D02*
X168822500Y-66790000D01*
X169942500Y-65950000D02*
X167702500Y-65950000D01*
X169942500Y-66070000D02*
X167702500Y-66070000D01*
X169942500Y-66190000D02*
X167702500Y-66190000D01*
X167702500Y-62550000D02*
X169942500Y-62550000D01*
X169942500Y-66790000D01*
X167702500Y-66790000D01*
X167702500Y-62550000D01*
%TO.C,D62*%
X359322500Y-119050000D02*
X359322500Y-119700000D01*
X359322500Y-124590000D02*
X359322500Y-123940000D01*
X360442500Y-123100000D02*
X358202500Y-123100000D01*
X360442500Y-123220000D02*
X358202500Y-123220000D01*
X360442500Y-123340000D02*
X358202500Y-123340000D01*
X358202500Y-119700000D02*
X360442500Y-119700000D01*
X360442500Y-123940000D01*
X358202500Y-123940000D01*
X358202500Y-119700000D01*
%TO.C,D63*%
X49760000Y-138100000D02*
X49760000Y-138750000D01*
X49760000Y-143640000D02*
X49760000Y-142990000D01*
X50880000Y-142150000D02*
X48640000Y-142150000D01*
X50880000Y-142270000D02*
X48640000Y-142270000D01*
X50880000Y-142390000D02*
X48640000Y-142390000D01*
X48640000Y-138750000D02*
X50880000Y-138750000D01*
X50880000Y-142990000D01*
X48640000Y-142990000D01*
X48640000Y-138750000D01*
%TO.C,D11*%
X245022500Y-61900000D02*
X245022500Y-62550000D01*
X245022500Y-67440000D02*
X245022500Y-66790000D01*
X246142500Y-65950000D02*
X243902500Y-65950000D01*
X246142500Y-66070000D02*
X243902500Y-66070000D01*
X246142500Y-66190000D02*
X243902500Y-66190000D01*
X243902500Y-62550000D02*
X246142500Y-62550000D01*
X246142500Y-66790000D01*
X243902500Y-66790000D01*
X243902500Y-62550000D01*
%TO.C,D5*%
X130722500Y-61900000D02*
X130722500Y-62550000D01*
X130722500Y-67440000D02*
X130722500Y-66790000D01*
X131842500Y-65950000D02*
X129602500Y-65950000D01*
X131842500Y-66070000D02*
X129602500Y-66070000D01*
X131842500Y-66190000D02*
X129602500Y-66190000D01*
X129602500Y-62550000D02*
X131842500Y-62550000D01*
X131842500Y-66790000D01*
X129602500Y-66790000D01*
X129602500Y-62550000D01*
%TO.C,D33*%
X49760000Y-100000000D02*
X49760000Y-100650000D01*
X49760000Y-105540000D02*
X49760000Y-104890000D01*
X50880000Y-104050000D02*
X48640000Y-104050000D01*
X50880000Y-104170000D02*
X48640000Y-104170000D01*
X50880000Y-104290000D02*
X48640000Y-104290000D01*
X48640000Y-100650000D02*
X50880000Y-100650000D01*
X50880000Y-104890000D01*
X48640000Y-104890000D01*
X48640000Y-100650000D01*
%TO.C,D29*%
X292647500Y-80950000D02*
X292647500Y-81600000D01*
X292647500Y-86490000D02*
X292647500Y-85840000D01*
X293767500Y-85000000D02*
X291527500Y-85000000D01*
X293767500Y-85120000D02*
X291527500Y-85120000D01*
X293767500Y-85240000D02*
X291527500Y-85240000D01*
X291527500Y-81600000D02*
X293767500Y-81600000D01*
X293767500Y-85840000D01*
X291527500Y-85840000D01*
X291527500Y-81600000D01*
%TO.C,D23*%
X178347500Y-80950000D02*
X178347500Y-81600000D01*
X178347500Y-86490000D02*
X178347500Y-85840000D01*
X179467500Y-85000000D02*
X177227500Y-85000000D01*
X179467500Y-85120000D02*
X177227500Y-85120000D01*
X179467500Y-85240000D02*
X177227500Y-85240000D01*
X177227500Y-81600000D02*
X179467500Y-81600000D01*
X179467500Y-85840000D01*
X177227500Y-85840000D01*
X177227500Y-81600000D01*
%TO.C,D45*%
X297410000Y-100000000D02*
X297410000Y-100650000D01*
X297410000Y-105540000D02*
X297410000Y-104890000D01*
X298530000Y-104050000D02*
X296290000Y-104050000D01*
X298530000Y-104170000D02*
X296290000Y-104170000D01*
X298530000Y-104290000D02*
X296290000Y-104290000D01*
X296290000Y-100650000D02*
X298530000Y-100650000D01*
X298530000Y-104890000D01*
X296290000Y-104890000D01*
X296290000Y-100650000D01*
%TO.C,D67*%
X195016250Y-138100000D02*
X195016250Y-138750000D01*
X195016250Y-143640000D02*
X195016250Y-142990000D01*
X196136250Y-142150000D02*
X193896250Y-142150000D01*
X196136250Y-142270000D02*
X193896250Y-142270000D01*
X196136250Y-142390000D02*
X193896250Y-142390000D01*
X193896250Y-138750000D02*
X196136250Y-138750000D01*
X196136250Y-142990000D01*
X193896250Y-142990000D01*
X193896250Y-138750000D01*
%TO.C,D13*%
X283122500Y-61900000D02*
X283122500Y-62550000D01*
X283122500Y-67440000D02*
X283122500Y-66790000D01*
X284242500Y-65950000D02*
X282002500Y-65950000D01*
X284242500Y-66070000D02*
X282002500Y-66070000D01*
X284242500Y-66190000D02*
X282002500Y-66190000D01*
X282002500Y-62550000D02*
X284242500Y-62550000D01*
X284242500Y-66790000D01*
X282002500Y-66790000D01*
X282002500Y-62550000D01*
%TO.C,D73*%
X359322500Y-138100000D02*
X359322500Y-138750000D01*
X359322500Y-143640000D02*
X359322500Y-142990000D01*
X360442500Y-142150000D02*
X358202500Y-142150000D01*
X360442500Y-142270000D02*
X358202500Y-142270000D01*
X360442500Y-142390000D02*
X358202500Y-142390000D01*
X358202500Y-138750000D02*
X360442500Y-138750000D01*
X360442500Y-142990000D01*
X358202500Y-142990000D01*
X358202500Y-138750000D01*
%TO.C,D38*%
X164060000Y-100000000D02*
X164060000Y-100650000D01*
X164060000Y-105540000D02*
X164060000Y-104890000D01*
X165180000Y-104050000D02*
X162940000Y-104050000D01*
X165180000Y-104170000D02*
X162940000Y-104170000D01*
X165180000Y-104290000D02*
X162940000Y-104290000D01*
X162940000Y-100650000D02*
X165180000Y-100650000D01*
X165180000Y-104890000D01*
X162940000Y-104890000D01*
X162940000Y-100650000D01*
%TO.C,D70*%
X302172500Y-138100000D02*
X302172500Y-138750000D01*
X302172500Y-143640000D02*
X302172500Y-142990000D01*
X303292500Y-142150000D02*
X301052500Y-142150000D01*
X303292500Y-142270000D02*
X301052500Y-142270000D01*
X303292500Y-142390000D02*
X301052500Y-142390000D01*
X301052500Y-138750000D02*
X303292500Y-138750000D01*
X303292500Y-142990000D01*
X301052500Y-142990000D01*
X301052500Y-138750000D01*
%TO.C,D30*%
X311697500Y-80950000D02*
X311697500Y-81600000D01*
X311697500Y-86490000D02*
X311697500Y-85840000D01*
X312817500Y-85000000D02*
X310577500Y-85000000D01*
X312817500Y-85120000D02*
X310577500Y-85120000D01*
X312817500Y-85240000D02*
X310577500Y-85240000D01*
X310577500Y-81600000D02*
X312817500Y-81600000D01*
X312817500Y-85840000D01*
X310577500Y-85840000D01*
X310577500Y-81600000D01*
%TO.C,D19*%
X102147500Y-80950000D02*
X102147500Y-81600000D01*
X102147500Y-86490000D02*
X102147500Y-85840000D01*
X103267500Y-85000000D02*
X101027500Y-85000000D01*
X103267500Y-85120000D02*
X101027500Y-85120000D01*
X103267500Y-85240000D02*
X101027500Y-85240000D01*
X101027500Y-81600000D02*
X103267500Y-81600000D01*
X103267500Y-85840000D01*
X101027500Y-85840000D01*
X101027500Y-81600000D01*
%TO.C,D58*%
X268835000Y-119050000D02*
X268835000Y-119700000D01*
X268835000Y-124590000D02*
X268835000Y-123940000D01*
X269955000Y-123100000D02*
X267715000Y-123100000D01*
X269955000Y-123220000D02*
X267715000Y-123220000D01*
X269955000Y-123340000D02*
X267715000Y-123340000D01*
X267715000Y-119700000D02*
X269955000Y-119700000D01*
X269955000Y-123940000D01*
X267715000Y-123940000D01*
X267715000Y-119700000D01*
%TD*%
M02*
