%TF.GenerationSoftware,KiCad,Pcbnew,10.0.4*%
%TF.CreationDate,2026-07-05T17:11:50+07:00*%
%TF.ProjectId,keeb,6b656562-2e6b-4696-9361-645f70636258,rev?*%
%TF.SameCoordinates,Original*%
%TF.FileFunction,Legend,Top*%
%TF.FilePolarity,Positive*%
%FSLAX46Y46*%
G04 Gerber Fmt 4.6, Leading zero omitted, Abs format (unit mm)*
G04 Created by KiCad (PCBNEW 10.0.4) date 2026-07-05 17:11:50*
%MOMM*%
%LPD*%
G01*
G04 APERTURE LIST*
%ADD10C,0.150000*%
%ADD11C,0.120000*%
G04 APERTURE END LIST*
D10*
X197988095Y-151304819D02*
X197988095Y-150304819D01*
X197988095Y-150781009D02*
X198559523Y-150781009D01*
X198559523Y-151304819D02*
X198559523Y-150304819D01*
X199464285Y-150638152D02*
X199464285Y-151304819D01*
X199226190Y-150257200D02*
X198988095Y-150971485D01*
X198988095Y-150971485D02*
X199607142Y-150971485D01*
X368238095Y-151304819D02*
X368238095Y-150304819D01*
X368238095Y-150781009D02*
X368809523Y-150781009D01*
X368809523Y-151304819D02*
X368809523Y-150304819D01*
X369190476Y-150304819D02*
X369809523Y-150304819D01*
X369809523Y-150304819D02*
X369476190Y-150685771D01*
X369476190Y-150685771D02*
X369619047Y-150685771D01*
X369619047Y-150685771D02*
X369714285Y-150733390D01*
X369714285Y-150733390D02*
X369761904Y-150781009D01*
X369761904Y-150781009D02*
X369809523Y-150876247D01*
X369809523Y-150876247D02*
X369809523Y-151114342D01*
X369809523Y-151114342D02*
X369761904Y-151209580D01*
X369761904Y-151209580D02*
X369714285Y-151257200D01*
X369714285Y-151257200D02*
X369619047Y-151304819D01*
X369619047Y-151304819D02*
X369333333Y-151304819D01*
X369333333Y-151304819D02*
X369238095Y-151257200D01*
X369238095Y-151257200D02*
X369190476Y-151209580D01*
X121045180Y-39428095D02*
X120235657Y-39428095D01*
X120235657Y-39428095D02*
X120140419Y-39475714D01*
X120140419Y-39475714D02*
X120092800Y-39523333D01*
X120092800Y-39523333D02*
X120045180Y-39618571D01*
X120045180Y-39618571D02*
X120045180Y-39809047D01*
X120045180Y-39809047D02*
X120092800Y-39904285D01*
X120092800Y-39904285D02*
X120140419Y-39951904D01*
X120140419Y-39951904D02*
X120235657Y-39999523D01*
X120235657Y-39999523D02*
X121045180Y-39999523D01*
X120045180Y-40999523D02*
X120045180Y-40428095D01*
X120045180Y-40713809D02*
X121045180Y-40713809D01*
X121045180Y-40713809D02*
X120902323Y-40618571D01*
X120902323Y-40618571D02*
X120807085Y-40523333D01*
X120807085Y-40523333D02*
X120759466Y-40428095D01*
X28738095Y-151304819D02*
X28738095Y-150304819D01*
X28738095Y-150781009D02*
X29309523Y-150781009D01*
X29309523Y-151304819D02*
X29309523Y-150304819D01*
X30309523Y-151304819D02*
X29738095Y-151304819D01*
X30023809Y-151304819D02*
X30023809Y-150304819D01*
X30023809Y-150304819D02*
X29928571Y-150447676D01*
X29928571Y-150447676D02*
X29833333Y-150542914D01*
X29833333Y-150542914D02*
X29738095Y-150590533D01*
X368238095Y-18304819D02*
X368238095Y-17304819D01*
X368238095Y-17781009D02*
X368809523Y-17781009D01*
X368809523Y-18304819D02*
X368809523Y-17304819D01*
X369714285Y-17304819D02*
X369523809Y-17304819D01*
X369523809Y-17304819D02*
X369428571Y-17352438D01*
X369428571Y-17352438D02*
X369380952Y-17400057D01*
X369380952Y-17400057D02*
X369285714Y-17542914D01*
X369285714Y-17542914D02*
X369238095Y-17733390D01*
X369238095Y-17733390D02*
X369238095Y-18114342D01*
X369238095Y-18114342D02*
X369285714Y-18209580D01*
X369285714Y-18209580D02*
X369333333Y-18257200D01*
X369333333Y-18257200D02*
X369428571Y-18304819D01*
X369428571Y-18304819D02*
X369619047Y-18304819D01*
X369619047Y-18304819D02*
X369714285Y-18257200D01*
X369714285Y-18257200D02*
X369761904Y-18209580D01*
X369761904Y-18209580D02*
X369809523Y-18114342D01*
X369809523Y-18114342D02*
X369809523Y-17876247D01*
X369809523Y-17876247D02*
X369761904Y-17781009D01*
X369761904Y-17781009D02*
X369714285Y-17733390D01*
X369714285Y-17733390D02*
X369619047Y-17685771D01*
X369619047Y-17685771D02*
X369428571Y-17685771D01*
X369428571Y-17685771D02*
X369333333Y-17733390D01*
X369333333Y-17733390D02*
X369285714Y-17781009D01*
X369285714Y-17781009D02*
X369238095Y-17876247D01*
X55085714Y-32231009D02*
X55419047Y-32231009D01*
X55561904Y-32754819D02*
X55085714Y-32754819D01*
X55085714Y-32754819D02*
X55085714Y-31754819D01*
X55085714Y-31754819D02*
X55561904Y-31754819D01*
X55990476Y-32754819D02*
X55990476Y-31754819D01*
X55990476Y-31754819D02*
X56561904Y-32754819D01*
X56561904Y-32754819D02*
X56561904Y-31754819D01*
X57609523Y-32659580D02*
X57561904Y-32707200D01*
X57561904Y-32707200D02*
X57419047Y-32754819D01*
X57419047Y-32754819D02*
X57323809Y-32754819D01*
X57323809Y-32754819D02*
X57180952Y-32707200D01*
X57180952Y-32707200D02*
X57085714Y-32611961D01*
X57085714Y-32611961D02*
X57038095Y-32516723D01*
X57038095Y-32516723D02*
X56990476Y-32326247D01*
X56990476Y-32326247D02*
X56990476Y-32183390D01*
X56990476Y-32183390D02*
X57038095Y-31992914D01*
X57038095Y-31992914D02*
X57085714Y-31897676D01*
X57085714Y-31897676D02*
X57180952Y-31802438D01*
X57180952Y-31802438D02*
X57323809Y-31754819D01*
X57323809Y-31754819D02*
X57419047Y-31754819D01*
X57419047Y-31754819D02*
X57561904Y-31802438D01*
X57561904Y-31802438D02*
X57609523Y-31850057D01*
X58561904Y-32754819D02*
X57990476Y-32754819D01*
X58276190Y-32754819D02*
X58276190Y-31754819D01*
X58276190Y-31754819D02*
X58180952Y-31897676D01*
X58180952Y-31897676D02*
X58085714Y-31992914D01*
X58085714Y-31992914D02*
X57990476Y-32040533D01*
X28738095Y-18804819D02*
X28738095Y-17804819D01*
X28738095Y-18281009D02*
X29309523Y-18281009D01*
X29309523Y-18804819D02*
X29309523Y-17804819D01*
X30261904Y-17804819D02*
X29785714Y-17804819D01*
X29785714Y-17804819D02*
X29738095Y-18281009D01*
X29738095Y-18281009D02*
X29785714Y-18233390D01*
X29785714Y-18233390D02*
X29880952Y-18185771D01*
X29880952Y-18185771D02*
X30119047Y-18185771D01*
X30119047Y-18185771D02*
X30214285Y-18233390D01*
X30214285Y-18233390D02*
X30261904Y-18281009D01*
X30261904Y-18281009D02*
X30309523Y-18376247D01*
X30309523Y-18376247D02*
X30309523Y-18614342D01*
X30309523Y-18614342D02*
X30261904Y-18709580D01*
X30261904Y-18709580D02*
X30214285Y-18757200D01*
X30214285Y-18757200D02*
X30119047Y-18804819D01*
X30119047Y-18804819D02*
X29880952Y-18804819D01*
X29880952Y-18804819D02*
X29785714Y-18757200D01*
X29785714Y-18757200D02*
X29738095Y-18709580D01*
X322753395Y-50036660D02*
X322753395Y-50512850D01*
X322467680Y-49941422D02*
X323467680Y-50274755D01*
X323467680Y-50274755D02*
X322467680Y-50608088D01*
X322467680Y-51465231D02*
X322467680Y-50893803D01*
X322467680Y-51179517D02*
X323467680Y-51179517D01*
X323467680Y-51179517D02*
X323324823Y-51084279D01*
X323324823Y-51084279D02*
X323229585Y-50989041D01*
X323229585Y-50989041D02*
X323181966Y-50893803D01*
X197988095Y-18804819D02*
X197988095Y-17804819D01*
X197988095Y-18281009D02*
X198559523Y-18281009D01*
X198559523Y-18804819D02*
X198559523Y-17804819D01*
X198988095Y-17900057D02*
X199035714Y-17852438D01*
X199035714Y-17852438D02*
X199130952Y-17804819D01*
X199130952Y-17804819D02*
X199369047Y-17804819D01*
X199369047Y-17804819D02*
X199464285Y-17852438D01*
X199464285Y-17852438D02*
X199511904Y-17900057D01*
X199511904Y-17900057D02*
X199559523Y-17995295D01*
X199559523Y-17995295D02*
X199559523Y-18090533D01*
X199559523Y-18090533D02*
X199511904Y-18233390D01*
X199511904Y-18233390D02*
X198940476Y-18804819D01*
X198940476Y-18804819D02*
X199559523Y-18804819D01*
%TO.C,U1*%
D11*
X116620000Y-36190000D02*
X116620000Y-34810000D01*
X118000000Y-34810000D02*
X116620000Y-34810000D01*
X81500000Y-34000000D02*
X119500000Y-34000000D01*
X119500000Y-46000000D01*
X81500000Y-46000000D01*
X81500000Y-34000000D01*
%TO.C,ENC1*%
X53700000Y-35400000D02*
X54300000Y-35400000D01*
X54000000Y-35700000D02*
X53700000Y-35400000D01*
X54300000Y-35400000D02*
X54000000Y-35700000D01*
X55400000Y-33600000D02*
X55400000Y-45400000D01*
X59500000Y-33600000D02*
X55400000Y-33600000D01*
X59500000Y-45400000D02*
X55400000Y-45400000D01*
X61000000Y-39500000D02*
X62000000Y-39500000D01*
X61500000Y-39000000D02*
X61500000Y-40000000D01*
X63500000Y-33600000D02*
X67600000Y-33600000D01*
X67600000Y-33600000D02*
X67600000Y-36000000D01*
X67600000Y-38200000D02*
X67600000Y-40800000D01*
X67600000Y-43000000D02*
X67600000Y-45400000D01*
X67600000Y-45400000D02*
X63500000Y-45400000D01*
X64500000Y-39500000D02*
G75*
G02*
X58500000Y-39500000I-3000000J0D01*
G01*
X58500000Y-39500000D02*
G75*
G02*
X64500000Y-39500000I3000000J0D01*
G01*
%TO.C,A1*%
X322077500Y-28000000D02*
X322077500Y-31837939D01*
X322077500Y-34400000D02*
X322077500Y-32762061D01*
X322077500Y-41600000D02*
X322077500Y-34400000D01*
X322077500Y-43237939D02*
X322077500Y-41600000D01*
X322077500Y-44162061D02*
X322077500Y-48000000D01*
X322140500Y-48270000D02*
X373234500Y-48270000D01*
X322991020Y-30490000D02*
X322077500Y-30490000D01*
X322991020Y-45510000D02*
X322077500Y-45510000D01*
X368777500Y-41900000D02*
X368777500Y-34100000D01*
X369991020Y-30490000D02*
X325383980Y-30490000D01*
X369991020Y-45510000D02*
X325383980Y-45510000D01*
X369993500Y-34100000D02*
X368777500Y-34100000D01*
X369993500Y-41900000D02*
X368777500Y-41900000D01*
X371017500Y-27070000D02*
X372617500Y-27070000D01*
X372687500Y-27390000D02*
X322687500Y-27390000D01*
X372687500Y-48610000D02*
X322687500Y-48610000D01*
X373234500Y-27730000D02*
X322140500Y-27730000D01*
X373297500Y-28000000D02*
X373297500Y-30490000D01*
X373297500Y-30490000D02*
X372383980Y-30490000D01*
X373297500Y-30490000D02*
X373297500Y-31837940D01*
X373297500Y-32762061D02*
X373297500Y-33765000D01*
X373297500Y-33765000D02*
X373297500Y-42235000D01*
X373297500Y-42235000D02*
X373297500Y-43237939D01*
X373297500Y-44162061D02*
X373297500Y-45510000D01*
X373297500Y-45510000D02*
X372383980Y-45510000D01*
X373297500Y-48000000D02*
X373297500Y-45510000D01*
X373777500Y-33890000D02*
X373777500Y-34100000D01*
X373777500Y-34100000D02*
X372381500Y-34100000D01*
X373777500Y-41900000D02*
X372381500Y-41900000D01*
X373777500Y-42110000D02*
X373777500Y-41900000D01*
X374597500Y-33890000D02*
X373777500Y-33890000D01*
X374597500Y-33890000D02*
X374597500Y-42110000D01*
X374597500Y-42110000D02*
X373777500Y-42110000D01*
X322077500Y-28000000D02*
G75*
G02*
X322687500Y-27390000I609901J99D01*
G01*
X322687500Y-48610000D02*
G75*
G02*
X322077500Y-48000000I0J610000D01*
G01*
X372687500Y-27390000D02*
G75*
G02*
X373297500Y-28000000I0J-610000D01*
G01*
X373297500Y-48000000D02*
G75*
G02*
X372687500Y-48610000I-610000J0D01*
G01*
%TD*%
M02*
