M48
; DRILL file KiCad 10.0.4 date 2026-07-04T17:37:59
; FORMAT={-:-/ absolute / metric / decimal}
; #@! TF.CreationDate,2026-07-04T17:37:59+07:00
; #@! TF.GenerationSoftware,Kicad,Pcbnew,10.0.4
; #@! TF.FileFunction,NonPlated,1,2,NPTH
FMAT,2
METRIC
; #@! TA.AperFunction,NonPlated,NPTH,ComponentDrill
T1C1.750
; #@! TA.AperFunction,NonPlated,NPTH,ComponentDrill
T2C3.048
; #@! TA.AperFunction,NonPlated,NPTH,ComponentDrill
T3C3.200
; #@! TA.AperFunction,NonPlated,NPTH,ComponentDrill
T4C3.988
%
G90
G05
T1
X39.6Y-64.48
X39.6Y-83.53
X39.6Y-102.58
X39.6Y-121.63
X39.6Y-140.68
X49.76Y-64.48
X49.76Y-83.53
X49.76Y-102.58
X49.76Y-121.63
X49.76Y-140.68
X63.412Y-64.48
X65.794Y-140.68
X68.175Y-83.53
X70.556Y-102.58
X73.572Y-64.48
X75.319Y-121.63
X75.954Y-140.68
X78.335Y-83.53
X80.716Y-102.58
X82.462Y-64.48
X85.479Y-121.63
X89.606Y-140.68
X91.987Y-83.53
X92.623Y-64.48
X96.75Y-102.58
X99.766Y-140.68
X101.512Y-64.48
X102.147Y-83.53
X106.275Y-121.63
X106.91Y-102.58
X111.037Y-83.53
X111.672Y-64.48
X113.419Y-140.68
X115.8Y-102.58
X116.435Y-121.63
X120.562Y-64.48
X121.197Y-83.53
X123.579Y-140.68
X125.325Y-121.63
X125.96Y-102.58
X130.088Y-83.53
X130.722Y-64.48
X134.85Y-102.58
X135.485Y-121.63
X139.612Y-64.48
X140.248Y-83.53
X144.375Y-121.63
X145.01Y-102.58
X149.137Y-83.53
X149.772Y-64.48
X153.9Y-102.58
X154.535Y-121.63
X158.662Y-64.48
X159.297Y-83.53
X163.425Y-121.63
X164.06Y-102.58
X168.188Y-83.53
X168.822Y-64.48
X172.95Y-102.58
X173.585Y-121.63
X177.713Y-64.48
X178.347Y-83.53
X182.475Y-121.63
X183.11Y-102.58
X184.856Y-140.68
X187.237Y-83.53
X187.873Y-64.48
X192.0Y-102.58
X192.635Y-121.63
X195.016Y-140.68
X196.762Y-64.48
X197.397Y-83.53
X201.525Y-121.63
X202.16Y-102.58
X206.287Y-83.53
X206.922Y-64.48
X211.05Y-102.58
X211.685Y-121.63
X215.812Y-64.48
X216.447Y-83.53
X220.575Y-121.63
X221.21Y-102.58
X225.337Y-83.53
X225.972Y-64.48
X230.1Y-102.58
X230.735Y-121.63
X234.862Y-64.48
X235.498Y-83.53
X239.625Y-121.63
X240.26Y-102.58
X244.387Y-83.53
X245.022Y-64.48
X249.15Y-102.58
X249.785Y-121.63
X253.912Y-64.48
X253.912Y-140.68
X254.547Y-83.53
X258.675Y-121.63
X259.31Y-102.58
X263.438Y-83.53
X264.072Y-64.48
X264.072Y-140.68
X268.2Y-102.58
X268.835Y-121.63
X272.962Y-64.48
X272.962Y-140.68
X273.597Y-83.53
X277.725Y-121.63
X278.36Y-102.58
X282.488Y-83.53
X283.123Y-64.48
X283.123Y-140.68
X287.25Y-102.58
X287.885Y-121.63
X292.012Y-64.48
X292.012Y-140.68
X292.647Y-83.53
X297.41Y-102.58
X301.537Y-83.53
X302.173Y-64.48
X302.173Y-140.68
X303.919Y-121.63
X311.062Y-140.68
X311.697Y-83.53
X314.079Y-121.63
X318.206Y-102.58
X320.587Y-64.48
X321.222Y-140.68
X325.35Y-83.53
X328.366Y-102.58
X330.113Y-121.63
X330.113Y-140.68
X330.748Y-64.48
X335.51Y-83.53
X340.272Y-121.63
X340.272Y-140.68
X349.162Y-64.48
X349.162Y-83.53
X349.162Y-102.58
X349.162Y-121.63
X349.162Y-140.68
X359.322Y-64.48
X359.322Y-83.53
X359.322Y-102.58
X359.322Y-121.63
X359.322Y-140.68
T2
X68.492Y-114.645
X92.305Y-114.645
X311.38Y-95.595
X313.761Y-57.495
X335.192Y-95.595
X337.574Y-57.495
T3
X29.5Y-22.5
X29.5Y-155.0
X198.75Y-22.5
X198.75Y-155.0
X369.0Y-22.0
X369.0Y-155.0
T4
X44.68Y-64.48
X44.68Y-83.53
X44.68Y-102.58
X44.68Y-121.63
X44.68Y-140.68
X68.492Y-64.48
X68.492Y-129.885
X70.874Y-140.68
X73.255Y-83.53
X75.636Y-102.58
X80.399Y-121.63
X87.542Y-64.48
X92.305Y-129.885
X94.686Y-140.68
X97.067Y-83.53
X101.83Y-102.58
X106.593Y-64.48
X111.355Y-121.63
X116.117Y-83.53
X118.499Y-140.68
X120.88Y-102.58
X125.642Y-64.48
X130.405Y-121.63
X135.167Y-83.53
X139.93Y-102.58
X139.987Y-149.0
X144.692Y-64.48
X149.455Y-121.63
X154.218Y-83.53
X158.98Y-102.58
X163.742Y-64.48
X168.505Y-121.63
X173.267Y-83.53
X178.03Y-102.58
X182.792Y-64.48
X187.555Y-121.63
X189.936Y-140.68
X192.317Y-83.53
X197.08Y-102.58
X201.843Y-64.48
X206.605Y-121.63
X211.367Y-83.53
X216.13Y-102.58
X220.892Y-64.48
X225.655Y-121.63
X230.417Y-83.53
X235.18Y-102.58
X239.942Y-64.48
X240.0Y-149.0
X244.705Y-121.63
X249.468Y-83.53
X254.23Y-102.58
X258.993Y-64.48
X258.993Y-140.68
X263.755Y-121.63
X268.517Y-83.53
X273.28Y-102.58
X278.042Y-64.48
X278.042Y-140.68
X282.805Y-121.63
X287.567Y-83.53
X292.33Y-102.58
X297.092Y-64.48
X297.092Y-140.68
X306.618Y-83.53
X308.999Y-121.63
X311.38Y-110.835
X313.761Y-72.735
X316.142Y-140.68
X323.286Y-102.58
X325.667Y-64.48
X330.43Y-83.53
X335.192Y-110.835
X335.192Y-121.63
X335.192Y-140.68
X337.574Y-72.735
X354.243Y-64.48
X354.243Y-83.53
X354.243Y-102.58
X354.243Y-121.63
X354.243Y-140.68
M30
