%TF.GenerationSoftware,KiCad,Pcbnew,10.0.4*%
%TF.CreationDate,2026-07-05T17:11:32+07:00*%
%TF.ProjectId,keeb,6b656562-2e6b-4696-9361-645f70636258,rev?*%
%TF.SameCoordinates,Original*%
%TF.FileFunction,Copper,L2,Bot*%
%TF.FilePolarity,Positive*%
%FSLAX46Y46*%
G04 Gerber Fmt 4.6, Leading zero omitted, Abs format (unit mm)*
G04 Created by KiCad (PCBNEW 10.0.4) date 2026-07-05 17:11:32*
%MOMM*%
%LPD*%
G01*
G04 APERTURE LIST*
G04 Aperture macros list*
%AMRoundRect*
0 Rectangle with rounded corners*
0 $1 Rounding radius*
0 $2 $3 $4 $5 $6 $7 $8 $9 X,Y pos of 4 corners*
0 Add a 4 corners polygon primitive as box body*
4,1,4,$2,$3,$4,$5,$6,$7,$8,$9,$2,$3,0*
0 Add four circle primitives for the rounded corners*
1,1,$1+$1,$2,$3*
1,1,$1+$1,$4,$5*
1,1,$1+$1,$6,$7*
1,1,$1+$1,$8,$9*
0 Add four rect primitives between the rounded corners*
20,1,$1+$1,$2,$3,$4,$5,0*
20,1,$1+$1,$4,$5,$6,$7,0*
20,1,$1+$1,$6,$7,$8,$9,0*
20,1,$1+$1,$8,$9,$2,$3,0*%
%AMFreePoly0*
4,1,37,0.603843,0.796157,0.639018,0.796157,0.711114,0.766294,0.766294,0.711114,0.796157,0.639018,0.796157,0.603843,0.800000,0.600000,0.800000,-0.600000,0.796157,-0.603843,0.796157,-0.639018,0.766294,-0.711114,0.711114,-0.766294,0.639018,-0.796157,0.603843,-0.796157,0.600000,-0.800000,0.000000,-0.800000,0.000000,-0.796148,-0.078414,-0.796148,-0.232228,-0.765552,-0.377117,-0.705537,
-0.507515,-0.618408,-0.618408,-0.507515,-0.705537,-0.377117,-0.765552,-0.232228,-0.796148,-0.078414,-0.796148,0.078414,-0.765552,0.232228,-0.705537,0.377117,-0.618408,0.507515,-0.507515,0.618408,-0.377117,0.705537,-0.232228,0.765552,-0.078414,0.796148,0.000000,0.796148,0.000000,0.800000,0.600000,0.800000,0.603843,0.796157,0.603843,0.796157,$1*%
%AMFreePoly1*
4,1,37,0.000000,0.796148,0.078414,0.796148,0.232228,0.765552,0.377117,0.705537,0.507515,0.618408,0.618408,0.507515,0.705537,0.377117,0.765552,0.232228,0.796148,0.078414,0.796148,-0.078414,0.765552,-0.232228,0.705537,-0.377117,0.618408,-0.507515,0.507515,-0.618408,0.377117,-0.705537,0.232228,-0.765552,0.078414,-0.796148,0.000000,-0.796148,0.000000,-0.800000,-0.600000,-0.800000,
-0.603843,-0.796157,-0.639018,-0.796157,-0.711114,-0.766294,-0.766294,-0.711114,-0.796157,-0.639018,-0.796157,-0.603843,-0.800000,-0.600000,-0.800000,0.600000,-0.796157,0.603843,-0.796157,0.639018,-0.766294,0.711114,-0.711114,0.766294,-0.639018,0.796157,-0.603843,0.796157,-0.600000,0.800000,0.000000,0.800000,0.000000,0.796148,0.000000,0.796148,$1*%
G04 Aperture macros list end*
%TA.AperFunction,ComponentPad*%
%ADD10C,2.300000*%
%TD*%
%TA.AperFunction,ComponentPad*%
%ADD11RoundRect,0.170000X-0.680000X0.680000X-0.680000X-0.680000X0.680000X-0.680000X0.680000X0.680000X0*%
%TD*%
%TA.AperFunction,ComponentPad*%
%ADD12C,1.700000*%
%TD*%
%TA.AperFunction,ComponentPad*%
%ADD13R,2.000000X2.000000*%
%TD*%
%TA.AperFunction,ComponentPad*%
%ADD14C,2.000000*%
%TD*%
%TA.AperFunction,ComponentPad*%
%ADD15R,3.200000X2.000000*%
%TD*%
%TA.AperFunction,ComponentPad*%
%ADD16C,4.000000*%
%TD*%
%TA.AperFunction,ComponentPad*%
%ADD17RoundRect,0.200000X-0.600000X0.600000X-0.600000X-0.600000X0.600000X-0.600000X0.600000X0.600000X0*%
%TD*%
%TA.AperFunction,ComponentPad*%
%ADD18C,1.600000*%
%TD*%
%TA.AperFunction,ComponentPad*%
%ADD19FreePoly0,270.000000*%
%TD*%
%TA.AperFunction,ComponentPad*%
%ADD20FreePoly1,270.000000*%
%TD*%
%TA.AperFunction,ComponentPad*%
%ADD21RoundRect,0.250000X0.550000X-0.550000X0.550000X0.550000X-0.550000X0.550000X-0.550000X-0.550000X0*%
%TD*%
%TA.AperFunction,ViaPad*%
%ADD22C,0.600000*%
%TD*%
%TA.AperFunction,Conductor*%
%ADD23C,0.200000*%
%TD*%
G04 APERTURE END LIST*
D10*
%TO.P,SW34,1,1_1*%
%TO.N,/COL1*%
X71826250Y-100040000D03*
%TO.P,SW34,2,2_2*%
%TO.N,Net-(D34-A)*%
X78176250Y-97500000D03*
%TD*%
%TO.P,SW4,1,1_1*%
%TO.N,/COL3*%
X102782500Y-61940000D03*
%TO.P,SW4,2,2_2*%
%TO.N,Net-(D4-A)*%
X109132500Y-59400000D03*
%TD*%
%TO.P,SW23,1,1_1*%
%TO.N,/COL6*%
X169457500Y-80990000D03*
%TO.P,SW23,2,2_2*%
%TO.N,Net-(D23-A)*%
X175807500Y-78450000D03*
%TD*%
%TO.P,SW66,1,1_1*%
%TO.N,/COL3*%
X114688750Y-138140000D03*
%TO.P,SW66,2,2_2*%
%TO.N,Net-(D66-A)*%
X121038750Y-135600000D03*
%TD*%
%TO.P,SW21,1,1_1*%
%TO.N,/COL4*%
X131357500Y-80990000D03*
%TO.P,SW21,2,2_2*%
%TO.N,Net-(D21-A)*%
X137707500Y-78450000D03*
%TD*%
%TO.P,SW48,1,1_1*%
%TO.N,/COL0*%
X40870000Y-119090000D03*
%TO.P,SW48,2,2_2*%
%TO.N,Net-(D48-A)*%
X47220000Y-116550000D03*
%TD*%
%TO.P,SW41,1,1_1*%
%TO.N,/COL8*%
X212320000Y-100040000D03*
%TO.P,SW41,2,2_2*%
%TO.N,Net-(D41-A)*%
X218670000Y-97500000D03*
%TD*%
%TO.P,SW62,1,1_1*%
%TO.N,/COL14*%
X350432500Y-119090000D03*
%TO.P,SW62,2,2_2*%
%TO.N,Net-(D62-A)*%
X356782500Y-116550000D03*
%TD*%
%TO.P,SW63,1,1_1*%
%TO.N,/COL0*%
X40870000Y-138140000D03*
%TO.P,SW63,2,2_2*%
%TO.N,Net-(D63-A)*%
X47220000Y-135600000D03*
%TD*%
%TO.P,SW5,1,1_1*%
%TO.N,/COL4*%
X121832500Y-61940000D03*
%TO.P,SW5,2,2_2*%
%TO.N,Net-(D5-A)*%
X128182500Y-59400000D03*
%TD*%
%TO.P,SW36,1,1_1*%
%TO.N,/COL3*%
X117070000Y-100040000D03*
%TO.P,SW36,2,2_2*%
%TO.N,Net-(D36-A)*%
X123420000Y-97500000D03*
%TD*%
%TO.P,SW6,1,1_1*%
%TO.N,/COL5*%
X140882500Y-61940000D03*
%TO.P,SW6,2,2_2*%
%TO.N,Net-(D6-A)*%
X147232500Y-59400000D03*
%TD*%
%TO.P,SW26,1,1_1*%
%TO.N,/COL9*%
X226607500Y-80990000D03*
%TO.P,SW26,2,2_2*%
%TO.N,Net-(D26-A)*%
X232957500Y-78450000D03*
%TD*%
%TO.P,SW31,1,1_1*%
%TO.N,/COL14*%
X326620000Y-80990000D03*
%TO.P,SW31,2,2_2*%
%TO.N,Net-(D31-A)*%
X332970000Y-78450000D03*
%TD*%
%TO.P,SW13,1,1_1*%
%TO.N,/COL12*%
X274232500Y-61940000D03*
%TO.P,SW13,2,2_2*%
%TO.N,Net-(D13-A)*%
X280582500Y-59400000D03*
%TD*%
%TO.P,SW53,1,1_1*%
%TO.N,/COL5*%
X164695000Y-119090000D03*
%TO.P,SW53,2,2_2*%
%TO.N,Net-(D53-A)*%
X171045000Y-116550000D03*
%TD*%
%TO.P,SW50,1,1_1*%
%TO.N,/COL2*%
X107545000Y-119090000D03*
%TO.P,SW50,2,2_2*%
%TO.N,Net-(D50-A)*%
X113895000Y-116550000D03*
%TD*%
%TO.P,SW2,1,1_1*%
%TO.N,/COL1*%
X64682500Y-61940000D03*
%TO.P,SW2,2,2_2*%
%TO.N,Net-(D2-A)*%
X71032500Y-59400000D03*
%TD*%
%TO.P,SW25,1,1_1*%
%TO.N,/COL8*%
X207557500Y-80990000D03*
%TO.P,SW25,2,2_2*%
%TO.N,Net-(D25-A)*%
X213907500Y-78450000D03*
%TD*%
%TO.P,SW54,1,1_1*%
%TO.N,/COL6*%
X183745000Y-119090000D03*
%TO.P,SW54,2,2_2*%
%TO.N,Net-(D54-A)*%
X190095000Y-116550000D03*
%TD*%
D11*
%TO.P,U1,1,GND_1*%
%TO.N,/gnd*%
X118000000Y-36190000D03*
D12*
%TO.P,U1,2,VCC_2*%
%TO.N,Net-(A1-3V3_EN)*%
X118000000Y-38730000D03*
%TO.P,U1,3,SCL_3*%
%TO.N,Net-(A1-GPIO5)*%
X118000000Y-41270000D03*
%TO.P,U1,4,SDA_4*%
%TO.N,Net-(A1-GPIO4)*%
X118000000Y-43810000D03*
%TD*%
D10*
%TO.P,SW47,1,1_1*%
%TO.N,/COL14*%
X350432500Y-100040000D03*
%TO.P,SW47,2,2_2*%
%TO.N,Net-(D47-A)*%
X356782500Y-97500000D03*
%TD*%
%TO.P,SW30,1,1_1*%
%TO.N,/COL13*%
X302807500Y-80990000D03*
%TO.P,SW30,2,2_2*%
%TO.N,Net-(D30-A)*%
X309157500Y-78450000D03*
%TD*%
%TO.P,SW22,1,1_1*%
%TO.N,/COL5*%
X150407500Y-80990000D03*
%TO.P,SW22,2,2_2*%
%TO.N,Net-(D22-A)*%
X156757500Y-78450000D03*
%TD*%
%TO.P,SW29,1,1_1*%
%TO.N,/COL12*%
X283757500Y-80990000D03*
%TO.P,SW29,2,2_2*%
%TO.N,Net-(D29-A)*%
X290107500Y-78450000D03*
%TD*%
%TO.P,SW37,1,1_1*%
%TO.N,/COL4*%
X136120000Y-100040000D03*
%TO.P,SW37,2,2_2*%
%TO.N,Net-(D37-A)*%
X142470000Y-97500000D03*
%TD*%
%TO.P,SW33,1,1_1*%
%TO.N,/COL0*%
X40870000Y-100040000D03*
%TO.P,SW33,2,2_2*%
%TO.N,Net-(D33-A)*%
X47220000Y-97500000D03*
%TD*%
%TO.P,SW56,1,1_1*%
%TO.N,/COL8*%
X221845000Y-119090000D03*
%TO.P,SW56,2,2_2*%
%TO.N,Net-(D56-A)*%
X228195000Y-116550000D03*
%TD*%
%TO.P,SW24,1,1_1*%
%TO.N,/COL7*%
X188507500Y-80990000D03*
%TO.P,SW24,2,2_2*%
%TO.N,Net-(D24-A)*%
X194857500Y-78450000D03*
%TD*%
%TO.P,SW58,1,1_1*%
%TO.N,/COL10*%
X259945000Y-119090000D03*
%TO.P,SW58,2,2_2*%
%TO.N,Net-(D58-A)*%
X266295000Y-116550000D03*
%TD*%
%TO.P,SW20,1,1_1*%
%TO.N,/COL3*%
X112307500Y-80990000D03*
%TO.P,SW20,2,2_2*%
%TO.N,Net-(D20-A)*%
X118657500Y-78450000D03*
%TD*%
%TO.P,SW19,1,1_1*%
%TO.N,/COL2*%
X93257500Y-80990000D03*
%TO.P,SW19,2,2_2*%
%TO.N,Net-(D19-A)*%
X99607500Y-78450000D03*
%TD*%
%TO.P,SW57,1,1_1*%
%TO.N,/COL9*%
X240895000Y-119090000D03*
%TO.P,SW57,2,2_2*%
%TO.N,Net-(D57-A)*%
X247245000Y-116550000D03*
%TD*%
%TO.P,SW12,1,1_1*%
%TO.N,/COL11*%
X255182500Y-61940000D03*
%TO.P,SW12,2,2_2*%
%TO.N,Net-(D12-A)*%
X261532500Y-59400000D03*
%TD*%
%TO.P,SW40,1,1_1*%
%TO.N,/COL7*%
X193270000Y-100040000D03*
%TO.P,SW40,2,2_2*%
%TO.N,Net-(D40-A)*%
X199620000Y-97500000D03*
%TD*%
%TO.P,SW1,1,1_1*%
%TO.N,/COL0*%
X40870000Y-61940000D03*
%TO.P,SW1,2,2_2*%
%TO.N,Net-(D1-A)*%
X47220000Y-59400000D03*
%TD*%
%TO.P,SW42,1,1_1*%
%TO.N,/COL9*%
X231370000Y-100040000D03*
%TO.P,SW42,2,2_2*%
%TO.N,Net-(D42-A)*%
X237720000Y-97500000D03*
%TD*%
D13*
%TO.P,ENC1,A,A_A*%
%TO.N,/ENC_A*%
X54000000Y-37000000D03*
D14*
%TO.P,ENC1,B,B_B*%
%TO.N,/ENC_B*%
X54000000Y-42000000D03*
%TO.P,ENC1,C,C_C*%
%TO.N,/gnd*%
X54000000Y-39500000D03*
D15*
%TO.P,ENC1,MP*%
%TO.N,N/C*%
X61500000Y-33900000D03*
X61500000Y-45100000D03*
D14*
%TO.P,ENC1,S1,S1_S1*%
%TO.N,/gnd*%
X68500000Y-42000000D03*
%TO.P,ENC1,S2,S2_S2*%
%TO.N,Net-(A1-GPIO26_ADC0)*%
X68500000Y-37000000D03*
%TD*%
D10*
%TO.P,SW28,1,1_1*%
%TO.N,/COL11*%
X264707500Y-80990000D03*
%TO.P,SW28,2,2_2*%
%TO.N,Net-(D28-A)*%
X271057500Y-78450000D03*
%TD*%
%TO.P,SW43,1,1_1*%
%TO.N,/COL10*%
X250420000Y-100040000D03*
%TO.P,SW43,2,2_2*%
%TO.N,Net-(D43-A)*%
X256770000Y-97500000D03*
%TD*%
%TO.P,SW64,1,1_1*%
%TO.N,/COL1*%
X67063750Y-138140000D03*
%TO.P,SW64,2,2_2*%
%TO.N,Net-(D64-A)*%
X73413750Y-135600000D03*
%TD*%
%TO.P,SW18,1,1_1*%
%TO.N,/COL1*%
X69445000Y-80990000D03*
%TO.P,SW18,2,2_2*%
%TO.N,Net-(D18-A)*%
X75795000Y-78450000D03*
%TD*%
D16*
%TO.P,S2,*%
%TO.N,*%
X139987500Y-133760000D03*
X240000000Y-133760000D03*
%TD*%
D10*
%TO.P,SW60,1,1_1*%
%TO.N,/COL12*%
X305188750Y-119090000D03*
%TO.P,SW60,2,2_2*%
%TO.N,Net-(D60-A)*%
X311538750Y-116550000D03*
%TD*%
%TO.P,SW11,1,1_1*%
%TO.N,/COL10*%
X236132500Y-61940000D03*
%TO.P,SW11,2,2_2*%
%TO.N,Net-(D11-A)*%
X242482500Y-59400000D03*
%TD*%
%TO.P,SW46,1,1_1*%
%TO.N,/COL13*%
X319476250Y-100040000D03*
%TO.P,SW46,2,2_2*%
%TO.N,Net-(D46-A)*%
X325826250Y-97500000D03*
%TD*%
%TO.P,SW44,1,1_1*%
%TO.N,/COL11*%
X269470000Y-100040000D03*
%TO.P,SW44,2,2_2*%
%TO.N,Net-(D44-A)*%
X275820000Y-97500000D03*
%TD*%
%TO.P,SW69,1,1_1*%
%TO.N,/COL6*%
X274232500Y-138140000D03*
%TO.P,SW69,2,2_2*%
%TO.N,Net-(D69-A)*%
X280582500Y-135600000D03*
%TD*%
%TO.P,SW17,1,1_1*%
%TO.N,/COL0*%
X40870000Y-80990000D03*
%TO.P,SW17,2,2_2*%
%TO.N,Net-(D17-A)*%
X47220000Y-78450000D03*
%TD*%
%TO.P,SW27,1,1_1*%
%TO.N,/COL10*%
X245657500Y-80990000D03*
%TO.P,SW27,2,2_2*%
%TO.N,Net-(D27-A)*%
X252007500Y-78450000D03*
%TD*%
%TO.P,SW49,1,1_1*%
%TO.N,/COL1*%
X76588750Y-119090000D03*
%TO.P,SW49,2,2_2*%
%TO.N,Net-(D49-A)*%
X82938750Y-116550000D03*
%TD*%
%TO.P,SW8,1,1_1*%
%TO.N,/COL7*%
X178982500Y-61940000D03*
%TO.P,SW8,2,2_2*%
%TO.N,Net-(D8-A)*%
X185332500Y-59400000D03*
%TD*%
%TO.P,SW35,1,1_1*%
%TO.N,/COL2*%
X98020000Y-100040000D03*
%TO.P,SW35,2,2_2*%
%TO.N,Net-(D35-A)*%
X104370000Y-97500000D03*
%TD*%
%TO.P,SW59,1,1_1*%
%TO.N,/COL11*%
X278995000Y-119090000D03*
%TO.P,SW59,2,2_2*%
%TO.N,Net-(D59-A)*%
X285345000Y-116550000D03*
%TD*%
%TO.P,SW14,1,1_1*%
%TO.N,/COL13*%
X293282500Y-61940000D03*
%TO.P,SW14,2,2_2*%
%TO.N,Net-(D14-A)*%
X299632500Y-59400000D03*
%TD*%
%TO.P,SW7,1,1_1*%
%TO.N,/COL6*%
X159932500Y-61940000D03*
%TO.P,SW7,2,2_2*%
%TO.N,Net-(D7-A)*%
X166282500Y-59400000D03*
%TD*%
%TO.P,SW55,1,1_1*%
%TO.N,/COL7*%
X202795000Y-119090000D03*
%TO.P,SW55,2,2_2*%
%TO.N,Net-(D55-A)*%
X209145000Y-116550000D03*
%TD*%
%TO.P,SW73,1,1_1*%
%TO.N,/COL10*%
X350432500Y-138140000D03*
%TO.P,SW73,2,2_2*%
%TO.N,Net-(D73-A)*%
X356782500Y-135600000D03*
%TD*%
%TO.P,SW68,1,1_1*%
%TO.N,/COL5*%
X255182500Y-138140000D03*
%TO.P,SW68,2,2_2*%
%TO.N,Net-(D68-A)*%
X261532500Y-135600000D03*
%TD*%
%TO.P,SW16,1,1_1*%
%TO.N,/COL15*%
X350432500Y-61940000D03*
%TO.P,SW16,2,2_2*%
%TO.N,Net-(D16-A)*%
X356782500Y-59400000D03*
%TD*%
%TO.P,SW45,1,1_1*%
%TO.N,/COL12*%
X288520000Y-100040000D03*
%TO.P,SW45,2,2_2*%
%TO.N,Net-(D45-A)*%
X294870000Y-97500000D03*
%TD*%
%TO.P,SW67,1,1_1*%
%TO.N,/COL4*%
X186126250Y-138140000D03*
%TO.P,SW67,2,2_2*%
%TO.N,Net-(D67-A)*%
X192476250Y-135600000D03*
%TD*%
%TO.P,SW9,1,1_1*%
%TO.N,/COL8*%
X198032500Y-61940000D03*
%TO.P,SW9,2,2_2*%
%TO.N,Net-(D9-A)*%
X204382500Y-59400000D03*
%TD*%
%TO.P,SW39,1,1_1*%
%TO.N,/COL6*%
X174220000Y-100040000D03*
%TO.P,SW39,2,2_2*%
%TO.N,Net-(D39-A)*%
X180570000Y-97500000D03*
%TD*%
%TO.P,SW10,1,1_1*%
%TO.N,/COL9*%
X217082500Y-61940000D03*
%TO.P,SW10,2,2_2*%
%TO.N,Net-(D10-A)*%
X223432500Y-59400000D03*
%TD*%
%TO.P,SW72,1,1_1*%
%TO.N,/COL9*%
X331382500Y-138140000D03*
%TO.P,SW72,2,2_2*%
%TO.N,Net-(D72-A)*%
X337732500Y-135600000D03*
%TD*%
%TO.P,SW51,1,1_1*%
%TO.N,/COL3*%
X126595000Y-119090000D03*
%TO.P,SW51,2,2_2*%
%TO.N,Net-(D51-A)*%
X132945000Y-116550000D03*
%TD*%
%TO.P,SW65,1,1_1*%
%TO.N,/COL2*%
X90876250Y-138140000D03*
%TO.P,SW65,2,2_2*%
%TO.N,Net-(D65-A)*%
X97226250Y-135600000D03*
%TD*%
%TO.P,SW70,1,1_1*%
%TO.N,/COL7*%
X293282500Y-138140000D03*
%TO.P,SW70,2,2_2*%
%TO.N,Net-(D70-A)*%
X299632500Y-135600000D03*
%TD*%
%TO.P,SW52,1,1_1*%
%TO.N,/COL4*%
X145645000Y-119090000D03*
%TO.P,SW52,2,2_2*%
%TO.N,Net-(D52-A)*%
X151995000Y-116550000D03*
%TD*%
%TO.P,SW71,1,1_1*%
%TO.N,/COL8*%
X312332500Y-138140000D03*
%TO.P,SW71,2,2_2*%
%TO.N,Net-(D71-A)*%
X318682500Y-135600000D03*
%TD*%
D17*
%TO.P,A1,1,GPIO0_1*%
%TO.N,/ROW4*%
X371817500Y-29110000D03*
D18*
%TO.P,A1,2,GPIO1_2*%
%TO.N,/ROW3*%
X369277500Y-29110000D03*
D19*
%TO.P,A1,3,GND_3*%
%TO.N,/gnd*%
X366737500Y-29110000D03*
D18*
%TO.P,A1,4,GPIO2_4*%
%TO.N,/ROW2*%
X364197500Y-29110000D03*
%TO.P,A1,5,GPIO3_5*%
%TO.N,/ROW1*%
X361657500Y-29110000D03*
%TO.P,A1,6,GPIO4_6*%
%TO.N,Net-(A1-GPIO4)*%
X359117500Y-29110000D03*
%TO.P,A1,7,GPIO5_7*%
%TO.N,Net-(A1-GPIO5)*%
X356577500Y-29110000D03*
D19*
%TO.P,A1,8,GND_8*%
%TO.N,/gnd*%
X354037500Y-29110000D03*
D18*
%TO.P,A1,9,GPIO6_9*%
%TO.N,/ROW0*%
X351497500Y-29110000D03*
%TO.P,A1,10,GPIO7_10*%
%TO.N,/COL0*%
X348957500Y-29110000D03*
%TO.P,A1,11,GPIO8_11*%
%TO.N,/COL1*%
X346417500Y-29110000D03*
%TO.P,A1,12,GPIO9_12*%
%TO.N,/COL2*%
X343877500Y-29110000D03*
D19*
%TO.P,A1,13,GND_13*%
%TO.N,/gnd*%
X341337500Y-29110000D03*
D18*
%TO.P,A1,14,GPIO10_14*%
%TO.N,/COL3*%
X338797500Y-29110000D03*
%TO.P,A1,15,GPIO11_15*%
%TO.N,/COL4*%
X336257500Y-29110000D03*
%TO.P,A1,16,GPIO12_16*%
%TO.N,/COL5*%
X333717500Y-29110000D03*
%TO.P,A1,17,GPIO13_17*%
%TO.N,/COL6*%
X331177500Y-29110000D03*
D19*
%TO.P,A1,18,GND_18*%
%TO.N,/gnd*%
X328637500Y-29110000D03*
D18*
%TO.P,A1,19,GPIO14_19*%
%TO.N,/COL7*%
X326097500Y-29110000D03*
%TO.P,A1,20,GPIO15_20*%
%TO.N,/COL8*%
X323557500Y-29110000D03*
%TO.P,A1,21,GPIO16_21*%
%TO.N,/COL9*%
X323557500Y-46890000D03*
%TO.P,A1,22,GPIO17_22*%
%TO.N,/COL10*%
X326097500Y-46890000D03*
D20*
%TO.P,A1,23,GND_23*%
%TO.N,/gnd*%
X328637500Y-46890000D03*
D18*
%TO.P,A1,24,GPIO18_24*%
%TO.N,/COL11*%
X331177500Y-46890000D03*
%TO.P,A1,25,GPIO19_25*%
%TO.N,/COL12*%
X333717500Y-46890000D03*
%TO.P,A1,26,GPIO20_26*%
%TO.N,/COL13*%
X336257500Y-46890000D03*
%TO.P,A1,27,GPIO21_27*%
%TO.N,/COL14*%
X338797500Y-46890000D03*
D20*
%TO.P,A1,28,GND_28*%
%TO.N,/gnd*%
X341337500Y-46890000D03*
D18*
%TO.P,A1,29,GPIO22_29*%
%TO.N,/COL15*%
X343877500Y-46890000D03*
%TO.P,A1,30,RUN_30*%
%TO.N,unconnected-(A1-RUN-Pad30)*%
X346417500Y-46890000D03*
%TO.P,A1,31,GPIO26_ADC0_31*%
%TO.N,Net-(A1-GPIO26_ADC0)*%
X348957500Y-46890000D03*
%TO.P,A1,32,GPIO27_ADC1_32*%
%TO.N,/ENC_B*%
X351497500Y-46890000D03*
D20*
%TO.P,A1,33,AGND_33*%
%TO.N,unconnected-(A1-AGND-Pad33)*%
X354037500Y-46890000D03*
D18*
%TO.P,A1,34,GPIO28_ADC2_34*%
%TO.N,/ENC_A*%
X356577500Y-46890000D03*
%TO.P,A1,35,ADC_VREF_35*%
%TO.N,unconnected-(A1-ADC_VREF-Pad35)*%
X359117500Y-46890000D03*
%TO.P,A1,36,3V3_36*%
%TO.N,unconnected-(A1-3V3-Pad36)*%
X361657500Y-46890000D03*
%TO.P,A1,37,3V3_EN_37*%
%TO.N,Net-(A1-3V3_EN)*%
X364197500Y-46890000D03*
D20*
%TO.P,A1,38,GND_38*%
%TO.N,/gnd*%
X366737500Y-46890000D03*
D18*
%TO.P,A1,39,VSYS_39*%
%TO.N,unconnected-(A1-VSYS-Pad39)*%
X369277500Y-46890000D03*
%TO.P,A1,40,VBUS_40*%
%TO.N,unconnected-(A1-VBUS-Pad40)*%
X371817500Y-46890000D03*
%TD*%
D10*
%TO.P,SW32,1,1_1*%
%TO.N,/COL15*%
X350432500Y-80990000D03*
%TO.P,SW32,2,2_2*%
%TO.N,Net-(D32-A)*%
X356782500Y-78450000D03*
%TD*%
%TO.P,SW3,1,1_1*%
%TO.N,/COL2*%
X83732500Y-61940000D03*
%TO.P,SW3,2,2_2*%
%TO.N,Net-(D3-A)*%
X90082500Y-59400000D03*
%TD*%
%TO.P,SW61,1,1_1*%
%TO.N,/COL13*%
X331382500Y-119090000D03*
%TO.P,SW61,2,2_2*%
%TO.N,Net-(D61-A)*%
X337732500Y-116550000D03*
%TD*%
%TO.P,SW15,1,1_1*%
%TO.N,/COL14*%
X321857500Y-61940000D03*
%TO.P,SW15,2,2_2*%
%TO.N,Net-(D15-A)*%
X328207500Y-59400000D03*
%TD*%
%TO.P,SW38,1,1_1*%
%TO.N,/COL5*%
X155170000Y-100040000D03*
%TO.P,SW38,2,2_2*%
%TO.N,Net-(D38-A)*%
X161520000Y-97500000D03*
%TD*%
D21*
%TO.P,D31,1,K_1*%
%TO.N,/ROW1*%
X335510000Y-87530000D03*
D18*
%TO.P,D31,2,A_2*%
%TO.N,Net-(D31-A)*%
X335510000Y-79910000D03*
%TD*%
D21*
%TO.P,D12,1,K_1*%
%TO.N,/ROW0*%
X264072500Y-68480000D03*
D18*
%TO.P,D12,2,A_2*%
%TO.N,Net-(D12-A)*%
X264072500Y-60860000D03*
%TD*%
D21*
%TO.P,D28,1,K_1*%
%TO.N,/ROW1*%
X273597500Y-87530000D03*
D18*
%TO.P,D28,2,A_2*%
%TO.N,Net-(D28-A)*%
X273597500Y-79910000D03*
%TD*%
D21*
%TO.P,D48,1,K_1*%
%TO.N,/ROW3*%
X49760000Y-125630000D03*
D18*
%TO.P,D48,2,A_2*%
%TO.N,Net-(D48-A)*%
X49760000Y-118010000D03*
%TD*%
D21*
%TO.P,D66,1,K_1*%
%TO.N,/ROW4*%
X123578750Y-144680000D03*
D18*
%TO.P,D66,2,A_2*%
%TO.N,Net-(D66-A)*%
X123578750Y-137060000D03*
%TD*%
D21*
%TO.P,D53,1,K_1*%
%TO.N,/ROW3*%
X173585000Y-125630000D03*
D18*
%TO.P,D53,2,A_2*%
%TO.N,Net-(D53-A)*%
X173585000Y-118010000D03*
%TD*%
D21*
%TO.P,D36,1,K_1*%
%TO.N,/ROW2*%
X125960000Y-106580000D03*
D18*
%TO.P,D36,2,A_2*%
%TO.N,Net-(D36-A)*%
X125960000Y-98960000D03*
%TD*%
D21*
%TO.P,D71,1,K_1*%
%TO.N,/ROW4*%
X321222500Y-144680000D03*
D18*
%TO.P,D71,2,A_2*%
%TO.N,Net-(D71-A)*%
X321222500Y-137060000D03*
%TD*%
D21*
%TO.P,D57,1,K_1*%
%TO.N,/ROW3*%
X249785000Y-125630000D03*
D18*
%TO.P,D57,2,A_2*%
%TO.N,Net-(D57-A)*%
X249785000Y-118010000D03*
%TD*%
D21*
%TO.P,D68,1,K_1*%
%TO.N,/ROW4*%
X264072500Y-144680000D03*
D18*
%TO.P,D68,2,A_2*%
%TO.N,Net-(D68-A)*%
X264072500Y-137060000D03*
%TD*%
D21*
%TO.P,D43,1,K_1*%
%TO.N,/ROW2*%
X259310000Y-106580000D03*
D18*
%TO.P,D43,2,A_2*%
%TO.N,Net-(D43-A)*%
X259310000Y-98960000D03*
%TD*%
D21*
%TO.P,D49,1,K_1*%
%TO.N,/ROW3*%
X85478750Y-125630000D03*
D18*
%TO.P,D49,2,A_2*%
%TO.N,Net-(D49-A)*%
X85478750Y-118010000D03*
%TD*%
D21*
%TO.P,D42,1,K_1*%
%TO.N,/ROW2*%
X240260000Y-106580000D03*
D18*
%TO.P,D42,2,A_2*%
%TO.N,Net-(D42-A)*%
X240260000Y-98960000D03*
%TD*%
D21*
%TO.P,D21,1,K_1*%
%TO.N,/ROW1*%
X140247500Y-87530000D03*
D18*
%TO.P,D21,2,A_2*%
%TO.N,Net-(D21-A)*%
X140247500Y-79910000D03*
%TD*%
D21*
%TO.P,D65,1,K_1*%
%TO.N,/ROW4*%
X99766250Y-144680000D03*
D18*
%TO.P,D65,2,A_2*%
%TO.N,Net-(D65-A)*%
X99766250Y-137060000D03*
%TD*%
D21*
%TO.P,D69,1,K_1*%
%TO.N,/ROW4*%
X283122500Y-144680000D03*
D18*
%TO.P,D69,2,A_2*%
%TO.N,Net-(D69-A)*%
X283122500Y-137060000D03*
%TD*%
D21*
%TO.P,D27,1,K_1*%
%TO.N,/ROW1*%
X254547500Y-87530000D03*
D18*
%TO.P,D27,2,A_2*%
%TO.N,Net-(D27-A)*%
X254547500Y-79910000D03*
%TD*%
D21*
%TO.P,D9,1,K_1*%
%TO.N,/ROW0*%
X206922500Y-68480000D03*
D18*
%TO.P,D9,2,A_2*%
%TO.N,Net-(D9-A)*%
X206922500Y-60860000D03*
%TD*%
D21*
%TO.P,D51,1,K_1*%
%TO.N,/ROW3*%
X135485000Y-125630000D03*
D18*
%TO.P,D51,2,A_2*%
%TO.N,Net-(D51-A)*%
X135485000Y-118010000D03*
%TD*%
D21*
%TO.P,D50,1,K_1*%
%TO.N,/ROW3*%
X116435000Y-125630000D03*
D18*
%TO.P,D50,2,A_2*%
%TO.N,Net-(D50-A)*%
X116435000Y-118010000D03*
%TD*%
D21*
%TO.P,D26,1,K_1*%
%TO.N,/ROW1*%
X235497500Y-87530000D03*
D18*
%TO.P,D26,2,A_2*%
%TO.N,Net-(D26-A)*%
X235497500Y-79910000D03*
%TD*%
D21*
%TO.P,D3,1,K_1*%
%TO.N,/ROW0*%
X92622500Y-68480000D03*
D18*
%TO.P,D3,2,A_2*%
%TO.N,Net-(D3-A)*%
X92622500Y-60860000D03*
%TD*%
D21*
%TO.P,D6,1,K_1*%
%TO.N,/ROW0*%
X149772500Y-68480000D03*
D18*
%TO.P,D6,2,A_2*%
%TO.N,Net-(D6-A)*%
X149772500Y-60860000D03*
%TD*%
D21*
%TO.P,D55,1,K_1*%
%TO.N,/ROW3*%
X211685000Y-125630000D03*
D18*
%TO.P,D55,2,A_2*%
%TO.N,Net-(D55-A)*%
X211685000Y-118010000D03*
%TD*%
D21*
%TO.P,D41,1,K_1*%
%TO.N,/ROW2*%
X221210000Y-106580000D03*
D18*
%TO.P,D41,2,A_2*%
%TO.N,Net-(D41-A)*%
X221210000Y-98960000D03*
%TD*%
D21*
%TO.P,D35,1,K_1*%
%TO.N,/ROW2*%
X106910000Y-106580000D03*
D18*
%TO.P,D35,2,A_2*%
%TO.N,Net-(D35-A)*%
X106910000Y-98960000D03*
%TD*%
D21*
%TO.P,D44,1,K_1*%
%TO.N,/ROW2*%
X278360000Y-106580000D03*
D18*
%TO.P,D44,2,A_2*%
%TO.N,Net-(D44-A)*%
X278360000Y-98960000D03*
%TD*%
D21*
%TO.P,D56,1,K_1*%
%TO.N,/ROW3*%
X230735000Y-125630000D03*
D18*
%TO.P,D56,2,A_2*%
%TO.N,Net-(D56-A)*%
X230735000Y-118010000D03*
%TD*%
D21*
%TO.P,D54,1,K_1*%
%TO.N,/ROW3*%
X192635000Y-125630000D03*
D18*
%TO.P,D54,2,A_2*%
%TO.N,Net-(D54-A)*%
X192635000Y-118010000D03*
%TD*%
D21*
%TO.P,D22,1,K_1*%
%TO.N,/ROW1*%
X159297500Y-87530000D03*
D18*
%TO.P,D22,2,A_2*%
%TO.N,Net-(D22-A)*%
X159297500Y-79910000D03*
%TD*%
D21*
%TO.P,D72,1,K_1*%
%TO.N,/ROW4*%
X340272500Y-144680000D03*
D18*
%TO.P,D72,2,A_2*%
%TO.N,Net-(D72-A)*%
X340272500Y-137060000D03*
%TD*%
D21*
%TO.P,D2,1,K_1*%
%TO.N,/ROW0*%
X73572500Y-68480000D03*
D18*
%TO.P,D2,2,A_2*%
%TO.N,Net-(D2-A)*%
X73572500Y-60860000D03*
%TD*%
D21*
%TO.P,D47,1,K_1*%
%TO.N,/ROW2*%
X359322500Y-106580000D03*
D18*
%TO.P,D47,2,A_2*%
%TO.N,Net-(D47-A)*%
X359322500Y-98960000D03*
%TD*%
D21*
%TO.P,D15,1,K_1*%
%TO.N,/ROW0*%
X330747500Y-68480000D03*
D18*
%TO.P,D15,2,A_2*%
%TO.N,Net-(D15-A)*%
X330747500Y-60860000D03*
%TD*%
D21*
%TO.P,D60,1,K_1*%
%TO.N,/ROW3*%
X314078750Y-125630000D03*
D18*
%TO.P,D60,2,A_2*%
%TO.N,Net-(D60-A)*%
X314078750Y-118010000D03*
%TD*%
D21*
%TO.P,D1,1,K_1*%
%TO.N,/ROW0*%
X49760000Y-68480000D03*
D18*
%TO.P,D1,2,A_2*%
%TO.N,Net-(D1-A)*%
X49760000Y-60860000D03*
%TD*%
D21*
%TO.P,D16,1,K_1*%
%TO.N,/ROW0*%
X359322500Y-68480000D03*
D18*
%TO.P,D16,2,A_2*%
%TO.N,Net-(D16-A)*%
X359322500Y-60860000D03*
%TD*%
D21*
%TO.P,D52,1,K_1*%
%TO.N,/ROW3*%
X154535000Y-125630000D03*
D18*
%TO.P,D52,2,A_2*%
%TO.N,Net-(D52-A)*%
X154535000Y-118010000D03*
%TD*%
D21*
%TO.P,D8,1,K_1*%
%TO.N,/ROW0*%
X187872500Y-68480000D03*
D18*
%TO.P,D8,2,A_2*%
%TO.N,Net-(D8-A)*%
X187872500Y-60860000D03*
%TD*%
D21*
%TO.P,D18,1,K_1*%
%TO.N,/ROW1*%
X78335000Y-87530000D03*
D18*
%TO.P,D18,2,A_2*%
%TO.N,Net-(D18-A)*%
X78335000Y-79910000D03*
%TD*%
D21*
%TO.P,D34,1,K_1*%
%TO.N,/ROW2*%
X80716250Y-106580000D03*
D18*
%TO.P,D34,2,A_2*%
%TO.N,Net-(D34-A)*%
X80716250Y-98960000D03*
%TD*%
D21*
%TO.P,D39,1,K_1*%
%TO.N,/ROW2*%
X183110000Y-106580000D03*
D18*
%TO.P,D39,2,A_2*%
%TO.N,Net-(D39-A)*%
X183110000Y-98960000D03*
%TD*%
D21*
%TO.P,D37,1,K_1*%
%TO.N,/ROW2*%
X145010000Y-106580000D03*
D18*
%TO.P,D37,2,A_2*%
%TO.N,Net-(D37-A)*%
X145010000Y-98960000D03*
%TD*%
D21*
%TO.P,D20,1,K_1*%
%TO.N,/ROW1*%
X121197500Y-87530000D03*
D18*
%TO.P,D20,2,A_2*%
%TO.N,Net-(D20-A)*%
X121197500Y-79910000D03*
%TD*%
D21*
%TO.P,D25,1,K_1*%
%TO.N,/ROW1*%
X216447500Y-87530000D03*
D18*
%TO.P,D25,2,A_2*%
%TO.N,Net-(D25-A)*%
X216447500Y-79910000D03*
%TD*%
D21*
%TO.P,D24,1,K_1*%
%TO.N,/ROW1*%
X197397500Y-87530000D03*
D18*
%TO.P,D24,2,A_2*%
%TO.N,Net-(D24-A)*%
X197397500Y-79910000D03*
%TD*%
D21*
%TO.P,D32,1,K_1*%
%TO.N,/ROW1*%
X359322500Y-87530000D03*
D18*
%TO.P,D32,2,A_2*%
%TO.N,Net-(D32-A)*%
X359322500Y-79910000D03*
%TD*%
D21*
%TO.P,D14,1,K_1*%
%TO.N,/ROW0*%
X302172500Y-68480000D03*
D18*
%TO.P,D14,2,A_2*%
%TO.N,Net-(D14-A)*%
X302172500Y-60860000D03*
%TD*%
D21*
%TO.P,D10,1,K_1*%
%TO.N,/ROW0*%
X225972500Y-68480000D03*
D18*
%TO.P,D10,2,A_2*%
%TO.N,Net-(D10-A)*%
X225972500Y-60860000D03*
%TD*%
D21*
%TO.P,D17,1,K_1*%
%TO.N,/ROW1*%
X49760000Y-87530000D03*
D18*
%TO.P,D17,2,A_2*%
%TO.N,Net-(D17-A)*%
X49760000Y-79910000D03*
%TD*%
D21*
%TO.P,D46,1,K_1*%
%TO.N,/ROW2*%
X328366250Y-106580000D03*
D18*
%TO.P,D46,2,A_2*%
%TO.N,Net-(D46-A)*%
X328366250Y-98960000D03*
%TD*%
D21*
%TO.P,D40,1,K_1*%
%TO.N,/ROW2*%
X202160000Y-106580000D03*
D18*
%TO.P,D40,2,A_2*%
%TO.N,Net-(D40-A)*%
X202160000Y-98960000D03*
%TD*%
D21*
%TO.P,D64,1,K_1*%
%TO.N,/ROW4*%
X75953750Y-144680000D03*
D18*
%TO.P,D64,2,A_2*%
%TO.N,Net-(D64-A)*%
X75953750Y-137060000D03*
%TD*%
D21*
%TO.P,D59,1,K_1*%
%TO.N,/ROW3*%
X287885000Y-125630000D03*
D18*
%TO.P,D59,2,A_2*%
%TO.N,Net-(D59-A)*%
X287885000Y-118010000D03*
%TD*%
D21*
%TO.P,D4,1,K_1*%
%TO.N,/ROW0*%
X111672500Y-68480000D03*
D18*
%TO.P,D4,2,A_2*%
%TO.N,Net-(D4-A)*%
X111672500Y-60860000D03*
%TD*%
D21*
%TO.P,D61,1,K_1*%
%TO.N,/ROW3*%
X340272500Y-125630000D03*
D18*
%TO.P,D61,2,A_2*%
%TO.N,Net-(D61-A)*%
X340272500Y-118010000D03*
%TD*%
D21*
%TO.P,D7,1,K_1*%
%TO.N,/ROW0*%
X168822500Y-68480000D03*
D18*
%TO.P,D7,2,A_2*%
%TO.N,Net-(D7-A)*%
X168822500Y-60860000D03*
%TD*%
D21*
%TO.P,D62,1,K_1*%
%TO.N,/ROW3*%
X359322500Y-125630000D03*
D18*
%TO.P,D62,2,A_2*%
%TO.N,Net-(D62-A)*%
X359322500Y-118010000D03*
%TD*%
D21*
%TO.P,D63,1,K_1*%
%TO.N,/ROW4*%
X49760000Y-144680000D03*
D18*
%TO.P,D63,2,A_2*%
%TO.N,Net-(D63-A)*%
X49760000Y-137060000D03*
%TD*%
D21*
%TO.P,D11,1,K_1*%
%TO.N,/ROW0*%
X245022500Y-68480000D03*
D18*
%TO.P,D11,2,A_2*%
%TO.N,Net-(D11-A)*%
X245022500Y-60860000D03*
%TD*%
D21*
%TO.P,D5,1,K_1*%
%TO.N,/ROW0*%
X130722500Y-68480000D03*
D18*
%TO.P,D5,2,A_2*%
%TO.N,Net-(D5-A)*%
X130722500Y-60860000D03*
%TD*%
D21*
%TO.P,D33,1,K_1*%
%TO.N,/ROW2*%
X49760000Y-106580000D03*
D18*
%TO.P,D33,2,A_2*%
%TO.N,Net-(D33-A)*%
X49760000Y-98960000D03*
%TD*%
D21*
%TO.P,D29,1,K_1*%
%TO.N,/ROW1*%
X292647500Y-87530000D03*
D18*
%TO.P,D29,2,A_2*%
%TO.N,Net-(D29-A)*%
X292647500Y-79910000D03*
%TD*%
D21*
%TO.P,D23,1,K_1*%
%TO.N,/ROW1*%
X178347500Y-87530000D03*
D18*
%TO.P,D23,2,A_2*%
%TO.N,Net-(D23-A)*%
X178347500Y-79910000D03*
%TD*%
D21*
%TO.P,D45,1,K_1*%
%TO.N,/ROW2*%
X297410000Y-106580000D03*
D18*
%TO.P,D45,2,A_2*%
%TO.N,Net-(D45-A)*%
X297410000Y-98960000D03*
%TD*%
D21*
%TO.P,D67,1,K_1*%
%TO.N,/ROW4*%
X195016250Y-144680000D03*
D18*
%TO.P,D67,2,A_2*%
%TO.N,Net-(D67-A)*%
X195016250Y-137060000D03*
%TD*%
D21*
%TO.P,D13,1,K_1*%
%TO.N,/ROW0*%
X283122500Y-68480000D03*
D18*
%TO.P,D13,2,A_2*%
%TO.N,Net-(D13-A)*%
X283122500Y-60860000D03*
%TD*%
D21*
%TO.P,D73,1,K_1*%
%TO.N,/ROW4*%
X359322500Y-144680000D03*
D18*
%TO.P,D73,2,A_2*%
%TO.N,Net-(D73-A)*%
X359322500Y-137060000D03*
%TD*%
D21*
%TO.P,D38,1,K_1*%
%TO.N,/ROW2*%
X164060000Y-106580000D03*
D18*
%TO.P,D38,2,A_2*%
%TO.N,Net-(D38-A)*%
X164060000Y-98960000D03*
%TD*%
D21*
%TO.P,D70,1,K_1*%
%TO.N,/ROW4*%
X302172500Y-144680000D03*
D18*
%TO.P,D70,2,A_2*%
%TO.N,Net-(D70-A)*%
X302172500Y-137060000D03*
%TD*%
D21*
%TO.P,D30,1,K_1*%
%TO.N,/ROW1*%
X311697500Y-87530000D03*
D18*
%TO.P,D30,2,A_2*%
%TO.N,Net-(D30-A)*%
X311697500Y-79910000D03*
%TD*%
D21*
%TO.P,D19,1,K_1*%
%TO.N,/ROW1*%
X102147500Y-87530000D03*
D18*
%TO.P,D19,2,A_2*%
%TO.N,Net-(D19-A)*%
X102147500Y-79910000D03*
%TD*%
D21*
%TO.P,D58,1,K_1*%
%TO.N,/ROW3*%
X268835000Y-125630000D03*
D18*
%TO.P,D58,2,A_2*%
%TO.N,Net-(D58-A)*%
X268835000Y-118010000D03*
%TD*%
D22*
%TO.N,Net-(A1-3V3_EN)*%
X359087500Y-52000000D03*
X235500000Y-49000000D03*
X235500000Y-53500000D03*
%TO.N,Net-(A1-GPIO4)*%
X218500000Y-40000000D03*
%TO.N,/COL11*%
X274000000Y-115000000D03*
X272000000Y-111000000D03*
%TD*%
%TO.N,/gnd*%
D23*
X126190000Y-28000000D02*
X327527500Y-28000000D01*
X328637500Y-46890000D02*
X330027500Y-45500000D01*
X330027500Y-45500000D02*
X339947500Y-45500000D01*
X341337500Y-46890000D02*
X341337500Y-29110000D01*
X339947500Y-30500000D02*
X341337500Y-29110000D01*
X327527500Y-28000000D02*
X328637500Y-29110000D01*
X328637500Y-29110000D02*
X330027500Y-30500000D01*
X118000000Y-36190000D02*
X126190000Y-28000000D01*
X330027500Y-30500000D02*
X339947500Y-30500000D01*
X339947500Y-45500000D02*
X341337500Y-46890000D01*
X366737500Y-46890000D02*
X366737500Y-29110000D01*
%TO.N,Net-(A1-3V3_EN)*%
X235500000Y-45000000D02*
X235500000Y-49000000D01*
X118000000Y-38730000D02*
X229230000Y-38730000D01*
X229230000Y-38730000D02*
X235500000Y-45000000D01*
X359087500Y-52000000D02*
X353000000Y-52000000D01*
X353000000Y-52000000D02*
X351500000Y-53500000D01*
X351500000Y-53500000D02*
X235500000Y-53500000D01*
%TO.N,Net-(A1-GPIO4)*%
X118000000Y-43810000D02*
X121810000Y-40000000D01*
X121810000Y-40000000D02*
X218500000Y-40000000D01*
%TO.N,/COL11*%
X274000000Y-115000000D02*
X272000000Y-113000000D01*
X272000000Y-113000000D02*
X272000000Y-111000000D01*
%TO.N,/ENC_A*%
X52700000Y-38300000D02*
X52700000Y-42538478D01*
X62161522Y-52000000D02*
X351467500Y-52000000D01*
X351467500Y-52000000D02*
X356577500Y-46890000D01*
X54000000Y-37000000D02*
X52700000Y-38300000D01*
X52700000Y-42538478D02*
X62161522Y-52000000D01*
%TO.N,/ENC_B*%
X54000000Y-42000000D02*
X63000000Y-51000000D01*
X349000000Y-51000000D02*
X351497500Y-48502500D01*
X351497500Y-48502500D02*
X351497500Y-46890000D01*
X63000000Y-51000000D02*
X349000000Y-51000000D01*
%TO.N,/ROW0*%
X283122500Y-68480000D02*
X302172500Y-68480000D01*
X92622500Y-68480000D02*
X111672500Y-68480000D01*
X206922500Y-68480000D02*
X225972500Y-68480000D01*
X149772500Y-68480000D02*
X168822500Y-68480000D01*
X360557500Y-38170000D02*
X351497500Y-29110000D01*
X359322500Y-68480000D02*
X360557500Y-67245000D01*
X330747500Y-68480000D02*
X359322500Y-68480000D01*
X264072500Y-68480000D02*
X283122500Y-68480000D01*
X187872500Y-68480000D02*
X206922500Y-68480000D01*
X168822500Y-68480000D02*
X187872500Y-68480000D01*
X302172500Y-68480000D02*
X330747500Y-68480000D01*
X130722500Y-68480000D02*
X149772500Y-68480000D01*
X225972500Y-68480000D02*
X245022500Y-68480000D01*
X360557500Y-67245000D02*
X360557500Y-38170000D01*
X111672500Y-68480000D02*
X130722500Y-68480000D01*
X49760000Y-68480000D02*
X73572500Y-68480000D01*
X245022500Y-68480000D02*
X264072500Y-68480000D01*
X73572500Y-68480000D02*
X92622500Y-68480000D01*
%TO.N,/ROW1*%
X49760000Y-87530000D02*
X78335000Y-87530000D01*
X362757500Y-84095000D02*
X362757500Y-30210000D01*
X197397500Y-87530000D02*
X216447500Y-87530000D01*
X121197500Y-87530000D02*
X140247500Y-87530000D01*
X254547500Y-87530000D02*
X273597500Y-87530000D01*
X140247500Y-87530000D02*
X159297500Y-87530000D01*
X292647500Y-87530000D02*
X311697500Y-87530000D01*
X362757500Y-30210000D02*
X361657500Y-29110000D01*
X216447500Y-87530000D02*
X235497500Y-87530000D01*
X311697500Y-87530000D02*
X335510000Y-87530000D01*
X359322500Y-87530000D02*
X362757500Y-84095000D01*
X235497500Y-87530000D02*
X254547500Y-87530000D01*
X335510000Y-87530000D02*
X359322500Y-87530000D01*
X78335000Y-87530000D02*
X102147500Y-87530000D01*
X159297500Y-87530000D02*
X178347500Y-87530000D01*
X178347500Y-87530000D02*
X197397500Y-87530000D01*
X273597500Y-87530000D02*
X292647500Y-87530000D01*
X102147500Y-87530000D02*
X121197500Y-87530000D01*
%TO.N,/ROW2*%
X49760000Y-106580000D02*
X80716250Y-106580000D01*
X80716250Y-106580000D02*
X106910000Y-106580000D01*
X365297500Y-30210000D02*
X364197500Y-29110000D01*
X106910000Y-106580000D02*
X359322500Y-106580000D01*
X359322500Y-106580000D02*
X365297500Y-100605000D01*
X365297500Y-100605000D02*
X365297500Y-30210000D01*
%TO.N,/ROW3*%
X173585000Y-125630000D02*
X193370000Y-125630000D01*
X367540000Y-33875686D02*
X367540000Y-30847500D01*
X85478750Y-125630000D02*
X116435000Y-125630000D01*
X116435000Y-125630000D02*
X135485000Y-125630000D01*
X359322500Y-125630000D02*
X367842500Y-117110000D01*
X367842500Y-117110000D02*
X367842500Y-34178186D01*
X367842500Y-34178186D02*
X367540000Y-33875686D01*
X192635000Y-125630000D02*
X359322500Y-125630000D01*
X367540000Y-30847500D02*
X369277500Y-29110000D01*
X49760000Y-125630000D02*
X85478750Y-125630000D01*
X135485000Y-125630000D02*
X154535000Y-125630000D01*
X193370000Y-125630000D02*
X192635000Y-125630000D01*
X154535000Y-125630000D02*
X173585000Y-125630000D01*
%TO.N,/ROW4*%
X359322500Y-144680000D02*
X370540000Y-133462500D01*
X370540000Y-133462500D02*
X370540000Y-30387500D01*
X370540000Y-30387500D02*
X371817500Y-29110000D01*
X49760000Y-144680000D02*
X359322500Y-144680000D01*
%TO.N,Net-(A1-GPIO26_ADC0)*%
X348957500Y-48042500D02*
X348957500Y-46890000D01*
X68500000Y-37000000D02*
X81500000Y-50000000D01*
X81500000Y-50000000D02*
X347000000Y-50000000D01*
X347000000Y-50000000D02*
X348957500Y-48042500D01*
%TD*%
M02*
