M48
; DRILL file KiCad 10.0.4 date 2026-07-04T17:37:59
; FORMAT={-:-/ absolute / metric / decimal}
; #@! TF.CreationDate,2026-07-04T17:37:59+07:00
; #@! TF.GenerationSoftware,Kicad,Pcbnew,10.0.4
; #@! TF.FileFunction,Plated,1,2,PTH
FMAT,2
METRIC
; #@! TA.AperFunction,Plated,PTH,ViaDrill
T1C0.300
; #@! TA.AperFunction,Plated,PTH,ComponentDrill
T2C0.800
; #@! TA.AperFunction,Plated,PTH,ComponentDrill
T3C1.000
; #@! TA.AperFunction,Plated,PTH,ComponentDrill
T4C1.500
; #@! TA.AperFunction,Plated,PTH,ComponentDrill
T5C1.524
; #@! TA.AperFunction,Plated,PTH,ComponentDrill
T6C3.048
%
G90
G05
T1
X218.5Y-40.0
X235.5Y-49.0
X235.5Y-53.5
X272.0Y-111.0
X274.0Y-115.0
X359.087Y-52.0
T2
X49.76Y-60.86
X49.76Y-68.48
X49.76Y-79.91
X49.76Y-87.53
X49.76Y-98.96
X49.76Y-106.58
X49.76Y-118.01
X49.76Y-125.63
X49.76Y-137.06
X49.76Y-144.68
X73.572Y-60.86
X73.572Y-68.48
X75.954Y-137.06
X75.954Y-144.68
X78.335Y-79.91
X78.335Y-87.53
X80.716Y-98.96
X80.716Y-106.58
X85.479Y-118.01
X85.479Y-125.63
X92.623Y-60.86
X92.623Y-68.48
X99.766Y-137.06
X99.766Y-144.68
X102.147Y-79.91
X102.147Y-87.53
X106.91Y-98.96
X106.91Y-106.58
X111.672Y-60.86
X111.672Y-68.48
X116.435Y-118.01
X116.435Y-125.63
X121.197Y-79.91
X121.197Y-87.53
X123.579Y-137.06
X123.579Y-144.68
X125.96Y-98.96
X125.96Y-106.58
X130.722Y-60.86
X130.722Y-68.48
X135.485Y-118.01
X135.485Y-125.63
X140.248Y-79.91
X140.248Y-87.53
X145.01Y-98.96
X145.01Y-106.58
X149.772Y-60.86
X149.772Y-68.48
X154.535Y-118.01
X154.535Y-125.63
X159.297Y-79.91
X159.297Y-87.53
X164.06Y-98.96
X164.06Y-106.58
X168.822Y-60.86
X168.822Y-68.48
X173.585Y-118.01
X173.585Y-125.63
X178.347Y-79.91
X178.347Y-87.53
X183.11Y-98.96
X183.11Y-106.58
X187.873Y-60.86
X187.873Y-68.48
X192.635Y-118.01
X192.635Y-125.63
X195.016Y-137.06
X195.016Y-144.68
X197.397Y-79.91
X197.397Y-87.53
X202.16Y-98.96
X202.16Y-106.58
X206.922Y-60.86
X206.922Y-68.48
X211.685Y-118.01
X211.685Y-125.63
X216.447Y-79.91
X216.447Y-87.53
X221.21Y-98.96
X221.21Y-106.58
X225.972Y-60.86
X225.972Y-68.48
X230.735Y-118.01
X230.735Y-125.63
X235.498Y-79.91
X235.498Y-87.53
X240.26Y-98.96
X240.26Y-106.58
X245.022Y-60.86
X245.022Y-68.48
X249.785Y-118.01
X249.785Y-125.63
X254.547Y-79.91
X254.547Y-87.53
X259.31Y-98.96
X259.31Y-106.58
X264.072Y-60.86
X264.072Y-68.48
X264.072Y-137.06
X264.072Y-144.68
X268.835Y-118.01
X268.835Y-125.63
X273.597Y-79.91
X273.597Y-87.53
X278.36Y-98.96
X278.36Y-106.58
X283.123Y-60.86
X283.123Y-68.48
X283.123Y-137.06
X283.123Y-144.68
X287.885Y-118.01
X287.885Y-125.63
X292.647Y-79.91
X292.647Y-87.53
X297.41Y-98.96
X297.41Y-106.58
X302.173Y-60.86
X302.173Y-68.48
X302.173Y-137.06
X302.173Y-144.68
X311.697Y-79.91
X311.697Y-87.53
X314.079Y-118.01
X314.079Y-125.63
X321.222Y-137.06
X321.222Y-144.68
X328.366Y-98.96
X328.366Y-106.58
X330.748Y-60.86
X330.748Y-68.48
X335.51Y-79.91
X335.51Y-87.53
X340.272Y-118.01
X340.272Y-125.63
X340.272Y-137.06
X340.272Y-144.68
X359.322Y-60.86
X359.322Y-68.48
X359.322Y-79.91
X359.322Y-87.53
X359.322Y-98.96
X359.322Y-106.58
X359.322Y-118.01
X359.322Y-125.63
X359.322Y-137.06
X359.322Y-144.68
T3
X54.0Y-37.0
X54.0Y-39.5
X54.0Y-42.0
X68.5Y-37.0
X68.5Y-42.0
X118.0Y-36.19
X118.0Y-38.73
X118.0Y-41.27
X118.0Y-43.81
X323.558Y-29.11
X323.558Y-46.89
X326.097Y-29.11
X326.097Y-46.89
X328.637Y-29.11
X328.637Y-46.89
X331.178Y-29.11
X331.178Y-46.89
X333.717Y-29.11
X333.717Y-46.89
X336.257Y-29.11
X336.257Y-46.89
X338.797Y-29.11
X338.797Y-46.89
X341.337Y-29.11
X341.337Y-46.89
X343.877Y-29.11
X343.877Y-46.89
X346.417Y-29.11
X346.417Y-46.89
X348.957Y-29.11
X348.957Y-46.89
X351.498Y-29.11
X351.498Y-46.89
X354.037Y-29.11
X354.037Y-46.89
X356.577Y-29.11
X356.577Y-46.89
X359.118Y-29.11
X359.118Y-46.89
X361.657Y-29.11
X361.657Y-46.89
X364.197Y-29.11
X364.197Y-46.89
X366.738Y-29.11
X366.738Y-46.89
X369.277Y-29.11
X369.277Y-46.89
X371.817Y-29.11
X371.817Y-46.89
T5
X40.87Y-61.94
X40.87Y-80.99
X40.87Y-100.04
X40.87Y-119.09
X40.87Y-138.14
X47.22Y-59.4
X47.22Y-78.45
X47.22Y-97.5
X47.22Y-116.55
X47.22Y-135.6
X64.682Y-61.94
X67.064Y-138.14
X69.445Y-80.99
X71.032Y-59.4
X71.826Y-100.04
X73.414Y-135.6
X75.795Y-78.45
X76.589Y-119.09
X78.176Y-97.5
X82.939Y-116.55
X83.733Y-61.94
X90.082Y-59.4
X90.876Y-138.14
X93.257Y-80.99
X97.226Y-135.6
X98.02Y-100.04
X99.608Y-78.45
X102.782Y-61.94
X104.37Y-97.5
X107.545Y-119.09
X109.132Y-59.4
X112.307Y-80.99
X113.895Y-116.55
X114.689Y-138.14
X117.07Y-100.04
X118.657Y-78.45
X121.039Y-135.6
X121.832Y-61.94
X123.42Y-97.5
X126.595Y-119.09
X128.183Y-59.4
X131.357Y-80.99
X132.945Y-116.55
X136.12Y-100.04
X137.707Y-78.45
X140.882Y-61.94
X142.47Y-97.5
X145.645Y-119.09
X147.232Y-59.4
X150.407Y-80.99
X151.995Y-116.55
X155.17Y-100.04
X156.757Y-78.45
X159.933Y-61.94
X161.52Y-97.5
X164.695Y-119.09
X166.282Y-59.4
X169.457Y-80.99
X171.045Y-116.55
X174.22Y-100.04
X175.808Y-78.45
X178.982Y-61.94
X180.57Y-97.5
X183.745Y-119.09
X185.332Y-59.4
X186.126Y-138.14
X188.507Y-80.99
X190.095Y-116.55
X192.476Y-135.6
X193.27Y-100.04
X194.857Y-78.45
X198.032Y-61.94
X199.62Y-97.5
X202.795Y-119.09
X204.382Y-59.4
X207.558Y-80.99
X209.145Y-116.55
X212.32Y-100.04
X213.907Y-78.45
X217.082Y-61.94
X218.67Y-97.5
X221.845Y-119.09
X223.432Y-59.4
X226.607Y-80.99
X228.195Y-116.55
X231.37Y-100.04
X232.957Y-78.45
X236.132Y-61.94
X237.72Y-97.5
X240.895Y-119.09
X242.482Y-59.4
X245.657Y-80.99
X247.245Y-116.55
X250.42Y-100.04
X252.007Y-78.45
X255.182Y-61.94
X255.182Y-138.14
X256.77Y-97.5
X259.945Y-119.09
X261.532Y-59.4
X261.532Y-135.6
X264.707Y-80.99
X266.295Y-116.55
X269.47Y-100.04
X271.058Y-78.45
X274.233Y-61.94
X274.233Y-138.14
X275.82Y-97.5
X278.995Y-119.09
X280.582Y-59.4
X280.582Y-135.6
X283.757Y-80.99
X285.345Y-116.55
X288.52Y-100.04
X290.107Y-78.45
X293.282Y-61.94
X293.282Y-138.14
X294.87Y-97.5
X299.632Y-59.4
X299.632Y-135.6
X302.808Y-80.99
X305.189Y-119.09
X309.157Y-78.45
X311.539Y-116.55
X312.332Y-138.14
X318.683Y-135.6
X319.476Y-100.04
X321.857Y-61.94
X325.826Y-97.5
X326.62Y-80.99
X328.207Y-59.4
X331.382Y-119.09
X331.382Y-138.14
X332.97Y-78.45
X337.732Y-116.55
X337.732Y-135.6
X350.433Y-61.94
X350.433Y-80.99
X350.433Y-100.04
X350.433Y-119.09
X350.433Y-138.14
X356.782Y-59.4
X356.782Y-78.45
X356.782Y-97.5
X356.782Y-116.55
X356.782Y-135.6
T6
X139.987Y-133.76
X240.0Y-133.76
T4
G00X60.85Y-33.9
M15
G01X62.15Y-33.9
M16
G05
G00X60.85Y-45.1
M15
G01X62.15Y-45.1
M16
G05
M30
